<svg width="108" height="67" viewBox="0 0 108 67" fill="none" xmlns="http://www.w3.org/2000/svg">
<line x1="2" y1="-2" x2="22.4434" y2="-2" transform="matrix(1 0 0.00237225 0.999997 0.723633 29.5479)" stroke="#1F316A" stroke-width="4" stroke-linecap="round"/>
<line x1="41.4834" y1="2.17676" x2="105.668" y2="2.17676" stroke="#1F316A" stroke-width="4" stroke-linecap="round"/>
<line x1="30.2129" y1="56.2009" x2="78.3297" y2="56.2009" stroke="#1F316A" stroke-width="4"/>
<line x1="2" y1="-2" x2="32.0963" y2="-2" transform="matrix(0.570635 -0.821203 0.806058 0.591837 24.0713 30)" stroke="#1F316A" stroke-width="4" stroke-linecap="round"/>
<line x1="2.72363" y1="56.709" x2="15.7059" y2="56.709" stroke="#1F316A" stroke-width="4" stroke-linecap="round"/>
<line x1="93.7266" y1="56.5361" x2="105.652" y2="56.5361" stroke="#1F316A" stroke-width="4" stroke-linecap="round"/>
<line x1="2.61523" y1="55.7188" x2="2.61523" y2="27.75" stroke="#1F316A" stroke-width="4" stroke-linecap="round"/>
<line x1="105.734" y1="55.7188" x2="105.734" y2="3" stroke="#1F316A" stroke-width="4" stroke-linecap="round"/>
<path d="M32.5423 56.752C32.5423 60.9464 29.2484 64.252 25.3005 64.252C21.3525 64.252 18.0586 60.9464 18.0586 56.752C18.0586 52.5575 21.3525 49.252 25.3005 49.252C29.2484 49.252 32.5423 52.5575 32.5423 56.752Z" fill="#1F316A" stroke="#1F316A" stroke-width="4"/>
<path d="M93.9691 56.752C93.9691 60.9464 90.6752 64.252 86.7272 64.252C82.7792 64.252 79.4854 60.9464 79.4854 56.752C79.4854 52.5575 82.7792 49.252 86.7272 49.252C90.6752 49.252 93.9691 52.5575 93.9691 56.752Z" fill="#1F316A" stroke="#1F316A" stroke-width="4"/>
</svg>
