<svg width="279" height="43" viewBox="0 0 279 43" fill="none" xmlns="http://www.w3.org/2000/svg">
<rect y="13" width="22" height="2" rx="1" fill="#1F316A"/>
<rect y="20" width="22" height="2" rx="1" fill="#1F316A"/>
<rect y="27" width="22" height="2" rx="1" fill="#1F316A"/>
<path fill-rule="evenodd" clip-rule="evenodd" d="M62.3767 42.7534C74.1828 42.7534 83.7534 33.1828 83.7534 21.3767C83.7534 9.57069 74.1828 0 62.3767 0C50.5707 0 41 9.57069 41 21.3767C41 33.1828 50.5707 42.7534 62.3767 42.7534ZM69.4688 28.6837C70.3766 28.9474 71.2565 29.0793 72.1084 29.0793C72.9184 29.0793 73.6865 28.9613 74.4128 28.7254C75.139 28.5033 75.7884 28.198 76.361 27.8094C76.9336 27.4069 77.4085 26.9489 77.7856 26.4354C78.1766 25.908 78.435 25.346 78.5607 24.7492C78.1696 25.1655 77.7506 25.5056 77.3037 25.7693C76.8708 26.0191 76.4378 26.2203 76.0049 26.373C75.572 26.5256 75.153 26.6297 74.748 26.6852C74.3429 26.7408 73.9798 26.7685 73.6586 26.7685C72.7368 26.7685 71.871 26.602 71.0609 26.2689C70.2649 25.9219 69.5596 25.4501 68.9451 24.8533C68.3445 24.2565 67.8697 23.5556 67.5205 22.7507C67.1714 21.9457 66.9968 21.0714 66.9968 20.1277C66.9968 19.3921 67.0876 18.6912 67.2691 18.0251C67.4647 17.345 67.744 16.7552 68.1071 16.2556C68.4702 15.7421 68.9102 15.3327 69.4269 15.0273C69.9576 14.722 70.5581 14.5693 71.2285 14.5693C71.7453 14.5693 72.2201 14.6596 72.6531 14.84C73.086 15.0065 73.4561 15.2494 73.7634 15.5686C74.0706 15.8878 74.308 16.2695 74.4756 16.7136C74.6432 17.1438 74.727 17.6226 74.727 18.15C74.727 18.5247 74.6781 18.8855 74.5804 19.2325C74.4826 19.5656 74.336 19.864 74.1404 20.1277C73.9589 20.3775 73.7284 20.5787 73.4491 20.7314C73.1698 20.884 72.8486 20.9604 72.4855 20.9604C71.9966 20.9604 71.6056 20.8285 71.3123 20.5648C71.019 20.2873 70.8724 19.9195 70.8724 19.4615C70.9422 19.4893 71.04 19.524 71.1657 19.5656C71.2914 19.6072 71.4171 19.628 71.5428 19.628C71.8221 19.628 72.0595 19.5378 72.255 19.3574C72.4505 19.1631 72.5483 18.9064 72.5483 18.5872C72.5483 18.268 72.4436 18.0043 72.2341 17.7961C72.0246 17.5879 71.7453 17.4838 71.3961 17.4838C70.9073 17.4838 70.5372 17.6781 70.2858 18.0667C70.0484 18.4414 69.9297 18.8717 69.9297 19.3574C69.9297 19.7599 70.0135 20.1415 70.1811 20.5024C70.3487 20.8493 70.5861 21.1547 70.8933 21.4184C71.2006 21.6821 71.5637 21.8902 71.9827 22.0429C72.4017 22.1956 72.8625 22.2719 73.3653 22.2719C74.1614 22.2719 74.8457 22.1123 75.4183 21.7931C75.9909 21.4739 76.4658 21.0575 76.8429 20.544C77.2199 20.0305 77.4993 19.4546 77.6808 18.8162C77.8624 18.1777 77.9532 17.5393 77.9532 16.9009C77.9532 16.6372 77.9322 16.4013 77.8903 16.1931C77.8484 15.9711 77.8065 15.8115 77.7646 15.7143C77.5551 15.7837 77.3596 15.8184 77.178 15.8184C76.8429 15.8184 76.5216 15.749 76.2144 15.6102C75.9211 15.4714 75.551 15.2424 75.1041 14.9232C74.9225 14.7983 74.7061 14.6665 74.4547 14.5277C74.2172 14.375 73.9379 14.2363 73.6167 14.1114C73.3095 13.9864 72.9603 13.8824 72.5693 13.7991C72.1782 13.7158 71.7383 13.6742 71.2495 13.6742C70.188 13.6742 69.2384 13.9101 68.4004 14.382C67.5624 14.84 66.8502 15.4367 66.2636 16.1723C65.677 16.894 65.2301 17.7059 64.9229 18.608C64.6156 19.5101 64.462 20.4052 64.462 21.2935C64.462 22.7507 64.6994 23.9789 65.1742 24.9782C65.6491 25.9636 66.2566 26.7616 66.9968 27.3722C67.751 27.9829 68.575 28.42 69.4688 28.6837ZM53.2161 14.7151C53.3418 14.4791 53.5024 14.271 53.6979 14.0905H48.0417C48.5584 14.5069 49.0193 14.9649 49.4243 15.4645L48.6073 21.002C48.4397 22.1956 48.2582 23.2017 48.0626 24.0206C47.8811 24.8394 47.6925 25.5333 47.497 26.1023C47.3155 26.6714 47.1269 27.1571 46.9314 27.5596C46.7359 27.9482 46.5473 28.316 46.3658 28.6629H50.5975C50.4159 28.427 50.2553 28.1147 50.1157 27.7261C49.976 27.3236 49.8573 26.9004 49.7595 26.4562C49.6618 25.9983 49.5849 25.5472 49.5291 25.1031C49.4872 24.6451 49.4662 24.2426 49.4662 23.8957C49.4662 23.7569 49.4732 23.5765 49.4872 23.3544C49.5011 23.1324 49.5151 22.8964 49.5291 22.6466L49.6129 21.8972C49.6408 21.6474 49.6687 21.4184 49.6967 21.2102L50.2204 17.0258L54.5359 27.6637L58.0344 16.547L59.438 26.2689V26.4979C59.4519 26.5812 59.4589 26.6644 59.4589 26.7477C59.4589 27.1363 59.3821 27.4971 59.2285 27.8302C59.0888 28.1494 58.8933 28.427 58.6419 28.6629H63.8582C63.3415 28.3021 62.9714 27.8302 62.7479 27.2473C62.5384 26.6505 62.3708 25.8525 62.2451 24.8533L61.1348 16.5678C61.1348 16.4984 61.1279 16.3874 61.1139 16.2348V15.8809C61.1139 15.5061 61.1907 15.1592 61.3443 14.84C61.5119 14.5208 61.7982 14.271 62.2032 14.0905H56.4842C56.7495 14.2432 56.973 14.4028 57.1545 14.5693C57.3361 14.722 57.4548 14.8677 57.5107 15.0065L55.332 21.8555L53.1742 16.2972C53.1183 16.1445 53.0764 16.0196 53.0485 15.9225C53.0346 15.8115 53.0276 15.6796 53.0276 15.527C53.0276 15.2216 53.0904 14.951 53.2161 14.7151Z" fill="#1F316A"/>
<path d="M107.574 20.7318H101.782V19.9509C102.281 19.9509 102.648 19.9028 102.881 19.8066C103.113 19.7047 103.264 19.5604 103.332 19.3736C103.406 19.1812 103.443 18.9209 103.443 18.5927V11.3775L99.0813 20.7318H98.5617L94.1406 11.3775V18.2277C94.1406 18.5899 94.152 18.8672 94.1747 19.0596C94.2031 19.252 94.2684 19.4161 94.3706 19.5519C94.4785 19.6877 94.646 19.7896 94.8732 19.8575C95.1004 19.9197 95.4155 19.9509 95.8188 19.9509V20.7318H91.5425V19.9509C91.9514 19.9509 92.2666 19.9169 92.488 19.849C92.7152 19.7811 92.8799 19.6792 92.9821 19.5434C93.0843 19.4076 93.1468 19.2463 93.1695 19.0596C93.1922 18.8672 93.2036 18.5899 93.2036 18.2277V11.7086C93.2036 11.2219 93.178 10.871 93.1269 10.656C93.0758 10.4409 92.9338 10.2797 92.701 10.1721C92.4738 10.059 92.0877 10.0024 91.5425 10.0024V9.22143H95.7676L99.601 17.3449L103.443 9.22143H107.574V10.0024C106.864 10.0024 106.404 10.1071 106.194 10.3164C105.99 10.5202 105.888 10.8682 105.888 11.3605V18.5927C105.888 18.9039 105.922 19.1558 105.99 19.3482C106.058 19.5406 106.214 19.6905 106.458 19.7981C106.708 19.8999 107.08 19.9509 107.574 19.9509V20.7318Z" fill="#1F316A"/>
<path d="M119.858 20.7318H114.415V19.9509C114.875 19.9509 115.21 19.9197 115.42 19.8575C115.63 19.7896 115.735 19.634 115.735 19.3906C115.735 19.2208 115.701 19.0482 115.633 18.8728L115.088 17.5147H111.339L111.058 18.2616C110.899 18.6804 110.82 18.9832 110.82 19.1699C110.82 19.5095 110.95 19.7245 111.212 19.815C111.479 19.9056 111.788 19.9509 112.14 19.9509V20.7318H108.162V19.9509C108.48 19.9509 108.75 19.8914 108.971 19.7726C109.193 19.6538 109.403 19.4302 109.602 19.102C109.806 18.7681 110.025 18.2984 110.258 17.6929L113.588 9.00073H114.398L117.916 17.9646C118.171 18.5984 118.359 19.0284 118.478 19.2548C118.597 19.4755 118.762 19.6481 118.972 19.7726C119.182 19.8914 119.477 19.9509 119.858 19.9509V20.7318ZM114.781 16.6828L113.188 12.6677L111.672 16.6828H114.781Z" fill="#1F316A"/>
<path d="M133.939 20.7318H128.257V19.9509C128.723 19.9509 129.075 19.8999 129.313 19.7981C129.552 19.6962 129.705 19.5491 129.773 19.3567C129.842 19.1643 129.876 18.9096 129.876 18.5927V15.1379H124.517V18.5927C124.517 19.0681 124.617 19.4133 124.816 19.6283C125.014 19.8433 125.469 19.9509 126.179 19.9509V20.7318H120.454V19.9509C120.914 19.9509 121.263 19.8999 121.502 19.7981C121.746 19.6962 121.902 19.5519 121.97 19.3651C122.044 19.1727 122.081 18.9153 122.081 18.5927V11.3605C122.081 11.038 122.047 10.7861 121.979 10.6051C121.911 10.4183 121.76 10.2712 121.527 10.1637C121.295 10.0561 120.937 10.0024 120.454 10.0024V9.22143H126.179V10.0024C125.474 10.0024 125.02 10.1071 124.816 10.3164C124.617 10.5258 124.517 10.8739 124.517 11.3605V14.1957H129.876V11.3605C129.876 11.038 129.844 10.7861 129.782 10.6051C129.719 10.4183 129.572 10.2712 129.339 10.1637C129.106 10.0561 128.745 10.0024 128.257 10.0024V9.22143H133.939V10.0024C133.456 10.0024 133.098 10.0561 132.866 10.1637C132.633 10.2712 132.482 10.4183 132.414 10.6051C132.352 10.7861 132.32 11.038 132.32 11.3605V18.5927C132.32 18.9039 132.349 19.1529 132.406 19.3397C132.468 19.5208 132.619 19.6679 132.857 19.7811C133.096 19.8943 133.456 19.9509 133.939 19.9509V20.7318Z" fill="#1F316A"/>
<path d="M139.28 10.4607C139.28 10.523 139.311 10.6333 139.374 10.7918C139.442 10.9446 139.561 11.1398 139.731 11.3775L141.563 13.9665L143.616 11.3096C143.69 11.2134 143.749 11.1313 143.795 11.0634C143.84 10.9955 143.874 10.9361 143.897 10.8852C143.92 10.8286 143.934 10.7777 143.94 10.7324C143.945 10.6871 143.948 10.639 143.948 10.5881C143.948 10.3787 143.871 10.2287 143.718 10.1382C143.57 10.0476 143.292 10.0024 142.883 10.0024H142.483V9.22143H147.245V10.0024C146.825 10.0024 146.458 10.0731 146.146 10.2146C145.987 10.2881 145.848 10.3674 145.728 10.4523C145.615 10.5315 145.496 10.6305 145.371 10.7494C145.251 10.8682 145.118 11.0182 144.97 11.1992C144.828 11.3747 144.652 11.5982 144.442 11.8698L138.488 19.467C138.317 19.6877 138.144 19.8886 137.968 20.0697C137.792 20.2508 137.613 20.4064 137.431 20.5366C137.25 20.6667 137.06 20.7657 136.861 20.8337C136.668 20.9072 136.466 20.944 136.256 20.944C136.04 20.944 135.85 20.9157 135.685 20.8591C135.52 20.8082 135.381 20.7375 135.268 20.6469C135.154 20.5564 135.066 20.4545 135.004 20.3413C134.947 20.2225 134.919 20.1008 134.919 19.9763C134.919 19.7047 134.998 19.484 135.157 19.3142C135.322 19.1444 135.538 19.0596 135.804 19.0596C135.958 19.0596 136.114 19.0765 136.273 19.1105C136.438 19.1388 136.58 19.1529 136.699 19.1529C137.204 19.1529 137.562 19.0228 137.772 18.7625L139.996 15.9613L137.006 11.6576C136.818 11.386 136.653 11.1596 136.511 10.9785C136.375 10.7918 136.264 10.6503 136.179 10.5541C136.094 10.4523 136 10.3674 135.898 10.2995C135.802 10.2316 135.688 10.175 135.557 10.1297C135.427 10.0844 135.276 10.0533 135.106 10.0363C134.936 10.0137 134.737 10.0024 134.51 10.0024V9.22143H140.728V10.0024H140.285C140.12 10.0024 139.976 10.008 139.851 10.0193C139.726 10.025 139.621 10.0448 139.536 10.0788C139.45 10.1071 139.385 10.1523 139.34 10.2146C139.3 10.2768 139.28 10.3589 139.28 10.4607Z" fill="#1F316A"/>
<path d="M161.079 14.9766C161.079 15.4293 160.957 15.8594 160.712 16.2669C160.474 16.6743 160.128 17.0393 159.673 17.3619C159.225 17.6844 158.674 17.9561 158.021 18.1768C157.373 18.3918 156.638 18.5361 155.814 18.6097C155.82 18.8474 155.84 19.0511 155.874 19.2208C155.914 19.385 155.993 19.5208 156.112 19.6283C156.232 19.7302 156.405 19.8094 156.632 19.866C156.865 19.9169 157.174 19.9452 157.561 19.9509V20.7318H151.7V19.9509C152.075 19.9452 152.376 19.9197 152.603 19.8745C152.83 19.8235 153.003 19.7471 153.122 19.6453C153.247 19.5434 153.33 19.4104 153.37 19.2463C153.415 19.0765 153.441 18.8643 153.446 18.6097C152.543 18.5361 151.76 18.3777 151.095 18.1343C150.436 17.891 149.891 17.6024 149.46 17.2685C149.028 16.929 148.707 16.5611 148.497 16.165C148.287 15.7632 148.182 15.3643 148.182 14.9681C148.182 14.5267 148.298 14.1051 148.531 13.7033C148.77 13.2959 149.113 12.9309 149.562 12.6083C150.01 12.2858 150.561 12.0141 151.214 11.7934C151.867 11.5727 152.611 11.4284 153.446 11.3605C153.446 11.0663 153.406 10.8314 153.327 10.656C153.247 10.4806 153.131 10.3447 152.978 10.2485C152.83 10.1523 152.648 10.0901 152.432 10.0618C152.217 10.0278 151.972 10.008 151.7 10.0024V9.22143H157.561V10.0024C157.186 10.0137 156.885 10.0448 156.658 10.0957C156.43 10.141 156.254 10.2174 156.13 10.3249C156.005 10.4268 155.919 10.5626 155.874 10.7324C155.834 10.8965 155.814 11.1059 155.814 11.3605C156.825 11.4454 157.669 11.6208 158.344 11.8868C159.02 12.1528 159.56 12.4612 159.963 12.8121C160.366 13.1629 160.653 13.5307 160.823 13.9156C160.994 14.3004 161.079 14.6541 161.079 14.9766ZM150.942 14.9596C150.942 15.1803 150.964 15.435 151.01 15.7236C151.061 16.0065 151.172 16.2838 151.342 16.5555C151.513 16.8271 151.762 17.0761 152.092 17.3025C152.427 17.5232 152.878 17.6844 153.446 17.7863V12.1669C152.946 12.2518 152.535 12.3876 152.211 12.5744C151.887 12.7611 151.632 12.9818 151.444 13.2365C151.257 13.4855 151.126 13.7599 151.053 14.0599C150.979 14.3541 150.942 14.6541 150.942 14.9596ZM158.319 14.9596C158.319 14.6484 158.279 14.3456 158.2 14.0514C158.12 13.7514 157.984 13.477 157.791 13.228C157.598 12.9733 157.339 12.7555 157.015 12.5744C156.697 12.3876 156.297 12.2518 155.814 12.1669V17.7948C156.206 17.7212 156.541 17.6194 156.82 17.4892C157.098 17.3534 157.328 17.2034 157.51 17.0393C157.697 16.8695 157.845 16.6913 157.952 16.5045C158.06 16.3178 158.14 16.131 158.191 15.9443C158.248 15.7576 158.282 15.5793 158.293 15.4095C158.31 15.2398 158.319 15.0898 158.319 14.9596Z" fill="#1F316A"/>
<path d="M173.746 20.7318H168.302V19.9509C168.762 19.9509 169.097 19.9197 169.308 19.8575C169.518 19.7896 169.623 19.634 169.623 19.3906C169.623 19.2208 169.589 19.0482 169.521 18.8728L168.975 17.5147H165.227L164.946 18.2616C164.787 18.6804 164.708 18.9832 164.708 19.1699C164.708 19.5095 164.838 19.7245 165.099 19.815C165.366 19.9056 165.676 19.9509 166.028 19.9509V20.7318H162.05V19.9509C162.368 19.9509 162.638 19.8914 162.859 19.7726C163.081 19.6538 163.291 19.4302 163.489 19.102C163.694 18.7681 163.913 18.2984 164.145 17.6929L167.476 9.00073H168.285L171.803 17.9646C172.059 18.5984 172.246 19.0284 172.366 19.2548C172.485 19.4755 172.65 19.6481 172.86 19.7726C173.07 19.8914 173.365 19.9509 173.746 19.9509V20.7318ZM168.669 16.6828L167.076 12.6677L165.559 16.6828H168.669Z" fill="#1F316A"/>
<path d="M186.822 20.7318H183.729C183.445 20.3753 183.184 20.0188 182.946 19.6622C182.707 19.3001 182.477 18.9379 182.256 18.5757C182.04 18.2135 181.824 17.8542 181.608 17.4977C181.398 17.1412 181.177 16.7875 180.944 16.4366C180.808 16.2329 180.68 16.0745 180.56 15.9613C180.447 15.8481 180.302 15.7632 180.126 15.7066C179.956 15.65 179.737 15.6161 179.47 15.6048C179.203 15.5934 178.848 15.5878 178.405 15.5878V18.5927C178.405 18.8417 178.428 19.0539 178.473 19.2293C178.525 19.3991 178.613 19.5377 178.738 19.6453C178.862 19.7528 179.033 19.832 179.249 19.8829C179.47 19.9282 179.748 19.9509 180.083 19.9509V20.7318H174.308V19.9509C174.683 19.9452 174.978 19.9169 175.194 19.866C175.415 19.8094 175.58 19.7273 175.688 19.6198C175.801 19.5123 175.875 19.3736 175.909 19.2039C175.943 19.0341 175.963 18.8304 175.969 18.5927V11.3605C175.969 11.1228 175.952 10.9191 175.918 10.7494C175.89 10.5796 175.819 10.4438 175.705 10.3419C175.591 10.2344 175.424 10.1552 175.202 10.1042C174.987 10.0476 174.688 10.0137 174.308 10.0024V9.22143H180.083V10.0024C179.374 10.0024 178.916 10.1042 178.712 10.308C178.508 10.5117 178.405 10.8625 178.405 11.3605V14.3994C178.502 14.3994 178.615 14.3768 178.746 14.3315C178.877 14.2806 179.044 14.1815 179.249 14.0344C179.453 13.8873 179.7 13.675 179.99 13.3978C180.279 13.1148 180.634 12.7441 181.055 12.2858C181.316 11.9915 181.532 11.7397 181.702 11.5303C181.872 11.3209 182.026 11.1313 182.162 10.9616C182.304 10.7861 182.449 10.6192 182.596 10.4607C182.75 10.2966 182.937 10.1156 183.159 9.91749C183.346 9.75338 183.525 9.61473 183.695 9.50155C183.866 9.38271 184.036 9.28934 184.206 9.22143C184.377 9.14787 184.553 9.09694 184.735 9.06864C184.922 9.03469 185.124 9.01771 185.339 9.01771C185.453 9.01771 185.561 9.03186 185.663 9.06015C185.771 9.08279 185.865 9.1224 185.944 9.17899C186.024 9.23558 186.086 9.30632 186.132 9.3912C186.177 9.47043 186.2 9.56946 186.2 9.6883C186.2 9.85241 186.16 10.0052 186.08 10.1467C186.007 10.2881 185.853 10.4013 185.62 10.4862C185.365 10.5768 185.115 10.6447 184.871 10.6899C184.627 10.7296 184.414 10.7861 184.232 10.8597C184.13 10.8993 184.019 10.9446 183.9 10.9955C183.78 11.0465 183.656 11.1115 183.525 11.1908C183.394 11.2643 183.255 11.3577 183.108 11.4709C182.966 11.5784 182.821 11.7086 182.673 11.8613C182.542 11.9972 182.386 12.1698 182.205 12.3791C182.023 12.5885 181.813 12.8177 181.574 13.0667C181.341 13.31 181.086 13.5619 180.808 13.8222C180.529 14.0825 180.234 14.3258 179.922 14.5522C179.984 14.5465 180.044 14.5437 180.1 14.5437C180.163 14.538 180.223 14.5352 180.279 14.5352C180.597 14.5352 180.887 14.555 181.148 14.5946C181.415 14.6342 181.665 14.7078 181.898 14.8153C182.136 14.9172 182.361 15.0643 182.571 15.2567C182.781 15.4435 182.994 15.6896 183.21 15.9952C183.579 16.5272 183.942 17.0648 184.3 17.608C184.658 18.1513 185.038 18.6889 185.442 19.2208C185.532 19.3397 185.635 19.4472 185.748 19.5434C185.862 19.634 185.978 19.7103 186.097 19.7726C186.222 19.8292 186.345 19.8745 186.464 19.9084C186.589 19.9367 186.708 19.9509 186.822 19.9509V20.7318Z" fill="#1F316A"/>
<path d="M198.773 12.4895H197.964C197.89 11.7765 197.731 11.2502 197.487 10.9106C197.248 10.5711 196.99 10.3617 196.712 10.2825C196.433 10.2033 196.112 10.1637 195.749 10.1637H194.284V18.5927C194.284 18.9266 194.318 19.1869 194.386 19.3736C194.454 19.5547 194.613 19.6962 194.863 19.7981C195.113 19.8999 195.479 19.9509 195.962 19.9509V20.7318H190.169V19.9509C190.879 19.9509 191.336 19.849 191.541 19.6453C191.745 19.4415 191.847 19.0907 191.847 18.5927V10.1637H190.621C190.138 10.1637 189.738 10.2033 189.42 10.2825C189.102 10.3561 188.821 10.5654 188.576 10.9106C188.338 11.2502 188.202 11.7765 188.167 12.4895H187.358V9.22143H198.773V12.4895Z" fill="#1F316A"/>
<path d="M204.14 10.4607C204.14 10.523 204.171 10.6333 204.233 10.7918C204.301 10.9446 204.421 11.1398 204.591 11.3775L206.423 13.9665L208.476 11.3096C208.549 11.2134 208.609 11.1313 208.654 11.0634C208.7 10.9955 208.734 10.9361 208.757 10.8852C208.779 10.8286 208.794 10.7777 208.799 10.7324C208.805 10.6871 208.808 10.639 208.808 10.5881C208.808 10.3787 208.731 10.2287 208.578 10.1382C208.43 10.0476 208.152 10.0024 207.743 10.0024H207.343V9.22143H212.104V10.0024C211.684 10.0024 211.318 10.0731 211.005 10.2146C210.846 10.2881 210.707 10.3674 210.588 10.4523C210.475 10.5315 210.355 10.6305 210.23 10.7494C210.111 10.8682 209.978 11.0182 209.83 11.1992C209.688 11.3747 209.512 11.5982 209.302 11.8698L203.347 19.467C203.177 19.6877 203.004 19.8886 202.828 20.0697C202.652 20.2508 202.473 20.4064 202.291 20.5366C202.109 20.6667 201.919 20.7657 201.72 20.8337C201.527 20.9072 201.326 20.944 201.116 20.944C200.9 20.944 200.71 20.9157 200.545 20.8591C200.38 20.8082 200.241 20.7375 200.127 20.6469C200.014 20.5564 199.926 20.4545 199.863 20.3413C199.807 20.2225 199.778 20.1008 199.778 19.9763C199.778 19.7047 199.858 19.484 200.017 19.3142C200.181 19.1444 200.397 19.0596 200.664 19.0596C200.817 19.0596 200.974 19.0765 201.133 19.1105C201.297 19.1388 201.439 19.1529 201.559 19.1529C202.064 19.1529 202.422 19.0228 202.632 18.7625L204.855 15.9613L201.865 11.6576C201.678 11.386 201.513 11.1596 201.371 10.9785C201.235 10.7918 201.124 10.6503 201.039 10.5541C200.954 10.4523 200.86 10.3674 200.758 10.2995C200.661 10.2316 200.548 10.175 200.417 10.1297C200.286 10.0844 200.136 10.0533 199.966 10.0363C199.795 10.0137 199.596 10.0024 199.369 10.0024V9.22143H205.588V10.0024H205.145C204.98 10.0024 204.835 10.008 204.71 10.0193C204.585 10.025 204.48 10.0448 204.395 10.0788C204.31 10.1071 204.245 10.1523 204.199 10.2146C204.159 10.2768 204.14 10.3589 204.14 10.4607Z" fill="#1F316A"/>
<path d="M222.991 12.2858C222.991 13.2308 222.699 13.9495 222.114 14.4418C221.529 14.9285 220.839 15.2426 220.044 15.3841C219.254 15.5199 218.422 15.5878 217.548 15.5878H216.781V18.5927C216.781 18.9322 216.818 19.1954 216.892 19.3821C216.966 19.5689 217.125 19.7103 217.369 19.8066C217.613 19.9028 217.985 19.9509 218.485 19.9509V20.7318H212.675V19.9509C213.169 19.9509 213.533 19.8999 213.765 19.7981C214.004 19.6962 214.157 19.5519 214.225 19.3651C214.299 19.1784 214.336 18.9209 214.336 18.5927V11.3266C214.336 10.9984 214.302 10.7437 214.234 10.5626C214.166 10.3759 214.013 10.2316 213.774 10.1297C213.535 10.0222 213.169 9.96842 212.675 9.96842V9.1705L215.972 9.08562C216.142 9.07996 216.327 9.07713 216.525 9.07713C216.73 9.07147 216.892 9.06864 217.011 9.06864C217.13 9.06298 217.306 9.06015 217.539 9.06015C217.829 9.06015 218.045 9.06298 218.187 9.06864C218.862 9.09694 219.513 9.16201 220.137 9.26387C220.762 9.36574 221.392 9.65434 222.028 10.1297C222.67 10.5994 222.991 11.3181 222.991 12.2858ZM220.367 12.3027C220.367 11.386 220.098 10.7748 219.558 10.4692C219.024 10.158 218.32 10.0024 217.445 10.0024C217.286 10.0024 217.065 10.008 216.781 10.0193V14.6456H217.565C218.4 14.6456 219.075 14.5041 219.592 14.2211C220.109 13.9325 220.367 13.2931 220.367 12.3027Z" fill="#1F316A"/>
<path d="M235.351 20.7318H229.908V19.9509C230.368 19.9509 230.703 19.9197 230.913 19.8575C231.123 19.7896 231.228 19.634 231.228 19.3906C231.228 19.2208 231.194 19.0482 231.126 18.8728L230.581 17.5147H226.833L226.552 18.2616C226.393 18.6804 226.313 18.9832 226.313 19.1699C226.313 19.5095 226.444 19.7245 226.705 19.815C226.972 19.9056 227.281 19.9509 227.634 19.9509V20.7318H223.655V19.9509C223.973 19.9509 224.243 19.8914 224.465 19.7726C224.686 19.6538 224.896 19.4302 225.095 19.102C225.299 18.7681 225.518 18.2984 225.751 17.6929L229.082 9.00073H229.891L233.409 17.9646C233.665 18.5984 233.852 19.0284 233.971 19.2548C234.091 19.4755 234.255 19.6481 234.465 19.7726C234.675 19.8914 234.971 19.9509 235.351 19.9509V20.7318ZM230.274 16.6828L228.681 12.6677L227.165 16.6828H230.274Z" fill="#1F316A"/>
<path d="M251.681 20.613H250.88C250.761 20.1263 250.565 19.6905 250.293 19.3057C249.861 19.7528 249.367 20.1376 248.81 20.4602C248.254 20.7827 247.501 20.944 246.553 20.944C245.514 20.944 244.548 20.6922 243.657 20.1885C242.771 19.6849 242.064 18.9832 241.536 18.0834C241.008 17.178 240.743 16.1593 240.743 15.0275C240.743 14.224 240.885 13.4572 241.169 12.7272C241.459 11.9972 241.868 11.3549 242.396 10.8003C242.93 10.2457 243.563 9.80997 244.296 9.49306C245.034 9.17616 245.84 9.01771 246.715 9.01771C248.157 9.01771 249.35 9.4874 250.293 10.4268C250.418 10.1835 250.54 9.82977 250.659 9.36574H251.426L251.562 13.6015H250.744C250.596 12.8828 250.33 12.2433 249.943 11.6831C249.557 11.1228 249.097 10.6956 248.563 10.4013C248.035 10.1014 247.482 9.95144 246.902 9.95144C246.255 9.95144 245.673 10.1297 245.156 10.4862C244.639 10.8371 244.233 11.3747 243.938 12.099C243.648 12.8234 243.503 13.726 243.503 14.8068C243.503 15.8594 243.626 16.7366 243.87 17.4383C244.114 18.1343 244.415 18.6606 244.773 19.0171C245.136 19.3736 245.5 19.617 245.863 19.7471C246.227 19.8716 246.567 19.9339 246.885 19.9339C247.584 19.9339 248.211 19.7471 248.768 19.3736C249.33 19.0001 249.79 18.5305 250.148 17.9646C250.506 17.393 250.744 16.8271 250.863 16.2669H251.681V20.613Z" fill="#1F316A"/>
<path d="M266.708 20.7318H261.026V19.9509C261.492 19.9509 261.844 19.8999 262.082 19.7981C262.321 19.6962 262.474 19.5491 262.542 19.3567C262.61 19.1643 262.644 18.9096 262.644 18.5927V15.1379H257.286V18.5927C257.286 19.0681 257.386 19.4133 257.584 19.6283C257.783 19.8433 258.238 19.9509 258.947 19.9509V20.7318H253.223V19.9509C253.683 19.9509 254.032 19.8999 254.271 19.7981C254.515 19.6962 254.671 19.5519 254.739 19.3651C254.813 19.1727 254.85 18.9153 254.85 18.5927V11.3605C254.85 11.038 254.816 10.7861 254.748 10.6051C254.68 10.4183 254.529 10.2712 254.296 10.1637C254.064 10.0561 253.706 10.0024 253.223 10.0024V9.22143H258.947V10.0024C258.243 10.0024 257.789 10.1071 257.584 10.3164C257.386 10.5258 257.286 10.8739 257.286 11.3605V14.1957H262.644V11.3605C262.644 11.038 262.613 10.7861 262.551 10.6051C262.488 10.4183 262.341 10.2712 262.108 10.1637C261.875 10.0561 261.514 10.0024 261.026 10.0024V9.22143H266.708V10.0024C266.225 10.0024 265.867 10.0561 265.634 10.1637C265.402 10.2712 265.251 10.4183 265.183 10.6051C265.12 10.7861 265.089 11.038 265.089 11.3605V18.5927C265.089 18.9039 265.118 19.1529 265.174 19.3397C265.237 19.5208 265.387 19.6679 265.626 19.7811C265.864 19.8943 266.225 19.9509 266.708 19.9509V20.7318Z" fill="#1F316A"/>
<path d="M279 20.7318H273.557V19.9509C274.017 19.9509 274.352 19.9197 274.562 19.8575C274.772 19.7896 274.877 19.634 274.877 19.3906C274.877 19.2208 274.843 19.0482 274.775 18.8728L274.23 17.5147H270.481L270.2 18.2616C270.041 18.6804 269.962 18.9832 269.962 19.1699C269.962 19.5095 270.092 19.7245 270.354 19.815C270.621 19.9056 270.93 19.9509 271.282 19.9509V20.7318H267.304V19.9509C267.622 19.9509 267.892 19.8914 268.113 19.7726C268.335 19.6538 268.545 19.4302 268.744 19.102C268.948 18.7681 269.167 18.2984 269.4 17.6929L272.73 9.00073H273.54L277.058 17.9646C277.313 18.5984 277.501 19.0284 277.62 19.2548C277.739 19.4755 277.904 19.6481 278.114 19.7726C278.324 19.8914 278.619 19.9509 279 19.9509V20.7318ZM273.923 16.6828L272.33 12.6677L270.814 16.6828H273.923Z" fill="#1F316A"/>
<path d="M97.7824 32.0809C97.7824 32.4743 97.6837 32.7969 97.4865 33.0488C97.2892 33.2973 97.0392 33.4871 96.7365 33.6182C96.4337 33.7459 96.1378 33.8305 95.8487 33.8719C95.5596 33.9133 95.2806 33.934 95.0119 33.934H91.5425V33.4578C91.8384 33.4578 92.0561 33.4267 92.1956 33.3646C92.3384 33.3025 92.4303 33.2145 92.4711 33.1006C92.5153 32.9867 92.5374 32.8297 92.5374 32.6295V28.1986C92.5374 27.888 92.4745 27.6723 92.3486 27.5515C92.2228 27.4307 91.9541 27.3703 91.5425 27.3703V26.8838C92.0357 26.8734 92.5051 26.8631 92.9507 26.8527C93.3963 26.8424 93.7619 26.8355 94.0476 26.832C94.3367 26.8251 94.5391 26.8217 94.6548 26.8217H94.8436C95.1973 26.8217 95.5664 26.8596 95.9507 26.9355C96.3385 27.008 96.6905 27.1754 97.0069 27.4376C97.3266 27.6999 97.4865 28.0778 97.4865 28.5713C97.4865 28.9405 97.3572 29.258 97.0987 29.5237C96.8402 29.7894 96.4167 30.0086 95.8283 30.1811C96.2296 30.2536 96.5783 30.3761 96.8742 30.5486C97.1735 30.7177 97.3997 30.9334 97.5528 31.1957C97.7059 31.458 97.7824 31.753 97.7824 32.0809ZM96.0273 28.6127C96.0273 28.3711 95.9694 28.1606 95.8538 27.9812C95.7415 27.7983 95.5732 27.6568 95.3487 27.5567C95.1276 27.4532 94.8555 27.4014 94.5323 27.4014H93.9966V29.9171H94.415C94.9626 29.9171 95.3674 29.7998 95.6293 29.5651C95.8946 29.3305 96.0273 29.013 96.0273 28.6127ZM96.216 31.9929C96.216 31.5166 96.0936 31.1474 95.8487 30.8851C95.6072 30.6194 95.2653 30.4865 94.8232 30.4865H93.9966V32.174V32.3138C93.9966 32.5692 94.0119 32.7693 94.0425 32.9142C94.0731 33.0557 94.1497 33.1662 94.2721 33.2455C94.3946 33.3215 94.5885 33.3594 94.8538 33.3594C95.2075 33.3594 95.5221 33.2507 95.7977 33.0333C96.0766 32.8159 96.216 32.4691 96.216 31.9929Z" fill="#1F316A"/>
<path d="M103.813 32.8418C103.813 33.104 103.76 33.3284 103.655 33.5147C103.549 33.6976 103.407 33.8339 103.226 33.9236C103.049 34.0099 102.849 34.0531 102.624 34.0531C102.339 34.0531 102.1 33.9858 101.91 33.8512C101.72 33.7131 101.606 33.5492 101.568 33.3594C101 33.8218 100.429 34.0531 99.8539 34.0531C99.4865 34.0531 99.1855 33.9633 98.9508 33.7839C98.7161 33.601 98.5987 33.3611 98.5987 33.0644C98.5987 32.8193 98.6617 32.5985 98.7875 32.4018C98.9134 32.2016 99.097 32.0239 99.3385 31.8686C99.5834 31.7133 99.8743 31.577 100.211 31.4597C100.548 31.3389 100.968 31.2129 101.471 31.0818V30.7868C101.471 30.5417 101.413 30.3502 101.298 30.2122C101.186 30.0707 100.976 29.9999 100.67 29.9999C100.408 29.9999 100.22 30.0552 100.104 30.1656C99.9882 30.276 99.9117 30.4434 99.8743 30.6677C99.8471 30.8264 99.796 30.9576 99.7212 31.0611C99.6498 31.1612 99.4984 31.2112 99.2671 31.2112C99.1242 31.2112 98.9984 31.1698 98.8896 31.087C98.7807 31.0042 98.7263 30.8817 98.7263 30.7195C98.7263 30.3985 98.8981 30.119 99.2416 29.8809C99.5851 29.6428 100.112 29.5237 100.823 29.5237C101.572 29.5237 102.085 29.6514 102.364 29.9068C102.646 30.1621 102.788 30.5038 102.788 30.9317V32.5674C102.788 32.7745 102.793 32.9263 102.803 33.023C102.813 33.1196 102.84 33.1938 102.885 33.2455C102.932 33.2939 103.005 33.318 103.104 33.318C103.192 33.318 103.269 33.2714 103.334 33.1782C103.402 33.0851 103.436 32.9729 103.436 32.8418H103.813ZM101.471 32.8832V31.5994C100.825 31.8065 100.413 32.0101 100.237 32.2103C100.063 32.407 99.9763 32.6002 99.9763 32.79C99.9763 32.9488 100.024 33.0764 100.119 33.1731C100.214 33.2697 100.349 33.318 100.522 33.318C100.709 33.318 100.874 33.2783 101.017 33.199C101.16 33.1196 101.311 33.0143 101.471 32.8832Z" fill="#1F316A"/>
<path d="M107.084 29.6945H109.548V30.1708C109.415 30.1708 109.312 30.1828 109.237 30.207C109.162 30.2277 109.104 30.2657 109.063 30.3209C109.026 30.3761 109.002 30.4503 108.992 30.5435C108.982 30.6332 108.976 30.7453 108.976 30.8799V32.6503C108.976 32.7848 108.983 32.8987 108.997 32.9919C109.014 33.0816 109.044 33.1541 109.089 33.2093C109.136 33.2645 109.199 33.3042 109.277 33.3284C109.359 33.3491 109.466 33.3594 109.599 33.3594H109.905C110.038 33.3594 110.143 33.3491 110.221 33.3284C110.303 33.3042 110.366 33.2645 110.41 33.2093C110.458 33.1541 110.488 33.0816 110.502 32.9919C110.519 32.8987 110.528 32.7848 110.528 32.6503V30.8799C110.528 30.7453 110.522 30.6332 110.512 30.5435C110.502 30.4503 110.476 30.3761 110.436 30.3209C110.398 30.2657 110.342 30.2277 110.267 30.207C110.192 30.1828 110.089 30.1708 109.956 30.1708V29.6945H112.599V30.1708C112.429 30.1777 112.295 30.1897 112.196 30.207C112.097 30.2243 112.022 30.2588 111.971 30.3105C111.92 30.3623 111.886 30.4365 111.869 30.5331C111.856 30.6297 111.849 30.7609 111.849 30.9265V32.702C111.849 32.8677 111.856 32.9988 111.869 33.0954C111.886 33.192 111.92 33.2662 111.971 33.318C112.022 33.3698 112.097 33.406 112.196 33.4267C112.295 33.444 112.429 33.4543 112.599 33.4578V33.934H104.032V33.4578C104.199 33.4543 104.332 33.444 104.43 33.4267C104.533 33.406 104.609 33.3698 104.66 33.318C104.711 33.2662 104.743 33.192 104.757 33.0954C104.774 32.9988 104.783 32.8677 104.783 32.702V30.9265C104.783 30.7609 104.774 30.6297 104.757 30.5331C104.743 30.4365 104.711 30.3623 104.66 30.3105C104.609 30.2588 104.533 30.2243 104.43 30.207C104.332 30.1897 104.199 30.1777 104.032 30.1708V29.6945H106.675V30.1708C106.543 30.1708 106.439 30.1828 106.364 30.207C106.289 30.2277 106.232 30.2657 106.191 30.3209C106.153 30.3761 106.129 30.4503 106.119 30.5435C106.109 30.6332 106.104 30.7453 106.104 30.8799V32.6503C106.104 32.7848 106.111 32.8987 106.124 32.9919C106.141 33.0816 106.172 33.1541 106.216 33.2093C106.264 33.2645 106.327 33.3042 106.405 33.3284C106.487 33.3491 106.594 33.3594 106.726 33.3594H107.033C107.165 33.3594 107.271 33.3491 107.349 33.3284C107.431 33.3042 107.493 33.2645 107.538 33.2093C107.585 33.1541 107.616 33.0816 107.63 32.9919C107.647 32.8987 107.655 32.7848 107.655 32.6503V30.8799C107.655 30.7453 107.65 30.6332 107.64 30.5435C107.63 30.4503 107.604 30.3761 107.563 30.3209C107.526 30.2657 107.47 30.2277 107.395 30.207C107.32 30.1828 107.216 30.1708 107.084 30.1708V29.6945Z" fill="#1F316A"/>
<path d="M120.303 32.8832C119.892 33.6976 119.23 34.1048 118.318 34.1048C117.893 34.1048 117.49 34.0168 117.109 33.8408C116.732 33.6648 116.427 33.4095 116.196 33.0747C115.968 32.74 115.854 32.3483 115.854 31.8997C115.854 31.5891 115.915 31.2923 116.038 31.0093C116.164 30.7264 116.344 30.471 116.579 30.2432C116.813 30.0155 117.091 29.8395 117.41 29.7152C117.733 29.5876 118.079 29.5237 118.446 29.5237C118.915 29.5237 119.329 29.6186 119.686 29.8084C120.043 29.9948 120.222 30.2536 120.222 30.5849C120.222 30.7367 120.165 30.8661 120.053 30.9731C119.941 31.0801 119.812 31.1336 119.665 31.1336C119.526 31.1336 119.419 31.1008 119.344 31.0352C119.269 30.9697 119.22 30.9024 119.196 30.8333C119.172 30.7643 119.138 30.6418 119.094 30.4658C119.05 30.2967 118.977 30.1777 118.875 30.1087C118.773 30.0362 118.63 29.9999 118.446 29.9999C118.136 29.9999 117.861 30.1173 117.619 30.3519C117.381 30.5832 117.262 31.018 117.262 31.6564C117.262 31.998 117.31 32.3121 117.405 32.5985C117.504 32.8849 117.657 33.1127 117.864 33.2818C118.075 33.4474 118.332 33.5302 118.635 33.5302C118.972 33.5302 119.228 33.4457 119.405 33.2766C119.582 33.1075 119.739 32.9091 119.875 32.6813L120.303 32.8832Z" fill="#1F316A"/>
<path d="M126.012 31.8013C126.012 32.2707 125.9 32.6796 125.676 33.0281C125.451 33.3767 125.147 33.6441 124.762 33.8305C124.382 34.0134 123.963 34.1048 123.507 34.1048C123.079 34.1048 122.672 34.0203 122.288 33.8512C121.907 33.6821 121.594 33.425 121.349 33.0799C121.108 32.7348 120.987 32.3121 120.987 31.8117C120.987 31.0628 121.239 30.4952 121.742 30.1087C122.245 29.7187 122.844 29.5237 123.538 29.5237C124.055 29.5237 124.501 29.6272 124.875 29.8343C125.249 30.0414 125.531 30.3192 125.722 30.6677C125.916 31.0162 126.012 31.3941 126.012 31.8013ZM124.604 31.7703C124.604 31.1836 124.528 30.7419 124.375 30.4451C124.222 30.1483 123.924 29.9999 123.482 29.9999C123.2 29.9999 122.978 30.0655 122.819 30.1966C122.662 30.3243 122.552 30.5245 122.487 30.7971C122.426 31.0663 122.395 31.4166 122.395 31.8479C122.395 32.3794 122.465 32.809 122.604 33.1368C122.744 33.4647 123.048 33.6286 123.518 33.6286C123.827 33.6286 124.062 33.5389 124.222 33.3594C124.385 33.1765 124.489 32.9522 124.533 32.6865C124.58 32.4173 124.604 32.1119 124.604 31.7703Z" fill="#1F316A"/>
<path d="M132.543 30.1708C132.373 30.1777 132.239 30.1897 132.14 30.207C132.042 30.2243 131.967 30.2588 131.916 30.3105C131.865 30.3623 131.831 30.4365 131.814 30.5331C131.8 30.6297 131.793 30.7609 131.793 30.9265V32.702C131.793 32.8677 131.8 32.9988 131.814 33.0954C131.831 33.192 131.865 33.2662 131.916 33.318C131.967 33.3698 132.042 33.406 132.14 33.4267C132.239 33.444 132.373 33.4543 132.543 33.4578V33.934H129.849V33.4578C129.982 33.4578 130.087 33.4474 130.166 33.4267C130.247 33.4026 130.31 33.3629 130.354 33.3077C130.402 33.2524 130.433 33.18 130.446 33.0902C130.463 32.9971 130.472 32.8832 130.472 32.7486V32.0809H128.737V32.7486C128.737 32.8832 128.744 32.9971 128.757 33.0902C128.774 33.18 128.805 33.2524 128.849 33.3077C128.897 33.3629 128.96 33.4026 129.038 33.4267C129.12 33.4474 129.227 33.4578 129.359 33.4578V33.934H126.666V33.4578C126.832 33.4543 126.965 33.444 127.064 33.4267C127.166 33.406 127.242 33.3698 127.293 33.318C127.344 33.2662 127.376 33.192 127.39 33.0954C127.407 32.9988 127.416 32.8677 127.416 32.702V30.9265C127.416 30.7609 127.407 30.6297 127.39 30.5331C127.376 30.4365 127.344 30.3623 127.293 30.3105C127.242 30.2588 127.166 30.2243 127.064 30.207C126.965 30.1897 126.832 30.1777 126.666 30.1708V29.6945H129.359V30.1708C129.227 30.1708 129.12 30.1828 129.038 30.207C128.96 30.2277 128.897 30.2657 128.849 30.3209C128.805 30.3761 128.774 30.4503 128.757 30.5435C128.744 30.6332 128.737 30.7453 128.737 30.8799V31.5063H130.472V30.8799C130.472 30.7453 130.463 30.6332 130.446 30.5435C130.433 30.4503 130.402 30.3761 130.354 30.3209C130.31 30.2657 130.247 30.2277 130.166 30.207C130.087 30.1828 129.982 30.1708 129.849 30.1708V29.6945H132.543V30.1708Z" fill="#1F316A"/>
<path d="M140.829 31.8013C140.829 32.1499 140.764 32.4674 140.635 32.7538C140.506 33.0368 140.329 33.2783 140.105 33.4785C139.88 33.6786 139.618 33.8322 139.319 33.9392C139.02 34.0496 138.7 34.1048 138.36 34.1048C138.047 34.1048 137.737 34.0565 137.431 33.9599C137.125 33.8667 136.851 33.72 136.61 33.5199C136.368 33.3163 136.173 33.0575 136.023 32.7434C135.877 32.4294 135.803 32.0515 135.803 31.6098C135.803 31.2475 135.827 30.8575 135.875 30.4399C135.923 30.0224 136.016 29.5824 136.156 29.12C136.23 28.8611 136.31 28.6299 136.395 28.4263C136.48 28.2193 136.586 28.045 136.712 27.9035C136.841 27.7586 137.001 27.6481 137.191 27.5722C137.385 27.4963 137.628 27.4583 137.921 27.4583C138.064 27.4583 138.2 27.4618 138.329 27.4687C138.462 27.4756 138.591 27.4791 138.717 27.4791C138.9 27.4791 139.077 27.4635 139.247 27.4325C139.421 27.398 139.598 27.3255 139.778 27.2151C139.887 27.1495 139.979 27.0667 140.054 26.9666C140.132 26.8665 140.207 26.763 140.278 26.656L140.559 26.92C140.521 27.0304 140.48 27.1443 140.436 27.2616C140.392 27.379 140.341 27.4877 140.283 27.5878C140.188 27.7499 140.082 27.8811 139.967 27.9812C139.855 28.0778 139.734 28.1537 139.605 28.2089C139.475 28.2641 139.338 28.3021 139.191 28.3228C139.045 28.3435 138.894 28.359 138.737 28.3694C138.584 28.3763 138.426 28.3832 138.263 28.3901C138.099 28.397 137.933 28.4142 137.763 28.4419C137.518 28.4798 137.319 28.5609 137.166 28.6851C137.016 28.8094 136.895 28.9612 136.803 29.1407C136.715 29.3201 136.647 29.5203 136.599 29.7411C136.552 29.962 136.506 30.1897 136.462 30.4244C136.594 30.2519 136.737 30.1087 136.89 29.9948C137.047 29.8774 137.207 29.7843 137.37 29.7152C137.533 29.6462 137.698 29.5979 137.865 29.5703C138.031 29.5392 138.195 29.5237 138.355 29.5237C138.746 29.5237 139.094 29.5858 139.4 29.7101C139.707 29.8309 139.965 29.9948 140.176 30.2018C140.39 30.4089 140.552 30.6504 140.661 30.9265C140.773 31.2026 140.829 31.4942 140.829 31.8013ZM139.421 31.7703C139.421 31.4804 139.404 31.225 139.37 31.0042C139.339 30.7833 139.281 30.5987 139.196 30.4503C139.111 30.3019 138.996 30.1897 138.849 30.1138C138.707 30.0379 138.523 29.9999 138.298 29.9999C138.084 29.9999 137.907 30.0362 137.768 30.1087C137.628 30.1811 137.518 30.2933 137.436 30.4451C137.355 30.5935 137.297 30.785 137.263 31.0197C137.229 31.2509 137.212 31.527 137.212 31.8479C137.212 31.9756 137.215 32.1085 137.222 32.2465C137.229 32.3845 137.244 32.5191 137.268 32.6503C137.295 32.7814 137.332 32.9073 137.38 33.0281C137.431 33.1455 137.497 33.249 137.579 33.3387C137.664 33.4284 137.768 33.4992 137.89 33.5509C138.013 33.6027 138.161 33.6286 138.334 33.6286C138.572 33.6286 138.763 33.5768 138.906 33.4733C139.048 33.3698 139.157 33.2317 139.232 33.0592C139.31 32.8866 139.361 32.6899 139.385 32.4691C139.409 32.2448 139.421 32.0118 139.421 31.7703Z" fill="#1F316A"/>
<path d="M146.686 30.1708C146.54 30.1915 146.426 30.2294 146.344 30.2846C146.263 30.3399 146.188 30.4261 146.12 30.5435C146.055 30.6573 145.938 30.8903 145.768 31.2423L144.273 34.3895C143.94 35.0832 143.712 35.5438 143.589 35.7716C143.47 36.0028 143.334 36.1857 143.181 36.3203C143.028 36.4549 142.838 36.5222 142.61 36.5222C142.453 36.5222 142.317 36.4739 142.202 36.3772C142.086 36.2806 142.028 36.1581 142.028 36.0097C142.028 35.7992 142.098 35.6457 142.237 35.549C142.38 35.4559 142.564 35.3765 142.788 35.3109C143.091 35.2212 143.322 35.0573 143.482 34.8192C143.642 34.581 143.78 34.3205 143.895 34.0375L141.952 30.5642C141.86 30.3951 141.776 30.2881 141.702 30.2432C141.627 30.1949 141.523 30.1708 141.39 30.1708V29.6945H143.865V30.1708H143.707C143.472 30.1708 143.355 30.2277 143.355 30.3416C143.355 30.4106 143.402 30.5297 143.497 30.6988L144.574 32.6192L145.37 30.9783C145.482 30.7436 145.538 30.5832 145.538 30.4969C145.538 30.3934 145.487 30.314 145.385 30.2588C145.287 30.2001 145.169 30.1708 145.033 30.1708V29.6945H146.686V30.1708Z" fill="#1F316A"/>
<path d="M153.855 33.582C153.855 33.6303 153.85 33.7011 153.84 33.7942C153.833 33.8874 153.816 34.0116 153.788 34.1669C153.761 34.3222 153.72 34.5086 153.666 34.726C153.615 34.9468 153.545 35.2039 153.457 35.4973H153.13C153.062 35.2695 153.004 35.0693 152.957 34.8968C152.913 34.7277 152.875 34.581 152.845 34.4568C152.814 34.336 152.79 34.2325 152.773 34.1462C152.76 34.0634 152.749 33.9927 152.743 33.934H147.926C147.919 33.9927 147.907 34.0634 147.89 34.1462C147.873 34.2325 147.85 34.3378 147.819 34.462C147.788 34.5862 147.749 34.7329 147.702 34.902C147.657 35.0711 147.603 35.2695 147.538 35.4973H147.212C147.123 35.2039 147.054 34.9468 147.003 34.726C146.952 34.5086 146.911 34.3222 146.88 34.1669C146.853 34.0116 146.834 33.8874 146.824 33.7942C146.817 33.7011 146.814 33.6303 146.814 33.582C146.814 33.5475 146.827 33.5182 146.855 33.494C146.882 33.4698 146.923 33.4578 146.977 33.4578H147.615C147.89 33.4371 148.125 33.387 148.319 33.3077C148.513 33.2283 148.671 33.1161 148.794 32.9712C148.916 32.8228 149.004 32.6416 149.059 32.4277C149.117 32.2103 149.146 31.9532 149.146 31.6564C149.146 31.508 149.144 31.3924 149.14 31.3096C149.14 31.2267 149.137 31.1543 149.13 31.0922C149.127 31.03 149.122 30.9697 149.115 30.911C149.108 30.8523 149.098 30.773 149.084 30.6729C149.071 30.5728 149.049 30.4917 149.018 30.4296C148.991 30.364 148.947 30.314 148.885 30.2795C148.828 30.2415 148.751 30.2156 148.656 30.2018C148.561 30.1846 148.44 30.1742 148.293 30.1708V29.6945H153.635V30.1708C153.469 30.1742 153.336 30.188 153.237 30.2122C153.139 30.2329 153.062 30.2708 153.008 30.3261C152.957 30.3778 152.923 30.4486 152.906 30.5383C152.892 30.628 152.885 30.7402 152.885 30.8748V32.9608C152.885 33.1161 152.935 33.2369 153.033 33.3232C153.132 33.4095 153.314 33.4543 153.579 33.4578H153.692C153.746 33.4578 153.787 33.4698 153.814 33.494C153.841 33.5182 153.855 33.5475 153.855 33.582ZM150.258 30.4762C150.258 30.5141 150.27 30.6297 150.294 30.823C150.317 31.0128 150.329 31.2906 150.329 31.6564C150.329 31.8669 150.316 32.0601 150.288 32.2361C150.265 32.4121 150.22 32.5743 150.156 32.7227C150.095 32.8711 150.011 33.0074 149.906 33.1317C149.8 33.2524 149.669 33.3611 149.513 33.4578H150.691C150.885 33.4578 151.04 33.4491 151.156 33.4319C151.271 33.4112 151.36 33.3801 151.421 33.3387C151.482 33.2973 151.521 33.2455 151.538 33.1834C151.559 33.1213 151.569 33.0471 151.569 32.9608V30.6729C151.569 30.5038 151.527 30.3778 151.442 30.295C151.36 30.2122 151.203 30.1708 150.972 30.1708H150.804C150.606 30.1708 150.465 30.1966 150.38 30.2484C150.299 30.2967 150.258 30.3726 150.258 30.4762Z" fill="#1F316A"/>
<path d="M158.85 31.6564H155.712C155.715 31.722 155.724 31.8617 155.738 32.0757C155.755 32.2896 155.802 32.5088 155.88 32.7331C155.962 32.9574 156.1 33.1472 156.294 33.3025C156.491 33.4543 156.755 33.5302 157.084 33.5302C157.265 33.5302 157.482 33.4837 157.738 33.3905C157.993 33.2973 158.214 33.1179 158.401 32.8521L158.799 33.1265C158.397 33.7787 157.76 34.1048 156.885 34.1048C156.494 34.1048 156.137 34.0479 155.814 33.934C155.494 33.8201 155.222 33.6614 154.998 33.4578C154.773 33.2542 154.601 33.0143 154.482 32.7383C154.363 32.4622 154.304 32.1654 154.304 31.8479C154.304 31.4304 154.402 31.0439 154.6 30.6884C154.8 30.333 155.086 30.05 155.457 29.8395C155.828 29.629 156.251 29.5237 156.727 29.5237C157.193 29.5237 157.586 29.6255 157.906 29.8291C158.229 30.0327 158.467 30.2967 158.62 30.6211C158.773 30.9455 158.85 31.2906 158.85 31.6564ZM157.584 31.1802C157.584 30.3934 157.278 29.9999 156.666 29.9999C156.37 29.9999 156.142 30.1087 155.982 30.3261C155.826 30.5435 155.739 30.8282 155.722 31.1802H157.584Z" fill="#1F316A"/>
<path d="M159.518 29.6945H164.59L164.636 31.5166H164.202C164.141 31.2267 164.076 30.999 164.008 30.8333C163.943 30.6677 163.863 30.5435 163.768 30.4606C163.673 30.3744 163.556 30.3209 163.416 30.3002C163.28 30.2795 163.11 30.2691 162.906 30.2691H162.712V32.6295C162.712 32.9091 162.761 33.1179 162.86 33.2559C162.908 33.3249 162.984 33.3767 163.09 33.4112C163.199 33.4422 163.307 33.4578 163.416 33.4578V33.934H160.692V33.4578C160.801 33.4578 160.908 33.4422 161.013 33.4112C161.122 33.3767 161.2 33.3249 161.248 33.2559C161.346 33.1179 161.396 32.9091 161.396 32.6295V30.2691H161.202C160.998 30.2691 160.826 30.2795 160.687 30.3002C160.551 30.3209 160.435 30.3744 160.34 30.4606C160.244 30.5435 160.163 30.6677 160.095 30.8333C160.03 30.999 159.967 31.2267 159.906 31.5166H159.472L159.518 29.6945Z" fill="#1F316A"/>
<path d="M170.768 31.3976C170.966 31.3976 171.153 31.4148 171.33 31.4493C171.51 31.4838 171.668 31.5425 171.804 31.6253C171.94 31.7082 172.047 31.8186 172.126 31.9566C172.207 32.0912 172.248 32.2603 172.248 32.4639C172.248 32.7538 172.177 33.004 172.034 33.2145C171.891 33.4215 171.704 33.5906 171.472 33.7218C171.241 33.8529 170.979 33.9495 170.687 34.0116C170.398 34.0738 170.105 34.1048 169.809 34.1048C169.506 34.1048 169.238 34.0858 169.003 34.0479C168.768 34.0134 168.569 33.9651 168.406 33.9029C168.243 33.8374 168.119 33.7615 168.034 33.6752C167.949 33.5855 167.906 33.4906 167.906 33.3905C167.906 33.2593 167.954 33.1575 168.049 33.0851C168.144 33.0126 168.287 32.9764 168.478 32.9764C168.627 32.9764 168.75 33.0057 168.845 33.0644C168.94 33.1196 169.025 33.2041 169.1 33.318C169.178 33.4353 169.28 33.5164 169.406 33.5613C169.532 33.6062 169.694 33.6286 169.891 33.6286C170.003 33.6286 170.117 33.6096 170.233 33.5716C170.352 33.5337 170.457 33.475 170.549 33.3957C170.644 33.3128 170.721 33.2076 170.779 33.0799C170.84 32.9522 170.87 32.8004 170.87 32.6244C170.87 32.3517 170.811 32.143 170.692 31.998C170.573 31.8496 170.411 31.7754 170.207 31.7754C170.139 31.7754 170.068 31.7875 169.993 31.8117C169.921 31.8324 169.852 31.8669 169.784 31.9152C169.671 31.9946 169.568 32.0343 169.472 32.0343C169.394 32.0343 169.331 32.0118 169.284 31.967C169.236 31.9187 169.212 31.8738 169.212 31.8324C169.212 31.8048 169.216 31.7806 169.222 31.7599C169.233 31.7392 169.251 31.7185 169.279 31.6978C169.309 31.6771 169.352 31.6547 169.406 31.6305C169.461 31.6029 169.534 31.5684 169.626 31.527C169.83 31.4373 170.006 31.351 170.156 31.2682C170.306 31.1853 170.428 31.1025 170.523 31.0197C170.622 30.9369 170.695 30.8541 170.743 30.7712C170.79 30.6884 170.814 30.6021 170.814 30.5124C170.814 30.4158 170.794 30.3347 170.753 30.2691C170.716 30.2001 170.663 30.1466 170.595 30.1087C170.527 30.0707 170.447 30.0431 170.355 30.0258C170.263 30.0086 170.166 29.9999 170.064 29.9999C169.799 29.9999 169.591 30.031 169.442 30.0931C169.292 30.1518 169.217 30.2415 169.217 30.3623C169.217 30.3968 169.222 30.4279 169.233 30.4555C169.246 30.4831 169.26 30.5107 169.273 30.5383C169.287 30.5659 169.299 30.5952 169.309 30.6263C169.323 30.6539 169.33 30.685 169.33 30.7195C169.33 30.7505 169.319 30.7816 169.299 30.8126C169.282 30.8437 169.251 30.873 169.207 30.9006C169.163 30.9282 169.105 30.9507 169.034 30.9679C168.962 30.9852 168.874 30.9938 168.768 30.9938C168.646 30.9938 168.546 30.9783 168.467 30.9472C168.392 30.9127 168.333 30.873 168.289 30.8282C168.245 30.7799 168.214 30.7298 168.197 30.6781C168.18 30.6263 168.171 30.5797 168.171 30.5383C168.171 30.383 168.221 30.2432 168.319 30.119C168.421 29.9948 168.563 29.8895 168.743 29.8032C168.923 29.7135 169.136 29.6462 169.381 29.6014C169.629 29.5531 169.901 29.5289 170.197 29.5289C170.527 29.5289 170.809 29.5496 171.044 29.591C171.282 29.6324 171.476 29.6928 171.626 29.7722C171.775 29.8481 171.884 29.9413 171.952 30.0517C172.024 30.1621 172.059 30.2846 172.059 30.4192C172.059 30.5504 172.022 30.6694 171.947 30.7764C171.876 30.8834 171.78 30.9783 171.661 31.0611C171.542 31.1439 171.404 31.2129 171.248 31.2682C171.092 31.3234 170.932 31.3665 170.768 31.3976Z" fill="#1F316A"/>
<path d="M179.621 33.582C179.621 33.6303 179.615 33.7011 179.605 33.7942C179.598 33.8874 179.581 34.0116 179.554 34.1669C179.527 34.3222 179.486 34.5086 179.432 34.726C179.381 34.9468 179.311 35.2039 179.223 35.4973H178.896C178.828 35.2695 178.77 35.0693 178.723 34.8968C178.678 34.7277 178.641 34.581 178.61 34.4568C178.58 34.336 178.556 34.2325 178.539 34.1462C178.525 34.0634 178.515 33.9927 178.508 33.934H173.692C173.685 33.9927 173.673 34.0634 173.656 34.1462C173.639 34.2325 173.615 34.3378 173.585 34.462C173.554 34.5862 173.515 34.7329 173.467 34.902C173.423 35.0711 173.369 35.2695 173.304 35.4973H172.978C172.889 35.2039 172.819 34.9468 172.768 34.726C172.717 34.5086 172.677 34.3222 172.646 34.1669C172.619 34.0116 172.6 33.8874 172.59 33.7942C172.583 33.7011 172.58 33.6303 172.58 33.582C172.58 33.5475 172.593 33.5182 172.62 33.494C172.648 33.4698 172.688 33.4578 172.743 33.4578H173.381C173.656 33.4371 173.891 33.387 174.085 33.3077C174.279 33.2283 174.437 33.1161 174.559 32.9712C174.682 32.8228 174.77 32.6416 174.825 32.4277C174.882 32.2103 174.911 31.9532 174.911 31.6564C174.911 31.508 174.91 31.3924 174.906 31.3096C174.906 31.2267 174.903 31.1543 174.896 31.0922C174.893 31.03 174.888 30.9697 174.881 30.911C174.874 30.8523 174.864 30.773 174.85 30.6729C174.836 30.5728 174.814 30.4917 174.784 30.4296C174.757 30.364 174.712 30.314 174.651 30.2795C174.593 30.2415 174.517 30.2156 174.422 30.2018C174.326 30.1846 174.206 30.1742 174.059 30.1708V29.6945H179.401V30.1708C179.235 30.1742 179.102 30.188 179.003 30.2122C178.905 30.2329 178.828 30.2708 178.774 30.3261C178.723 30.3778 178.689 30.4486 178.672 30.5383C178.658 30.628 178.651 30.7402 178.651 30.8748V32.9608C178.651 33.1161 178.701 33.2369 178.799 33.3232C178.898 33.4095 179.08 33.4543 179.345 33.4578H179.457C179.512 33.4578 179.553 33.4698 179.58 33.494C179.607 33.5182 179.621 33.5475 179.621 33.582ZM176.024 30.4762C176.024 30.5141 176.035 30.6297 176.059 30.823C176.083 31.0128 176.095 31.2906 176.095 31.6564C176.095 31.8669 176.081 32.0601 176.054 32.2361C176.03 32.4121 175.986 32.5743 175.922 32.7227C175.86 32.8711 175.777 33.0074 175.672 33.1317C175.566 33.2524 175.435 33.3611 175.279 33.4578H176.457C176.651 33.4578 176.806 33.4491 176.922 33.4319C177.037 33.4112 177.126 33.3801 177.187 33.3387C177.248 33.2973 177.287 33.2455 177.304 33.1834C177.325 33.1213 177.335 33.0471 177.335 32.9608V30.6729C177.335 30.5038 177.292 30.3778 177.207 30.295C177.126 30.2122 176.969 30.1708 176.738 30.1708H176.57C176.372 30.1708 176.231 30.1966 176.146 30.2484C176.064 30.2967 176.024 30.3726 176.024 30.4762Z" fill="#1F316A"/>
<path d="M185.105 31.8013C185.105 32.2707 184.993 32.6796 184.769 33.0281C184.544 33.3767 184.24 33.6441 183.855 33.8305C183.474 34.0134 183.056 34.1048 182.6 34.1048C182.172 34.1048 181.765 34.0203 181.381 33.8512C181 33.6821 180.687 33.425 180.442 33.0799C180.201 32.7348 180.08 32.3121 180.08 31.8117C180.08 31.0628 180.331 30.4952 180.835 30.1087C181.338 29.7187 181.937 29.5237 182.631 29.5237C183.148 29.5237 183.593 29.6272 183.968 29.8343C184.342 30.0414 184.624 30.3192 184.815 30.6677C185.008 31.0162 185.105 31.3941 185.105 31.8013ZM183.697 31.7703C183.697 31.1836 183.621 30.7419 183.468 30.4451C183.315 30.1483 183.017 29.9999 182.575 29.9999C182.292 29.9999 182.071 30.0655 181.911 30.1966C181.755 30.3243 181.644 30.5245 181.58 30.7971C181.519 31.0663 181.488 31.4166 181.488 31.8479C181.488 32.3794 181.558 32.809 181.697 33.1368C181.837 33.4647 182.141 33.6286 182.61 33.6286C182.92 33.6286 183.155 33.5389 183.315 33.3594C183.478 33.1765 183.582 32.9522 183.626 32.6865C183.673 32.4173 183.697 32.1119 183.697 31.7703Z" fill="#1F316A"/>
<path d="M191.432 31.7392C191.432 32.1637 191.333 32.5588 191.136 32.9246C190.942 33.2869 190.672 33.5751 190.325 33.7891C189.981 33.9996 189.595 34.1048 189.167 34.1048C188.629 34.1048 188.162 33.9133 187.764 33.5302V35.1867C187.764 35.3834 187.775 35.53 187.799 35.6267C187.827 35.7267 187.884 35.8009 187.973 35.8493C188.065 35.901 188.204 35.9269 188.391 35.9269H188.672V36.4031H185.707V35.9269C185.939 35.9269 186.105 35.9062 186.207 35.8648C186.309 35.8268 186.374 35.7595 186.401 35.6629C186.432 35.5663 186.447 35.4075 186.447 35.1867V31.1336C186.447 30.9334 186.432 30.7885 186.401 30.6988C186.374 30.609 186.309 30.5452 186.207 30.5072C186.109 30.4658 185.942 30.4451 185.707 30.4451V29.9689L187.692 29.5237C187.733 29.6618 187.757 29.8809 187.764 30.1811C187.988 29.9534 188.219 29.7877 188.457 29.6842C188.699 29.5772 188.976 29.5237 189.289 29.5237C189.629 29.5237 189.934 29.5858 190.202 29.7101C190.471 29.8343 190.696 30.0017 190.876 30.2122C191.056 30.4192 191.194 30.6573 191.289 30.9265C191.384 31.1922 191.432 31.4631 191.432 31.7392ZM190.024 31.6874C190.024 30.628 189.658 30.0983 188.927 30.0983C188.689 30.0983 188.469 30.169 188.269 30.3105C188.071 30.4486 187.903 30.6177 187.764 30.8178V32.8625C187.896 33.0661 188.068 33.2283 188.279 33.3491C188.493 33.4698 188.713 33.5302 188.937 33.5302C189.662 33.5302 190.024 32.916 190.024 31.6874Z" fill="#1F316A"/>
<path d="M197.31 31.8013C197.31 32.2707 197.197 32.6796 196.973 33.0281C196.748 33.3767 196.444 33.6441 196.06 33.8305C195.679 34.0134 195.26 34.1048 194.805 34.1048C194.376 34.1048 193.969 34.0203 193.585 33.8512C193.204 33.6821 192.891 33.425 192.646 33.0799C192.405 32.7348 192.284 32.3121 192.284 31.8117C192.284 31.0628 192.536 30.4952 193.039 30.1087C193.543 29.7187 194.141 29.5237 194.835 29.5237C195.352 29.5237 195.798 29.6272 196.172 29.8343C196.546 30.0414 196.828 30.3192 197.019 30.6677C197.213 31.0162 197.31 31.3941 197.31 31.8013ZM195.901 31.7703C195.901 31.1836 195.825 30.7419 195.672 30.4451C195.519 30.1483 195.221 29.9999 194.779 29.9999C194.497 29.9999 194.276 30.0655 194.116 30.1966C193.959 30.3243 193.849 30.5245 193.784 30.7971C193.723 31.0663 193.692 31.4166 193.692 31.8479C193.692 32.3794 193.762 32.809 193.901 33.1368C194.041 33.4647 194.345 33.6286 194.815 33.6286C195.124 33.6286 195.359 33.5389 195.519 33.3594C195.682 33.1765 195.786 32.9522 195.83 32.6865C195.878 32.4173 195.901 32.1119 195.901 31.7703Z" fill="#1F316A"/>
<path d="M203.55 32.7331C203.55 32.9781 203.475 33.1782 203.325 33.3335C203.179 33.4888 202.985 33.6113 202.743 33.7011C202.505 33.7873 202.235 33.8477 201.932 33.8822C201.633 33.9167 201.33 33.934 201.024 33.934H197.968V33.4578C198.172 33.4543 198.334 33.444 198.453 33.4267C198.575 33.4095 198.667 33.3836 198.728 33.3491C198.789 33.3111 198.828 33.2662 198.845 33.2145C198.862 33.1593 198.871 33.092 198.871 33.0126V30.6108C198.871 30.5279 198.859 30.4589 198.835 30.4037C198.811 30.345 198.765 30.2985 198.697 30.2639C198.633 30.2294 198.541 30.2053 198.422 30.1915C198.306 30.1777 198.155 30.1708 197.968 30.1708V29.6945C198.233 29.6911 198.485 29.6876 198.723 29.6842C198.964 29.6773 199.204 29.6721 199.442 29.6687C199.68 29.6652 199.924 29.6635 200.172 29.6635C200.42 29.66 200.687 29.6583 200.973 29.6583C201.085 29.6583 201.22 29.6618 201.376 29.6687C201.536 29.6721 201.701 29.6859 201.871 29.7101C202.041 29.7308 202.209 29.7636 202.376 29.8084C202.546 29.8533 202.698 29.9154 202.83 29.9948C202.963 30.0707 203.07 30.1673 203.152 30.2846C203.237 30.402 203.279 30.5435 203.279 30.7091C203.279 30.8402 203.257 30.961 203.213 31.0715C203.172 31.1819 203.102 31.2785 203.004 31.3613C202.908 31.4442 202.781 31.5132 202.621 31.5684C202.461 31.6236 202.264 31.6598 202.029 31.6771C202.335 31.7047 202.587 31.7478 202.784 31.8065C202.982 31.8652 203.136 31.9394 203.249 32.0291C203.364 32.1188 203.442 32.2223 203.483 32.3397C203.527 32.457 203.55 32.5881 203.55 32.7331ZM201.902 30.8075C201.902 30.6211 201.815 30.4693 201.641 30.3519C201.471 30.2312 201.206 30.1708 200.845 30.1708H200.203V31.4752H200.769C201.167 31.4752 201.454 31.4166 201.631 31.2992C201.811 31.1819 201.902 31.018 201.902 30.8075ZM202.05 32.7072C202.05 32.4553 201.956 32.2551 201.769 32.1067C201.582 31.9583 201.315 31.8841 200.968 31.8841H200.203V32.8987C200.203 32.9988 200.214 33.0851 200.238 33.1575C200.262 33.2266 200.303 33.2835 200.361 33.3284C200.422 33.3732 200.504 33.406 200.606 33.4267C200.708 33.4474 200.839 33.4578 200.999 33.4578C201.104 33.4578 201.218 33.4457 201.34 33.4215C201.463 33.3974 201.577 33.356 201.682 33.2973C201.788 33.2386 201.874 33.161 201.942 33.0644C202.014 32.9677 202.05 32.8487 202.05 32.7072Z" fill="#1F316A"/>
<path d="M204.106 29.6945H206.8V30.1708C206.667 30.1708 206.56 30.1828 206.478 30.207C206.4 30.2277 206.337 30.2657 206.289 30.3209C206.245 30.3761 206.215 30.4503 206.198 30.5435C206.184 30.6332 206.177 30.7453 206.177 30.8799V31.4752H206.754C207.223 31.4752 207.631 31.4976 207.978 31.5425C208.329 31.5839 208.618 31.6547 208.846 31.7547C209.077 31.8514 209.249 31.9808 209.361 32.143C209.477 32.3017 209.534 32.4984 209.534 32.7331C209.534 32.9781 209.46 33.1782 209.31 33.3335C209.164 33.4888 208.97 33.6113 208.728 33.7011C208.49 33.7873 208.22 33.8477 207.917 33.8822C207.618 33.9167 207.315 33.934 207.009 33.934H204.106V33.4578C204.272 33.4543 204.405 33.444 204.504 33.4267C204.606 33.406 204.682 33.3698 204.733 33.318C204.784 33.2662 204.817 33.192 204.83 33.0954C204.847 32.9988 204.856 32.8677 204.856 32.702V30.9265C204.856 30.7609 204.847 30.6297 204.83 30.5331C204.817 30.4365 204.784 30.3623 204.733 30.3105C204.682 30.2588 204.606 30.2243 204.504 30.207C204.405 30.1897 204.272 30.1777 204.106 30.1708V29.6945ZM208.034 32.7072C208.034 32.4553 207.941 32.2551 207.754 32.1067C207.567 31.9583 207.3 31.8841 206.953 31.8841H206.177V32.8987C206.177 32.9988 206.189 33.0851 206.213 33.1575C206.237 33.2266 206.279 33.2835 206.34 33.3284C206.402 33.3732 206.483 33.406 206.585 33.4267C206.691 33.4474 206.823 33.4578 206.983 33.4578C207.089 33.4578 207.203 33.4457 207.325 33.4215C207.448 33.3974 207.562 33.356 207.667 33.2973C207.772 33.2386 207.859 33.161 207.927 33.0644C207.999 32.9677 208.034 32.8487 208.034 32.7072ZM212.892 33.934H210.121V33.4578H210.269C210.466 33.4578 210.609 33.4302 210.698 33.3749C210.79 33.3197 210.846 33.2421 210.866 33.142C210.886 33.0419 210.897 32.8953 210.897 32.702V31.1646C210.897 30.9507 210.883 30.7988 210.856 30.7091C210.832 30.6194 210.766 30.5538 210.657 30.5124C210.551 30.471 210.373 30.4486 210.121 30.4451V29.9689L212.213 29.5237V32.702C212.213 32.9919 212.249 33.1903 212.32 33.2973C212.392 33.4043 212.582 33.4578 212.892 33.4578V33.934Z" fill="#1F316A"/>
<path d="M220.58 33.934H217.417V33.4578C217.625 33.4543 217.788 33.4371 217.907 33.406C218.026 33.3749 218.116 33.3266 218.177 33.2611C218.239 33.1955 218.278 33.111 218.295 33.0074C218.312 32.9039 218.322 32.7779 218.325 32.6295V31.0093L216.713 33.934H216.427L214.779 31.0093V32.407C214.779 32.5174 214.781 32.614 214.784 32.6968C214.788 32.7797 214.793 32.8521 214.8 32.9142C214.81 32.9764 214.824 33.0316 214.841 33.0799C214.858 33.1282 214.88 33.1731 214.907 33.2145C214.965 33.2973 215.055 33.3594 215.177 33.4008C215.3 33.4388 215.473 33.4578 215.698 33.4578V33.934H213.361V33.4578C213.585 33.4578 213.757 33.4371 213.876 33.3957C213.999 33.3542 214.089 33.2921 214.147 33.2093C214.174 33.1679 214.196 33.123 214.213 33.0747C214.23 33.0264 214.242 32.9712 214.249 32.9091C214.259 32.847 214.264 32.7762 214.264 32.6968C214.267 32.614 214.269 32.5174 214.269 32.407V31.2112C214.269 30.9213 214.256 30.7074 214.228 30.5693C214.215 30.5038 214.189 30.4468 214.152 30.3985C214.118 30.3468 214.067 30.3054 213.999 30.2743C213.931 30.2398 213.844 30.2139 213.739 30.1966C213.636 30.1794 213.511 30.1708 213.361 30.1708V29.6945H215.667L216.994 32.0964L218.325 29.6945H220.58V30.1708C220.193 30.1708 219.941 30.2346 219.825 30.3623C219.713 30.4865 219.657 30.6988 219.657 30.999V32.6295C219.657 32.771 219.666 32.8935 219.683 32.9971C219.703 33.0971 219.744 33.1817 219.805 33.2507C219.87 33.3163 219.963 33.3663 220.086 33.4008C220.208 33.4353 220.373 33.4543 220.58 33.4578V33.934Z" fill="#1F316A"/>
<path d="M229.514 30.1708C229.344 30.1777 229.21 30.1897 229.111 30.207C229.013 30.2243 228.938 30.2588 228.887 30.3105C228.836 30.3623 228.802 30.4365 228.785 30.5331C228.771 30.6297 228.764 30.7609 228.764 30.9265V32.702C228.764 32.8677 228.771 32.9988 228.785 33.0954C228.802 33.192 228.836 33.2662 228.887 33.318C228.938 33.3698 229.013 33.406 229.111 33.4267C229.21 33.444 229.344 33.4543 229.514 33.4578V33.934H226.82V33.4578C226.953 33.4578 227.059 33.4474 227.137 33.4267C227.218 33.4026 227.281 33.3629 227.326 33.3077C227.373 33.2524 227.404 33.18 227.417 33.0902C227.434 32.9971 227.443 32.8832 227.443 32.7486V31.439L225.708 32.8884C225.712 32.9988 225.723 33.0902 225.744 33.1627C225.768 33.2352 225.802 33.2939 225.846 33.3387C225.894 33.3801 225.956 33.4112 226.035 33.4319C226.113 33.4491 226.212 33.4578 226.331 33.4578V33.934H223.637V33.4578C223.803 33.4543 223.936 33.444 224.035 33.4267C224.137 33.406 224.213 33.3698 224.264 33.318C224.315 33.2662 224.348 33.192 224.361 33.0954C224.378 32.9988 224.387 32.8677 224.387 32.702V30.9265C224.387 30.7609 224.378 30.6297 224.361 30.5331C224.348 30.4365 224.315 30.3623 224.264 30.3105C224.213 30.2588 224.137 30.2243 224.035 30.207C223.936 30.1897 223.803 30.1777 223.637 30.1708V29.6945H226.331V30.1708C226.198 30.1708 226.091 30.1828 226.009 30.207C225.931 30.2277 225.868 30.2657 225.82 30.3209C225.776 30.3761 225.746 30.4503 225.729 30.5435C225.715 30.6332 225.708 30.7453 225.708 30.8799V32.143L227.438 30.6988C227.431 30.5987 227.416 30.5159 227.392 30.4503C227.371 30.3813 227.337 30.3261 227.29 30.2846C227.246 30.2432 227.184 30.2139 227.106 30.1966C227.031 30.1794 226.936 30.1708 226.82 30.1708V29.6945H229.514V30.1708Z" fill="#1F316A"/>
<path d="M237.213 32.8832C236.802 33.6976 236.14 34.1048 235.229 34.1048C234.804 34.1048 234.4 34.0168 234.02 33.8408C233.642 33.6648 233.338 33.4095 233.106 33.0747C232.878 32.74 232.764 32.3483 232.764 31.8997C232.764 31.5891 232.826 31.2923 232.948 31.0093C233.074 30.7264 233.254 30.471 233.489 30.2432C233.724 30.0155 234.001 29.8395 234.321 29.7152C234.644 29.5876 234.989 29.5237 235.356 29.5237C235.826 29.5237 236.239 29.6186 236.596 29.8084C236.953 29.9948 237.132 30.2536 237.132 30.5849C237.132 30.7367 237.076 30.8661 236.963 30.9731C236.851 31.0801 236.722 31.1336 236.576 31.1336C236.436 31.1336 236.329 31.1008 236.254 31.0352C236.179 30.9697 236.13 30.9024 236.106 30.8333C236.082 30.7643 236.048 30.6418 236.004 30.4658C235.96 30.2967 235.887 30.1777 235.785 30.1087C235.683 30.0362 235.54 29.9999 235.356 29.9999C235.047 29.9999 234.771 30.1173 234.53 30.3519C234.292 30.5832 234.173 31.018 234.173 31.6564C234.173 31.998 234.22 32.3121 234.315 32.5985C234.414 32.8849 234.567 33.1127 234.775 33.2818C234.986 33.4474 235.242 33.5302 235.545 33.5302C235.882 33.5302 236.139 33.4457 236.315 33.2766C236.492 33.1075 236.649 32.9091 236.785 32.6813L237.213 32.8832Z" fill="#1F316A"/>
<path d="M241.336 33.4578C241.469 33.4578 241.574 33.4474 241.652 33.4267C241.734 33.4026 241.797 33.3629 241.841 33.3077C241.889 33.2524 241.919 33.18 241.933 33.0902C241.95 32.9971 241.958 32.8832 241.958 32.7486V30.6729C241.958 30.5038 241.918 30.3778 241.836 30.295C241.754 30.2122 241.598 30.1708 241.367 30.1708H241.198C241.001 30.1708 240.86 30.1966 240.775 30.2484C240.693 30.2967 240.652 30.3726 240.652 30.4762C240.652 30.5141 240.664 30.6297 240.688 30.823C240.712 31.0128 240.724 31.2906 240.724 31.6564C240.724 31.9635 240.693 32.262 240.632 32.5519C240.574 32.8383 240.475 33.0937 240.336 33.318C240.2 33.5423 240.016 33.7235 239.785 33.8615C239.554 33.9961 239.268 34.0634 238.928 34.0634C238.492 34.0634 238.161 33.9909 237.933 33.846C237.705 33.6976 237.591 33.4888 237.591 33.2197C237.591 33.054 237.632 32.9281 237.713 32.8418C237.795 32.7521 237.911 32.7072 238.06 32.7072C238.179 32.7072 238.281 32.7383 238.367 32.8004C238.452 32.8625 238.494 32.9643 238.494 33.1058C238.494 33.1644 238.486 33.2197 238.469 33.2714C238.455 33.3197 238.448 33.3594 238.448 33.3905C238.448 33.5458 238.518 33.6234 238.657 33.6234C238.8 33.6234 238.926 33.5716 239.035 33.4681C239.147 33.3611 239.241 33.2179 239.316 33.0385C239.39 32.859 239.446 32.6503 239.484 32.4121C239.521 32.174 239.54 31.9221 239.54 31.6564C239.54 31.508 239.538 31.3924 239.535 31.3096C239.535 31.2267 239.532 31.1543 239.525 31.0922C239.521 31.03 239.516 30.9697 239.509 30.911C239.503 30.8523 239.492 30.773 239.479 30.6729C239.465 30.5728 239.443 30.4917 239.412 30.4296C239.385 30.364 239.341 30.314 239.28 30.2795C239.222 30.2415 239.145 30.2156 239.05 30.2018C238.955 30.1846 238.834 30.1742 238.688 30.1708V29.6945H244.03V30.1708C243.863 30.1742 243.731 30.188 243.632 30.2122C243.533 30.2329 243.457 30.2708 243.402 30.3261C243.351 30.3778 243.317 30.4486 243.3 30.5383C243.287 30.628 243.28 30.7402 243.28 30.8748V32.702C243.28 32.8677 243.287 32.9988 243.3 33.0954C243.317 33.192 243.351 33.2662 243.402 33.318C243.453 33.3698 243.528 33.406 243.627 33.4267C243.725 33.444 243.86 33.4543 244.03 33.4578V33.934H241.336V33.4578Z" fill="#1F316A"/>
<path d="M249.918 32.8418C249.918 33.104 249.865 33.3284 249.76 33.5147C249.654 33.6976 249.511 33.8339 249.331 33.9236C249.154 34.0099 248.953 34.0531 248.729 34.0531C248.443 34.0531 248.205 33.9858 248.015 33.8512C247.824 33.7131 247.71 33.5492 247.673 33.3594C247.105 33.8218 246.533 34.0531 245.958 34.0531C245.591 34.0531 245.29 33.9633 245.055 33.7839C244.821 33.601 244.703 33.3611 244.703 33.0644C244.703 32.8193 244.766 32.5985 244.892 32.4018C245.018 32.2016 245.202 32.0239 245.443 31.8686C245.688 31.7133 245.979 31.577 246.316 31.4597C246.652 31.3389 247.072 31.2129 247.576 31.0818V30.7868C247.576 30.5417 247.518 30.3502 247.402 30.2122C247.29 30.0707 247.081 29.9999 246.775 29.9999C246.513 29.9999 246.324 30.0552 246.209 30.1656C246.093 30.276 246.016 30.4434 245.979 30.6677C245.952 30.8264 245.901 30.9576 245.826 31.0611C245.754 31.1612 245.603 31.2112 245.372 31.2112C245.229 31.2112 245.103 31.1698 244.994 31.087C244.885 31.0042 244.831 30.8817 244.831 30.7195C244.831 30.3985 245.003 30.119 245.346 29.8809C245.69 29.6428 246.217 29.5237 246.928 29.5237C247.676 29.5237 248.19 29.6514 248.469 29.9068C248.751 30.1621 248.892 30.5038 248.892 30.9317V32.5674C248.892 32.7745 248.897 32.9263 248.908 33.023C248.918 33.1196 248.945 33.1938 248.989 33.2455C249.037 33.2939 249.11 33.318 249.209 33.318C249.297 33.318 249.374 33.2714 249.438 33.1782C249.506 33.0851 249.54 32.9729 249.54 32.8418H249.918ZM247.576 32.8832V31.5994C246.93 31.8065 246.518 32.0101 246.341 32.2103C246.168 32.407 246.081 32.6002 246.081 32.79C246.081 32.9488 246.129 33.0764 246.224 33.1731C246.319 33.2697 246.453 33.318 246.627 33.318C246.814 33.318 246.979 33.2783 247.122 33.199C247.265 33.1196 247.416 33.0143 247.576 32.8832Z" fill="#1F316A"/>
<path d="M256.959 33.582C256.959 33.6303 256.954 33.7011 256.943 33.7942C256.937 33.8874 256.92 34.0116 256.892 34.1669C256.865 34.3222 256.824 34.5086 256.77 34.726C256.719 34.9468 256.649 35.2039 256.561 35.4973H256.234C256.166 35.2695 256.108 35.0693 256.061 34.8968C256.017 34.7277 255.979 34.581 255.948 34.4568C255.918 34.336 255.894 34.2325 255.877 34.1462C255.863 34.0634 255.853 33.9927 255.846 33.934H251.03C251.023 33.9927 251.011 34.0634 250.994 34.1462C250.977 34.2325 250.953 34.3378 250.923 34.462C250.892 34.5862 250.853 34.7329 250.806 34.902C250.761 35.0711 250.707 35.2695 250.642 35.4973H250.316C250.227 35.2039 250.158 34.9468 250.107 34.726C250.056 34.5086 250.015 34.3222 249.984 34.1669C249.957 34.0116 249.938 33.8874 249.928 33.7942C249.921 33.7011 249.918 33.6303 249.918 33.582C249.918 33.5475 249.931 33.5182 249.959 33.494C249.986 33.4698 250.027 33.4578 250.081 33.4578H250.719C250.994 33.4371 251.229 33.387 251.423 33.3077C251.617 33.2283 251.775 33.1161 251.897 32.9712C252.02 32.8228 252.108 32.6416 252.163 32.4277C252.221 32.2103 252.249 31.9532 252.249 31.6564C252.249 31.508 252.248 31.3924 252.244 31.3096C252.244 31.2267 252.241 31.1543 252.234 31.0922C252.231 31.03 252.226 30.9697 252.219 30.911C252.212 30.8523 252.202 30.773 252.188 30.6729C252.175 30.5728 252.152 30.4917 252.122 30.4296C252.095 30.364 252.05 30.314 251.989 30.2795C251.931 30.2415 251.855 30.2156 251.76 30.2018C251.664 30.1846 251.544 30.1742 251.397 30.1708V29.6945H256.739V30.1708C256.573 30.1742 256.44 30.188 256.341 30.2122C256.243 30.2329 256.166 30.2708 256.112 30.3261C256.061 30.3778 256.027 30.4486 256.01 30.5383C255.996 30.628 255.989 30.7402 255.989 30.8748V32.9608C255.989 33.1161 256.039 33.2369 256.137 33.3232C256.236 33.4095 256.418 33.4543 256.683 33.4578H256.795C256.85 33.4578 256.891 33.4698 256.918 33.494C256.945 33.5182 256.959 33.5475 256.959 33.582ZM253.362 30.4762C253.362 30.5141 253.374 30.6297 253.397 30.823C253.421 31.0128 253.433 31.2906 253.433 31.6564C253.433 31.8669 253.42 32.0601 253.392 32.2361C253.368 32.4121 253.324 32.5743 253.26 32.7227C253.198 32.8711 253.115 33.0074 253.01 33.1317C252.904 33.2524 252.773 33.3611 252.617 33.4578H253.795C253.989 33.4578 254.144 33.4491 254.26 33.4319C254.375 33.4112 254.464 33.3801 254.525 33.3387C254.586 33.2973 254.625 33.2455 254.642 33.1834C254.663 33.1213 254.673 33.0471 254.673 32.9608V30.6729C254.673 30.5038 254.63 30.3778 254.545 30.295C254.464 30.2122 254.307 30.1708 254.076 30.1708H253.908C253.71 30.1708 253.569 30.1966 253.484 30.2484C253.403 30.2967 253.362 30.3726 253.362 30.4762Z" fill="#1F316A"/>
<path d="M259.28 32.7486C259.28 32.8832 259.287 32.9971 259.301 33.0902C259.318 33.18 259.348 33.2524 259.392 33.3077C259.44 33.3629 259.503 33.4026 259.581 33.4267C259.663 33.4474 259.77 33.4578 259.903 33.4578V33.934H257.209V33.4578C257.375 33.4543 257.508 33.444 257.607 33.4267C257.709 33.406 257.785 33.3698 257.836 33.318C257.887 33.2662 257.92 33.192 257.933 33.0954C257.95 32.9988 257.959 32.8677 257.959 32.702V30.9265C257.959 30.7609 257.95 30.6297 257.933 30.5331C257.92 30.4365 257.887 30.3623 257.836 30.3105C257.785 30.2588 257.709 30.2243 257.607 30.207C257.508 30.1897 257.375 30.1777 257.209 30.1708V29.6945H259.903V30.1708C259.77 30.1708 259.663 30.1828 259.581 30.207C259.503 30.2277 259.44 30.2657 259.392 30.3209C259.348 30.3761 259.318 30.4503 259.301 30.5435C259.287 30.6332 259.28 30.7453 259.28 30.8799V31.558L261.142 30.0931C261.193 30.0517 261.255 30.0051 261.326 29.9534C261.398 29.9016 261.472 29.8533 261.551 29.8084C261.629 29.7636 261.709 29.7256 261.79 29.6945C261.872 29.6635 261.95 29.648 262.025 29.648C262.154 29.648 262.25 29.6928 262.311 29.7825C262.372 29.8688 262.403 29.9689 262.403 30.0828C262.403 30.1276 262.392 30.1777 262.372 30.2329C262.355 30.2881 262.328 30.3399 262.29 30.3882C262.256 30.433 262.214 30.471 262.163 30.5021C262.112 30.5331 262.056 30.5486 261.995 30.5486C261.92 30.5486 261.848 30.5417 261.78 30.5279C261.716 30.5107 261.649 30.5021 261.581 30.5021C261.523 30.5021 261.46 30.5124 261.392 30.5331C261.328 30.5538 261.256 30.5952 261.178 30.6573L260.714 31.03C260.915 31.42 261.093 31.7513 261.25 32.0239C261.406 32.2965 261.544 32.5243 261.663 32.7072C261.785 32.8866 261.889 33.0281 261.974 33.1317C262.063 33.2352 262.136 33.3128 262.193 33.3646C262.255 33.4164 262.304 33.4491 262.341 33.4629C262.379 33.4767 262.408 33.4837 262.428 33.4837C262.466 33.4837 262.495 33.4785 262.515 33.4681L262.556 33.934C262.478 33.9754 262.394 34.0065 262.306 34.0272C262.217 34.0513 262.103 34.0634 261.964 34.0634C261.828 34.0634 261.7 34.0531 261.581 34.0323C261.466 34.0151 261.353 33.9789 261.244 33.9236C261.136 33.865 261.027 33.7856 260.918 33.6855C260.809 33.582 260.693 33.4474 260.571 33.2818C260.449 33.1127 260.316 32.9091 260.173 32.671C260.03 32.4328 259.87 32.1499 259.693 31.822L259.28 32.143V32.7486Z" fill="#1F316A"/>
<path d="M268.852 30.1708C268.682 30.1777 268.547 30.1897 268.449 30.207C268.35 30.2243 268.275 30.2588 268.224 30.3105C268.173 30.3623 268.139 30.4365 268.122 30.5331C268.109 30.6297 268.102 30.7609 268.102 30.9265V32.702C268.102 32.8677 268.109 32.9988 268.122 33.0954C268.139 33.192 268.173 33.2662 268.224 33.318C268.275 33.3698 268.35 33.406 268.449 33.4267C268.547 33.444 268.682 33.4543 268.852 33.4578V33.934H266.158V33.4578C266.29 33.4578 266.396 33.4474 266.474 33.4267C266.556 33.4026 266.619 33.3629 266.663 33.3077C266.711 33.2524 266.741 33.18 266.755 33.0902C266.772 32.9971 266.78 32.8832 266.78 32.7486V31.439L265.046 32.8884C265.049 32.9988 265.061 33.0902 265.081 33.1627C265.105 33.2352 265.139 33.2939 265.183 33.3387C265.231 33.3801 265.294 33.4112 265.372 33.4319C265.45 33.4491 265.549 33.4578 265.668 33.4578V33.934H262.974V33.4578C263.141 33.4543 263.273 33.444 263.372 33.4267C263.474 33.406 263.551 33.3698 263.602 33.318C263.653 33.2662 263.685 33.192 263.699 33.0954C263.716 32.9988 263.724 32.8677 263.724 32.702V30.9265C263.724 30.7609 263.716 30.6297 263.699 30.5331C263.685 30.4365 263.653 30.3623 263.602 30.3105C263.551 30.2588 263.474 30.2243 263.372 30.207C263.273 30.1897 263.141 30.1777 262.974 30.1708V29.6945H265.668V30.1708C265.535 30.1708 265.428 30.1828 265.347 30.207C265.268 30.2277 265.205 30.2657 265.158 30.3209C265.114 30.3761 265.083 30.4503 265.066 30.5435C265.052 30.6332 265.046 30.7453 265.046 30.8799V32.143L266.775 30.6988C266.768 30.5987 266.753 30.5159 266.729 30.4503C266.709 30.3813 266.675 30.3261 266.627 30.2846C266.583 30.2432 266.522 30.2139 266.444 30.1966C266.369 30.1794 266.273 30.1708 266.158 30.1708V29.6945H268.852V30.1708Z" fill="#1F316A"/>
<path d="M276.51 33.934H273.347V33.4578C273.554 33.4543 273.717 33.4371 273.837 33.406C273.956 33.3749 274.046 33.3266 274.107 33.2611C274.168 33.1955 274.207 33.111 274.224 33.0074C274.241 32.9039 274.252 32.7779 274.255 32.6295V31.0093L272.643 33.934H272.357L270.709 31.0093V32.407C270.709 32.5174 270.711 32.614 270.714 32.6968C270.717 32.7797 270.723 32.8521 270.729 32.9142C270.74 32.9764 270.753 33.0316 270.77 33.0799C270.787 33.1282 270.809 33.1731 270.837 33.2145C270.894 33.2973 270.984 33.3594 271.107 33.4008C271.229 33.4388 271.403 33.4578 271.627 33.4578V33.934H269.291V33.4578C269.515 33.4578 269.687 33.4371 269.806 33.3957C269.928 33.3542 270.018 33.2921 270.076 33.2093C270.103 33.1679 270.126 33.123 270.143 33.0747C270.16 33.0264 270.172 32.9712 270.178 32.9091C270.189 32.847 270.194 32.7762 270.194 32.6968C270.197 32.614 270.199 32.5174 270.199 32.407V31.2112C270.199 30.9213 270.185 30.7074 270.158 30.5693C270.144 30.5038 270.119 30.4468 270.081 30.3985C270.047 30.3468 269.996 30.3054 269.928 30.2743C269.86 30.2398 269.774 30.2139 269.668 30.1966C269.566 30.1794 269.44 30.1708 269.291 30.1708V29.6945H271.597L272.923 32.0964L274.255 29.6945H276.51V30.1708C276.122 30.1708 275.871 30.2346 275.755 30.3623C275.643 30.4865 275.587 30.6988 275.587 30.999V32.6295C275.587 32.771 275.595 32.8935 275.612 32.9971C275.632 33.0971 275.673 33.1817 275.735 33.2507C275.799 33.3163 275.893 33.3663 276.015 33.4008C276.138 33.4353 276.303 33.4543 276.51 33.4578V33.934Z" fill="#1F316A"/>
<path d="M278.877 27.5101C278.877 27.6171 278.874 27.7137 278.867 27.8C278.86 27.8863 278.847 28.0226 278.826 28.2089L278.428 31.5994H277.969L277.571 28.2089C277.537 27.9052 277.52 27.6723 277.52 27.5101C277.52 27.2478 277.588 27.0546 277.724 26.9304C277.86 26.8061 278.015 26.744 278.189 26.744C278.386 26.744 278.549 26.8078 278.678 26.9355C278.811 27.0598 278.877 27.2513 278.877 27.5101ZM279 33.2973C279 33.5251 278.922 33.7166 278.765 33.8719C278.609 34.0272 278.42 34.1048 278.199 34.1048C277.981 34.1048 277.794 34.0272 277.638 33.8719C277.481 33.7166 277.403 33.5251 277.403 33.2973C277.403 33.0695 277.479 32.8763 277.633 32.7175C277.786 32.5588 277.974 32.4794 278.199 32.4794C278.423 32.4794 278.612 32.5588 278.765 32.7175C278.922 32.8728 279 33.0661 279 33.2973Z" fill="#1F316A"/>
</svg>
