<svg width="247" height="247" viewBox="0 0 247 247" fill="none" xmlns="http://www.w3.org/2000/svg">
<path fill-rule="evenodd" clip-rule="evenodd" d="M123.5 247C191.707 247 247 191.707 247 123.5C247 55.2928 191.707 0 123.5 0C55.2928 0 0 55.2928 0 123.5C0 191.707 55.2928 247 123.5 247ZM164.473 165.715C169.718 167.238 174.801 168 179.723 168C184.403 168 188.841 167.318 193.036 165.955C197.232 164.673 200.984 162.909 204.292 160.664C207.6 158.338 210.343 155.692 212.522 152.726C214.781 149.679 216.274 146.432 217 142.984C214.741 145.389 212.32 147.354 209.738 148.877C207.237 150.32 204.736 151.483 202.234 152.365C199.733 153.247 197.313 153.848 194.973 154.169C192.633 154.49 190.535 154.65 188.679 154.65C183.354 154.65 178.351 153.688 173.672 151.764C169.072 149.759 164.998 147.033 161.448 143.585C157.978 140.137 155.235 136.088 153.218 131.438C151.201 126.787 150.192 121.736 150.192 116.284C150.192 112.034 150.716 107.985 151.765 104.136C152.895 100.208 154.509 96.8 156.606 93.9135C158.704 90.9468 161.246 88.5815 164.231 86.8176C167.297 85.0536 170.767 84.1716 174.64 84.1716C177.625 84.1716 180.369 84.6928 182.87 85.7351C185.371 86.6973 187.509 88.1005 189.284 89.9446C191.059 91.7887 192.431 93.9937 193.399 96.5595C194.368 99.045 194.852 101.811 194.852 104.858C194.852 107.023 194.569 109.108 194.004 111.112C193.44 113.036 192.592 114.76 191.463 116.284C190.414 117.727 189.083 118.89 187.469 119.772C185.855 120.654 183.999 121.095 181.902 121.095C179.078 121.095 176.818 120.333 175.124 118.809C173.43 117.206 172.582 115.081 172.582 112.435C172.986 112.595 173.551 112.796 174.277 113.036C175.003 113.277 175.729 113.397 176.455 113.397C178.069 113.397 179.441 112.876 180.57 111.834C181.7 110.711 182.265 109.228 182.265 107.384C182.265 105.54 181.66 104.016 180.449 102.814C179.239 101.611 177.625 101.009 175.608 101.009C172.784 101.009 170.646 102.132 169.193 104.377C167.822 106.542 167.136 109.027 167.136 111.834C167.136 114.159 167.62 116.364 168.588 118.449C169.557 120.453 170.928 122.217 172.703 123.741C174.478 125.264 176.576 126.467 178.997 127.349C181.417 128.231 184.08 128.672 186.985 128.672C191.584 128.672 195.538 127.75 198.846 125.905C202.154 124.061 204.897 121.656 207.076 118.689C209.254 115.723 210.868 112.395 211.917 108.707C212.966 105.018 213.49 101.33 213.49 97.6419C213.49 96.1185 213.369 94.7554 213.127 93.5527C212.885 92.2698 212.643 91.3477 212.401 90.7865C211.191 91.1874 210.061 91.3878 209.012 91.3878C207.076 91.3878 205.22 90.9869 203.445 90.1851C201.75 89.3833 199.612 88.0604 197.03 86.2162C195.981 85.4946 194.731 84.7329 193.278 83.9311C191.907 83.0491 190.293 82.2473 188.437 81.5257C186.662 80.8041 184.645 80.2027 182.386 79.7216C180.126 79.2405 177.585 79 174.761 79C168.629 79 163.142 80.3631 158.301 83.0892C153.46 85.7351 149.345 89.1829 145.956 93.4324C142.567 97.6018 139.985 102.292 138.21 107.504C136.435 112.716 135.547 117.887 135.547 123.019C135.547 131.438 136.919 138.534 139.662 144.307C142.406 150 145.916 154.61 150.192 158.138C154.549 161.666 159.309 164.191 164.473 165.715ZM70.5765 85.0135C71.3027 83.6505 72.2306 82.4478 73.3602 81.4054H40.6823C43.6677 83.8108 46.3304 86.4568 48.6702 89.3432L43.9501 121.335C42.9819 128.231 41.933 134.044 40.8034 138.774C39.7544 143.505 38.6652 147.514 37.5356 150.801C36.4866 154.089 35.3974 156.895 34.2678 159.22C33.1382 161.465 32.0489 163.59 31 165.595H55.4479C54.399 164.232 53.4711 162.427 52.6642 160.182C51.8574 157.857 51.1715 155.412 50.6067 152.846C50.0419 150.2 49.5981 147.594 49.2754 145.028C49.0333 142.382 48.9123 140.057 48.9123 138.053C48.9123 137.251 48.9527 136.209 49.0333 134.926C49.114 133.643 49.1947 132.28 49.2754 130.836L49.7595 126.507C49.9209 125.064 50.0823 123.741 50.2436 122.538L53.2694 98.3635L78.2014 159.822L98.4132 95.5973L106.522 151.764V153.086C106.603 153.568 106.643 154.049 106.643 154.53C106.643 156.775 106.199 158.859 105.312 160.784C104.505 162.628 103.375 164.232 101.923 165.595H132.059C129.074 163.51 126.936 160.784 125.645 157.416C124.434 153.968 123.466 149.358 122.74 143.585L116.326 95.7176C116.326 95.3167 116.285 94.6752 116.204 93.7933V91.7486C116.204 89.5838 116.648 87.5793 117.536 85.7351C118.504 83.891 120.158 82.4478 122.498 81.4054H89.4571C90.9901 82.2874 92.2811 83.2095 93.33 84.1716C94.3789 85.0536 95.0648 85.8955 95.3875 86.6973L82.8005 126.266L70.3345 94.1541C70.0117 93.2721 69.7697 92.5505 69.6083 91.9892C69.5276 91.3477 69.4873 90.586 69.4873 89.7041C69.4873 87.9401 69.8503 86.3766 70.5765 85.0135Z" fill="white"/>
</svg>
