<svg width="553" height="29" viewBox="0 0 553 29" fill="none" xmlns="http://www.w3.org/2000/svg">
<path d="M18.4077 15.9454C18.4077 17.1018 18.1168 18.0502 17.5348 18.7907C16.9528 19.521 16.2153 20.0789 15.3222 20.4643C14.4292 20.8396 13.5562 21.0881 12.7033 21.2099C11.8504 21.3316 11.0276 21.3924 10.2349 21.3924H0V19.9927C0.872976 19.9927 1.51516 19.9014 1.92657 19.7188C2.348 19.5362 2.61893 19.2775 2.73934 18.9428C2.86978 18.6081 2.935 18.1466 2.935 17.5582V4.5341C2.935 3.6212 2.74937 2.98723 2.37811 2.63221C2.00684 2.27719 1.21414 2.09969 0 2.09969V0.669465C1.45496 0.639035 2.83968 0.608604 4.15416 0.578174C5.46864 0.547744 6.54732 0.527457 7.39019 0.517314C8.2431 0.497027 8.84013 0.486884 9.1813 0.486884H9.73819C10.7818 0.486884 11.8705 0.598461 13.0043 0.821616C14.1482 1.03463 15.1868 1.52658 16.1199 2.29748C17.0632 3.06838 17.5348 4.17908 17.5348 5.62959C17.5348 6.71494 17.1535 7.64813 16.3909 8.42917C15.6283 9.21021 14.379 9.85432 12.6431 10.3615C13.8271 10.5745 14.8556 10.9346 15.7286 11.4418C16.6116 11.9388 17.2789 12.5728 17.7304 13.3437C18.182 14.1146 18.4077 14.9818 18.4077 15.9454ZM13.2301 5.75131C13.2301 5.04127 13.0595 4.42253 12.7184 3.89507C12.3872 3.35747 11.8905 2.94159 11.2283 2.64743C10.576 2.34313 9.77331 2.19098 8.82006 2.19098H7.23968V9.58552H8.47388C10.0894 9.58552 11.2835 9.24064 12.0561 8.55089C12.8388 7.86114 13.2301 6.92795 13.2301 5.75131ZM13.787 15.6868C13.787 14.287 13.4258 13.2016 12.7033 12.4307C11.9909 11.6497 10.9824 11.2592 9.67799 11.2592H7.23968V16.2193V16.6301C7.23968 17.3807 7.28483 17.969 7.37514 18.3951C7.46545 18.8109 7.69122 19.1355 8.05245 19.3688C8.41368 19.592 8.98563 19.7036 9.7683 19.7036C10.8119 19.7036 11.74 19.3841 12.5528 18.745C13.3756 18.106 13.787 17.0866 13.787 15.6868Z" fill="white"/>
<path d="M36.1984 18.1821C36.1984 18.953 36.0429 19.6123 35.7318 20.16C35.4207 20.6976 34.9993 21.0983 34.4675 21.362C33.9457 21.6156 33.3537 21.7424 32.6914 21.7424C31.8486 21.7424 31.1462 21.5446 30.5843 21.149C30.0223 20.7433 29.6862 20.2615 29.5758 19.7036C27.9001 21.0628 26.2144 21.7424 24.5186 21.7424C23.4349 21.7424 22.5469 21.4787 21.8545 20.9512C21.1621 20.4136 20.816 19.7086 20.816 18.8363C20.816 18.1161 21.0016 17.4669 21.3729 16.8888C21.7441 16.3005 22.286 15.7781 22.9984 15.3216C23.7209 14.8652 24.5788 14.4645 25.5722 14.1196C26.5656 13.7646 27.8048 13.3944 29.2898 13.0089V12.1417C29.2898 11.4215 29.1193 10.8585 28.7781 10.4528C28.447 10.0369 27.8299 9.82896 26.9268 9.82896C26.1542 9.82896 25.5973 9.99126 25.2561 10.3158C24.9149 10.6404 24.6892 11.1324 24.5788 11.7917C24.4985 12.2583 24.348 12.6438 24.1272 12.9481C23.9165 13.2422 23.47 13.3893 22.7877 13.3893C22.3662 13.3893 21.995 13.2676 21.6739 13.0241C21.3528 12.7807 21.1922 12.4206 21.1922 11.9439C21.1922 11.0005 21.699 10.1789 22.7124 9.47901C23.7259 8.77912 25.2812 8.42917 27.3783 8.42917C29.5858 8.42917 31.101 8.80448 31.9238 9.55509C32.7567 10.3057 33.1731 11.3099 33.1731 12.5677V17.3757C33.1731 17.9843 33.1881 18.4306 33.2182 18.7146C33.2483 18.9986 33.3286 19.2167 33.459 19.3688C33.5995 19.5108 33.8153 19.5818 34.1063 19.5818C34.3671 19.5818 34.5929 19.4449 34.7836 19.171C34.9842 18.8972 35.0846 18.5675 35.0846 18.1821H36.1984ZM29.2898 18.3038V14.5304C27.3833 15.139 26.1692 15.7375 25.6474 16.3258C25.1357 16.904 24.8798 17.472 24.8798 18.0299C24.8798 18.4965 25.0203 18.8718 25.3012 19.1558C25.5822 19.4398 25.9786 19.5818 26.4903 19.5818C27.0422 19.5818 27.5288 19.4652 27.9503 19.2319C28.3717 18.9986 28.8182 18.6892 29.2898 18.3038Z" fill="white"/>
<path d="M45.8463 8.93127H53.1161V10.3311C52.7247 10.3311 52.4187 10.3666 52.1979 10.4376C51.9772 10.4984 51.8066 10.61 51.6862 10.7723C51.5758 10.9346 51.5056 11.1527 51.4755 11.4265C51.4454 11.6903 51.4303 12.0199 51.4303 12.4155V17.6191C51.4303 18.0147 51.4504 18.3494 51.4905 18.6233C51.5407 18.887 51.631 19.1 51.7614 19.2623C51.9019 19.4246 52.0875 19.5413 52.3183 19.6123C52.5592 19.6731 52.8752 19.7036 53.2666 19.7036H54.1696C54.561 19.7036 54.872 19.6731 55.1028 19.6123C55.3436 19.5413 55.5293 19.4246 55.6597 19.2623C55.8002 19.1 55.8905 18.887 55.9306 18.6233C55.9808 18.3494 56.0059 18.0147 56.0059 17.6191V12.4155C56.0059 12.0199 55.9909 11.6903 55.9608 11.4265C55.9306 11.1527 55.8554 10.9346 55.735 10.7723C55.6246 10.61 55.459 10.4984 55.2383 10.4376C55.0175 10.3666 54.7115 10.3311 54.3202 10.3311V8.93127H62.1167V10.3311C61.615 10.3513 61.2187 10.3868 60.9277 10.4376C60.6367 10.4883 60.4159 10.5897 60.2654 10.7419C60.1149 10.894 60.0146 11.1121 59.9644 11.3961C59.9243 11.6801 59.9042 12.0656 59.9042 12.5525V17.7712C59.9042 18.2581 59.9243 18.6436 59.9644 18.9276C60.0146 19.2116 60.1149 19.4297 60.2654 19.5818C60.4159 19.734 60.6367 19.8405 60.9277 19.9014C61.2187 19.9521 61.615 19.9825 62.1167 19.9927V21.3924H36.8456V19.9927C37.3373 19.9825 37.7286 19.9521 38.0196 19.9014C38.3206 19.8405 38.5464 19.734 38.6969 19.5818C38.8474 19.4297 38.9427 19.2116 38.9829 18.9276C39.0331 18.6436 39.0581 18.2581 39.0581 17.7712V12.5525C39.0581 12.0656 39.0331 11.6801 38.9829 11.3961C38.9427 11.1121 38.8474 10.894 38.6969 10.7419C38.5464 10.5897 38.3206 10.4883 38.0196 10.4376C37.7286 10.3868 37.3373 10.3513 36.8456 10.3311V8.93127H44.6422V10.3311C44.2508 10.3311 43.9448 10.3666 43.724 10.4376C43.5033 10.4984 43.3327 10.61 43.2123 10.7723C43.1019 10.9346 43.0317 11.1527 43.0016 11.4265C42.9715 11.6903 42.9564 12.0199 42.9564 12.4155V17.6191C42.9564 18.0147 42.9765 18.3494 43.0166 18.6233C43.0668 18.887 43.1571 19.1 43.2876 19.2623C43.428 19.4246 43.6137 19.5413 43.8445 19.6123C44.0853 19.6731 44.4013 19.7036 44.7927 19.7036H45.6958C46.0871 19.7036 46.3982 19.6731 46.6289 19.6123C46.8698 19.5413 47.0554 19.4246 47.1858 19.2623C47.3263 19.1 47.4166 18.887 47.4568 18.6233C47.5069 18.3494 47.532 18.0147 47.532 17.6191V12.4155C47.532 12.0199 47.517 11.6903 47.4869 11.4265C47.4568 11.1527 47.3815 10.9346 47.2611 10.7723C47.1507 10.61 46.9852 10.4984 46.7644 10.4376C46.5437 10.3666 46.2376 10.3311 45.8463 10.3311V8.93127Z" fill="white"/>
<path d="M84.8442 18.3038C83.6301 20.6976 81.6784 21.8945 78.9893 21.8945C77.735 21.8945 76.5459 21.6359 75.4221 21.1186C74.3083 20.6013 73.4102 19.8506 72.7279 18.8667C72.0556 17.8828 71.7195 16.7316 71.7195 15.4129C71.7195 14.5 71.9001 13.6277 72.2613 12.7959C72.6326 11.9641 73.1644 11.2135 73.8568 10.5441C74.5491 9.87461 75.3669 9.35729 76.3101 8.99213C77.2634 8.61682 78.2818 8.42917 79.3655 8.42917C80.7503 8.42917 81.9694 8.70811 83.023 9.266C84.0766 9.81375 84.6034 10.5745 84.6034 11.5483C84.6034 11.9946 84.4378 12.375 84.1067 12.6894C83.7756 13.0038 83.3943 13.1611 82.9628 13.1611C82.5514 13.1611 82.2353 13.0647 82.0146 12.872C81.7938 12.6793 81.6483 12.4815 81.5781 12.2786C81.5078 12.0757 81.4075 11.7156 81.277 11.1983C81.1466 10.7013 80.9309 10.3513 80.6298 10.1485C80.3288 9.93547 79.9074 9.82896 79.3655 9.82896C78.4524 9.82896 77.6396 10.1738 76.9272 10.8636C76.2248 11.5432 75.8736 12.8213 75.8736 14.6978C75.8736 15.702 76.0141 16.625 76.2951 17.4669C76.5861 18.3088 77.0376 18.9783 77.6497 19.4753C78.2718 19.9622 79.0294 20.2057 79.9224 20.2057C80.9158 20.2057 81.6734 19.9572 82.1952 19.4601C82.717 18.9631 83.1785 18.3799 83.5799 17.7104L84.8442 18.3038Z" fill="white"/>
<path d="M101.687 15.1238C101.687 16.5033 101.355 17.7053 100.693 18.7298C100.031 19.7543 99.1329 20.5404 97.999 21.0881C96.8752 21.6257 95.641 21.8945 94.2964 21.8945C93.0321 21.8945 91.833 21.646 90.6992 21.149C89.5753 20.652 88.6522 19.8963 87.9297 18.882C87.2173 17.8676 86.8611 16.625 86.8611 15.1543C86.8611 12.9531 87.6036 11.2845 89.0887 10.1485C90.5737 9.00227 92.3398 8.42917 94.3867 8.42917C95.9119 8.42917 97.2264 8.73347 98.3302 9.34208C99.4339 9.95068 100.267 10.7672 100.829 11.7917C101.401 12.8162 101.687 13.9269 101.687 15.1238ZM97.5325 15.0325C97.5325 13.3081 97.3067 12.0098 96.8551 11.1375C96.4036 10.2651 95.5256 9.82896 94.2212 9.82896C93.3883 9.82896 92.7361 10.0217 92.2645 10.4071C91.8029 10.7824 91.4768 11.3708 91.2862 12.1721C91.1055 12.9633 91.0152 13.9928 91.0152 15.2608C91.0152 16.8228 91.2209 18.0857 91.6323 19.0493C92.0437 20.0129 92.9418 20.4948 94.3265 20.4948C95.2396 20.4948 95.932 20.231 96.4036 19.7036C96.8852 19.166 97.1913 18.5066 97.3217 17.7256C97.4622 16.9344 97.5325 16.0367 97.5325 15.0325Z" fill="white"/>
<path d="M120.952 10.3311C120.451 10.3513 120.054 10.3868 119.763 10.4376C119.472 10.4883 119.251 10.5897 119.101 10.7419C118.95 10.894 118.85 11.1121 118.8 11.3961C118.76 11.6801 118.74 12.0656 118.74 12.5525V17.7712C118.74 18.2581 118.76 18.6436 118.8 18.9276C118.85 19.2116 118.95 19.4297 119.101 19.5818C119.251 19.734 119.472 19.8405 119.763 19.9014C120.054 19.9521 120.451 19.9825 120.952 19.9927V21.3924H113.005V19.9927C113.397 19.9927 113.708 19.9622 113.938 19.9014C114.179 19.8304 114.365 19.7137 114.495 19.5514C114.636 19.3891 114.726 19.1761 114.766 18.9124C114.816 18.6385 114.841 18.3038 114.841 17.9082V15.9454H109.724V17.9082C109.724 18.3038 109.744 18.6385 109.784 18.9124C109.834 19.1761 109.925 19.3891 110.055 19.5514C110.196 19.7137 110.381 19.8304 110.612 19.9014C110.853 19.9622 111.169 19.9927 111.56 19.9927V21.3924H103.613V19.9927C104.105 19.9825 104.496 19.9521 104.787 19.9014C105.088 19.8405 105.314 19.734 105.464 19.5818C105.615 19.4297 105.71 19.2116 105.75 18.9276C105.801 18.6436 105.826 18.2581 105.826 17.7712V12.5525C105.826 12.0656 105.801 11.6801 105.75 11.3961C105.71 11.1121 105.615 10.894 105.464 10.7419C105.314 10.5897 105.088 10.4883 104.787 10.4376C104.496 10.3868 104.105 10.3513 103.613 10.3311V8.93127H111.56V10.3311C111.169 10.3311 110.853 10.3666 110.612 10.4376C110.381 10.4984 110.196 10.61 110.055 10.7723C109.925 10.9346 109.834 11.1527 109.784 11.4265C109.744 11.6903 109.724 12.0199 109.724 12.4155V14.2566H114.841V12.4155C114.841 12.0199 114.816 11.6903 114.766 11.4265C114.726 11.1527 114.636 10.9346 114.495 10.7723C114.365 10.61 114.179 10.4984 113.938 10.4376C113.708 10.3666 113.397 10.3311 113.005 10.3311V8.93127H120.952V10.3311Z" fill="white"/>
<path d="M145.396 15.1238C145.396 16.1483 145.205 17.0815 144.824 17.9234C144.442 18.7552 143.921 19.4652 143.258 20.0535C142.596 20.6418 141.823 21.0932 140.94 21.4077C140.057 21.7322 139.114 21.8945 138.111 21.8945C137.188 21.8945 136.275 21.7525 135.371 21.4685C134.468 21.1946 133.661 20.7636 132.948 20.1752C132.236 19.5768 131.659 18.816 131.217 17.893C130.786 16.9699 130.57 15.8592 130.57 14.5609C130.57 13.4958 130.64 12.3496 130.781 11.1222C130.921 9.89489 131.197 8.60161 131.609 7.24239C131.829 6.48164 132.065 5.80203 132.316 5.20357C132.567 4.59496 132.878 4.08272 133.249 3.66684C133.63 3.24082 134.102 2.91623 134.664 2.69307C135.236 2.46992 135.953 2.35834 136.816 2.35834C137.238 2.35834 137.639 2.36849 138.02 2.38877C138.412 2.40906 138.793 2.4192 139.164 2.4192C139.706 2.4192 140.228 2.37356 140.73 2.28227C141.241 2.18083 141.763 1.96782 142.295 1.64323C142.616 1.45051 142.887 1.20707 143.108 0.912907C143.339 0.618748 143.559 0.314446 143.77 0L144.598 0.775971C144.488 1.10056 144.367 1.43529 144.237 1.78017C144.106 2.12504 143.956 2.44456 143.785 2.73872C143.504 3.21546 143.193 3.60091 142.852 3.89507C142.521 4.17908 142.165 4.40224 141.783 4.56453C141.402 4.72683 140.996 4.83841 140.564 4.89927C140.133 4.96013 139.686 5.00577 139.225 5.0362C138.773 5.05649 138.306 5.07678 137.825 5.09706C137.343 5.11735 136.851 5.16807 136.35 5.24921C135.627 5.36079 135.04 5.59916 134.589 5.96432C134.147 6.32949 133.791 6.7758 133.52 7.30325C133.259 7.83071 133.059 8.41903 132.918 9.06821C132.778 9.71738 132.642 10.3868 132.512 11.0766C132.903 10.5694 133.324 10.1485 133.776 9.81375C134.238 9.46887 134.709 9.195 135.191 8.99213C135.672 8.78926 136.159 8.64725 136.651 8.56611C137.142 8.47482 137.624 8.42917 138.096 8.42917C139.25 8.42917 140.278 8.61175 141.181 8.97692C142.084 9.33193 142.847 9.81375 143.469 10.4224C144.101 11.031 144.578 11.741 144.899 12.5525C145.23 13.3639 145.396 14.2211 145.396 15.1238ZM141.241 15.0325C141.241 14.1805 141.191 13.4299 141.091 12.7807C141.001 12.1315 140.83 11.5888 140.579 11.1527C140.328 10.7165 139.987 10.3868 139.556 10.1637C139.134 9.94054 138.592 9.82896 137.93 9.82896C137.298 9.82896 136.776 9.93547 136.365 10.1485C135.953 10.3615 135.627 10.6912 135.386 11.1375C135.146 11.5736 134.975 12.1366 134.875 12.8263C134.774 13.5059 134.724 14.3174 134.724 15.2608C134.724 15.6361 134.734 16.0266 134.754 16.4323C134.774 16.8381 134.82 17.2336 134.89 17.6191C134.97 18.0045 135.08 18.3748 135.221 18.7298C135.371 19.0747 135.567 19.379 135.808 19.6427C136.059 19.9064 136.365 20.1144 136.726 20.2665C137.087 20.4187 137.524 20.4948 138.036 20.4948C138.738 20.4948 139.3 20.3426 139.721 20.0383C140.143 19.734 140.464 19.3283 140.685 18.8211C140.915 18.3139 141.066 17.7357 141.136 17.0866C141.206 16.4272 141.241 15.7426 141.241 15.0325Z" fill="white"/>
<path d="M162.674 10.3311C162.243 10.3919 161.907 10.5035 161.666 10.6658C161.425 10.8281 161.204 11.0817 161.004 11.4265C160.813 11.7613 160.467 12.446 159.965 13.4806L155.555 22.7314C154.572 24.7702 153.9 26.1243 153.538 26.7938C153.187 27.4734 152.786 28.011 152.334 28.4066C151.883 28.8022 151.321 29 150.649 29C150.187 29 149.786 28.858 149.444 28.574C149.103 28.29 148.933 27.9299 148.933 27.4937C148.933 26.875 149.138 26.4236 149.55 26.1396C149.971 25.8657 150.513 25.6324 151.175 25.4397C152.068 25.1759 152.751 24.6941 153.222 23.9942C153.694 23.2943 154.1 22.5285 154.441 21.6967L148.707 11.4874C148.436 10.9904 148.19 10.6759 147.969 10.5441C147.749 10.4021 147.443 10.3311 147.051 10.3311V8.93127H154.351V10.3311H153.885C153.192 10.3311 152.846 10.4984 152.846 10.8332C152.846 11.036 152.986 11.386 153.267 11.883L156.443 17.5278L158.791 12.7046C159.122 12.0149 159.288 11.5432 159.288 11.2896C159.288 10.9853 159.137 10.752 158.836 10.5897C158.545 10.4173 158.199 10.3311 157.798 10.3311V8.93127H162.674V10.3311Z" fill="white"/>
<path d="M183.822 20.3578C183.822 20.4998 183.807 20.7078 183.776 20.9816C183.756 21.2555 183.706 21.6207 183.626 22.0771C183.546 22.5336 183.425 23.0813 183.265 23.7204C183.114 24.3695 182.908 25.1252 182.648 25.9874H181.684C181.484 25.3179 181.313 24.7296 181.173 24.2225C181.042 23.7254 180.932 23.2943 180.841 22.9292C180.751 22.5742 180.681 22.2698 180.631 22.0163C180.591 21.7728 180.56 21.5649 180.54 21.3924H166.332C166.312 21.5649 166.277 21.7728 166.227 22.0163C166.176 22.2698 166.106 22.5792 166.016 22.9444C165.926 23.3095 165.81 23.7406 165.67 24.2377C165.539 24.7347 165.379 25.3179 165.188 25.9874H164.225C163.964 25.1252 163.758 24.3695 163.608 23.7204C163.457 23.0813 163.337 22.5336 163.246 22.0771C163.166 21.6207 163.111 21.2555 163.081 20.9816C163.061 20.7078 163.051 20.4998 163.051 20.3578C163.051 20.2564 163.091 20.1702 163.171 20.0992C163.251 20.0282 163.372 19.9927 163.532 19.9927H165.414C166.227 19.9318 166.919 19.7847 167.491 19.5514C168.063 19.3181 168.529 18.9885 168.891 18.5624C169.252 18.1263 169.513 17.5937 169.673 16.9648C169.844 16.3258 169.929 15.5701 169.929 14.6978C169.929 14.2616 169.924 13.9218 169.914 13.6784C169.914 13.4349 169.904 13.2219 169.884 13.0393C169.874 12.8568 169.859 12.6793 169.839 12.5068C169.819 12.3344 169.789 12.1011 169.749 11.8069C169.708 11.5128 169.643 11.2744 169.553 11.0918C169.473 10.8991 169.342 10.752 169.162 10.6506C168.991 10.539 168.765 10.4629 168.484 10.4224C168.203 10.3716 167.847 10.3412 167.416 10.3311V8.93127H183.174V10.3311C182.683 10.3412 182.291 10.3818 182 10.4528C181.709 10.5136 181.484 10.6252 181.323 10.7875C181.173 10.9397 181.072 11.1476 181.022 11.4113C180.982 11.6751 180.962 12.0047 180.962 12.4003V18.532C180.962 18.9885 181.107 19.3435 181.398 19.5971C181.689 19.8506 182.226 19.9825 183.009 19.9927H183.34C183.5 19.9927 183.621 20.0282 183.701 20.0992C183.781 20.1702 183.822 20.2564 183.822 20.3578ZM173.21 11.2288C173.21 11.3403 173.246 11.6801 173.316 12.2482C173.386 12.8061 173.421 13.6226 173.421 14.6978C173.421 15.3165 173.381 15.8846 173.301 16.4019C173.23 16.9192 173.1 17.3959 172.909 17.8321C172.729 18.2683 172.483 18.6689 172.172 19.0341C171.861 19.3891 171.475 19.7086 171.013 19.9927H174.49C175.062 19.9927 175.518 19.9673 175.859 19.9166C176.201 19.8557 176.462 19.7644 176.642 19.6427C176.823 19.521 176.938 19.3688 176.988 19.1863C177.048 19.0037 177.079 18.7856 177.079 18.532V11.8069C177.079 11.3099 176.953 10.9397 176.702 10.6962C176.462 10.4528 176 10.3311 175.318 10.3311H174.821C174.239 10.3311 173.822 10.4071 173.572 10.5593C173.331 10.7013 173.21 10.9244 173.21 11.2288Z" fill="white"/>
<path d="M198.557 14.6978H189.3C189.31 14.8905 189.335 15.3013 189.376 15.9302C189.426 16.5591 189.566 17.2032 189.797 17.8625C190.038 18.5219 190.444 19.0797 191.016 19.5362C191.598 19.9825 192.376 20.2057 193.349 20.2057C193.881 20.2057 194.523 20.0687 195.276 19.7949C196.028 19.521 196.68 18.9935 197.232 18.2125L198.406 19.0189C197.222 20.936 195.341 21.8945 192.762 21.8945C191.608 21.8945 190.555 21.7272 189.601 21.3924C188.658 21.0577 187.855 20.5911 187.193 19.9927C186.531 19.3942 186.024 18.6892 185.673 17.8778C185.322 17.0663 185.146 16.1939 185.146 15.2608C185.146 14.0334 185.437 12.8973 186.019 11.8526C186.611 10.8078 187.454 9.97604 188.548 9.35729C189.641 8.73855 190.891 8.42917 192.295 8.42917C193.67 8.42917 194.829 8.7284 195.772 9.32686C196.726 9.92532 197.428 10.7013 197.88 11.6548C198.331 12.6083 198.557 13.6226 198.557 14.6978ZM194.824 13.298C194.824 10.9853 193.921 9.82896 192.115 9.82896C191.242 9.82896 190.57 10.1485 190.098 10.7875C189.636 11.4265 189.381 12.2634 189.33 13.298H194.824Z" fill="white"/>
<path d="M200.529 8.93127H215.49L215.625 14.287H214.346C214.165 13.4349 213.974 12.7655 213.774 12.2786C213.583 11.7917 213.347 11.4265 213.066 11.1831C212.785 10.9295 212.439 10.7723 212.028 10.7114C211.626 10.6506 211.125 10.6201 210.523 10.6201H209.951V17.5582C209.951 18.3799 210.096 18.9935 210.387 19.3993C210.528 19.6021 210.753 19.7543 211.064 19.8557C211.386 19.947 211.707 19.9927 212.028 19.9927V21.3924H203.99V19.9927C204.311 19.9927 204.628 19.947 204.939 19.8557C205.26 19.7543 205.49 19.6021 205.631 19.3993C205.922 18.9935 206.067 18.3799 206.067 17.5582V10.6201H205.495C204.893 10.6201 204.387 10.6506 203.975 10.7114C203.574 10.7723 203.233 10.9295 202.952 11.1831C202.671 11.4265 202.43 11.7917 202.229 12.2786C202.039 12.7655 201.853 13.4349 201.672 14.287H200.393L200.529 8.93127Z" fill="white"/>
<path d="M233.717 13.937C234.299 13.937 234.851 13.9878 235.372 14.0892C235.904 14.1906 236.371 14.3631 236.772 14.6065C237.173 14.8499 237.49 15.1745 237.72 15.5803C237.961 15.9759 238.082 16.4729 238.082 17.0714C238.082 17.9234 237.871 18.6588 237.449 19.2775C237.028 19.8861 236.476 20.3832 235.794 20.7686C235.111 21.1541 234.339 21.4381 233.476 21.6207C232.623 21.8033 231.76 21.8945 230.887 21.8945C229.994 21.8945 229.201 21.8388 228.509 21.7272C227.817 21.6257 227.23 21.4837 226.748 21.3012C226.266 21.1084 225.9 20.8853 225.649 20.6317C225.398 20.368 225.273 20.089 225.273 19.7949C225.273 19.4094 225.413 19.1102 225.694 18.8972C225.975 18.6842 226.397 18.5777 226.959 18.5777C227.4 18.5777 227.761 18.6639 228.042 18.8363C228.323 18.9986 228.574 19.2471 228.795 19.5818C229.026 19.9267 229.327 20.1651 229.698 20.297C230.069 20.4288 230.546 20.4948 231.128 20.4948C231.459 20.4948 231.795 20.439 232.136 20.3274C232.487 20.2158 232.799 20.0434 233.069 19.8101C233.35 19.5666 233.576 19.2573 233.747 18.882C233.927 18.5066 234.018 18.0603 234.018 17.543C234.018 16.7417 233.842 16.128 233.491 15.702C233.14 15.2658 232.663 15.0477 232.061 15.0477C231.86 15.0477 231.65 15.0832 231.429 15.1543C231.218 15.2151 231.012 15.3165 230.812 15.4586C230.481 15.6919 230.175 15.8085 229.894 15.8085C229.663 15.8085 229.477 15.7426 229.337 15.6107C229.196 15.4687 229.126 15.3368 229.126 15.2151C229.126 15.134 229.136 15.063 229.156 15.0021C229.186 14.9412 229.241 14.8804 229.322 14.8195C229.412 14.7587 229.537 14.6927 229.698 14.6217C229.859 14.5406 230.074 14.4391 230.345 14.3174C230.947 14.0537 231.469 13.8001 231.911 13.5567C232.352 13.3132 232.713 13.0698 232.994 12.8263C233.285 12.5829 233.501 12.3395 233.641 12.096C233.782 11.8526 233.852 11.599 233.852 11.3353C233.852 11.0512 233.792 10.8129 233.672 10.6201C233.561 10.4173 233.406 10.2601 233.205 10.1485C233.004 10.0369 232.768 9.95575 232.497 9.90504C232.227 9.85432 231.941 9.82896 231.64 9.82896C230.857 9.82896 230.245 9.92025 229.803 10.1028C229.362 10.2753 229.141 10.539 229.141 10.894C229.141 10.9955 229.156 11.0867 229.186 11.1679C229.226 11.249 229.266 11.3302 229.307 11.4113C229.347 11.4925 229.382 11.5787 229.412 11.67C229.452 11.7511 229.472 11.8424 229.472 11.9439C229.472 12.0352 229.442 12.1264 229.382 12.2177C229.332 12.309 229.241 12.3952 229.111 12.4764C228.981 12.5575 228.81 12.6235 228.599 12.6742C228.389 12.7249 228.128 12.7503 227.817 12.7503C227.455 12.7503 227.159 12.7046 226.929 12.6133C226.708 12.5119 226.532 12.3952 226.402 12.2634C226.271 12.1214 226.181 11.9743 226.131 11.8221C226.081 11.67 226.056 11.5331 226.056 11.4113C226.056 10.9549 226.201 10.5441 226.492 10.1789C226.793 9.81375 227.209 9.50437 227.741 9.25079C228.273 8.98706 228.9 8.78926 229.623 8.6574C230.355 8.51539 231.158 8.44439 232.031 8.44439C233.004 8.44439 233.837 8.50525 234.529 8.62697C235.232 8.74869 235.804 8.9262 236.245 9.1595C236.687 9.38265 237.008 9.65652 237.209 9.98111C237.419 10.3057 237.525 10.6658 237.525 11.0614C237.525 11.4468 237.414 11.7968 237.194 12.1112C236.983 12.4257 236.702 12.7046 236.351 12.9481C235.999 13.1915 235.593 13.3944 235.131 13.5567C234.67 13.719 234.198 13.8457 233.717 13.937Z" fill="white"/>
<path d="M259.831 20.3578C259.831 20.4998 259.816 20.7078 259.786 20.9816C259.765 21.2555 259.715 21.6207 259.635 22.0771C259.555 22.5336 259.434 23.0813 259.274 23.7204C259.123 24.3695 258.918 25.1252 258.657 25.9874H257.693C257.493 25.3179 257.322 24.7296 257.182 24.2225C257.051 23.7254 256.941 23.2943 256.851 22.9292C256.76 22.5742 256.69 22.2698 256.64 22.0163C256.6 21.7728 256.57 21.5649 256.549 21.3924H242.341C242.321 21.5649 242.286 21.7728 242.236 22.0163C242.186 22.2698 242.115 22.5792 242.025 22.9444C241.935 23.3095 241.819 23.7406 241.679 24.2377C241.548 24.7347 241.388 25.3179 241.197 25.9874H240.234C239.973 25.1252 239.767 24.3695 239.617 23.7204C239.466 23.0813 239.346 22.5336 239.256 22.0771C239.175 21.6207 239.12 21.2555 239.09 20.9816C239.07 20.7078 239.06 20.4998 239.06 20.3578C239.06 20.2564 239.1 20.1702 239.18 20.0992C239.261 20.0282 239.381 19.9927 239.542 19.9927H241.423C242.236 19.9318 242.928 19.7847 243.5 19.5514C244.072 19.3181 244.539 18.9885 244.9 18.5624C245.261 18.1263 245.522 17.5937 245.682 16.9648C245.853 16.3258 245.938 15.5701 245.938 14.6978C245.938 14.2616 245.933 13.9218 245.923 13.6784C245.923 13.4349 245.913 13.2219 245.893 13.0393C245.883 12.8568 245.868 12.6793 245.848 12.5068C245.828 12.3344 245.798 12.1011 245.758 11.8069C245.718 11.5128 245.652 11.2744 245.562 11.0918C245.482 10.8991 245.351 10.752 245.171 10.6506C245 10.539 244.774 10.4629 244.493 10.4224C244.212 10.3716 243.856 10.3412 243.425 10.3311V8.93127H259.183V10.3311C258.692 10.3412 258.3 10.3818 258.009 10.4528C257.718 10.5136 257.493 10.6252 257.332 10.7875C257.182 10.9397 257.081 11.1476 257.031 11.4113C256.991 11.6751 256.971 12.0047 256.971 12.4003V18.532C256.971 18.9885 257.116 19.3435 257.407 19.5971C257.698 19.8506 258.235 19.9825 259.018 19.9927H259.349C259.51 19.9927 259.63 20.0282 259.71 20.0992C259.791 20.1702 259.831 20.2564 259.831 20.3578ZM249.219 11.2288C249.219 11.3403 249.255 11.6801 249.325 12.2482C249.395 12.8061 249.43 13.6226 249.43 14.6978C249.43 15.3165 249.39 15.8846 249.31 16.4019C249.24 16.9192 249.109 17.3959 248.918 17.8321C248.738 18.2683 248.492 18.6689 248.181 19.0341C247.87 19.3891 247.484 19.7086 247.022 19.9927H250.499C251.071 19.9927 251.527 19.9673 251.869 19.9166C252.21 19.8557 252.471 19.7644 252.651 19.6427C252.832 19.521 252.947 19.3688 252.997 19.1863C253.058 19.0037 253.088 18.7856 253.088 18.532V11.8069C253.088 11.3099 252.962 10.9397 252.711 10.6962C252.471 10.4528 252.009 10.3311 251.327 10.3311H250.83C250.248 10.3311 249.832 10.4071 249.581 10.5593C249.34 10.7013 249.219 10.9244 249.219 11.2288Z" fill="white"/>
<path d="M276.011 15.1238C276.011 16.5033 275.68 17.7053 275.017 18.7298C274.355 19.7543 273.457 20.5404 272.323 21.0881C271.199 21.6257 269.965 21.8945 268.621 21.8945C267.356 21.8945 266.157 21.646 265.023 21.149C263.9 20.652 262.976 19.8963 262.254 18.882C261.542 17.8676 261.185 16.625 261.185 15.1543C261.185 12.9531 261.928 11.2845 263.413 10.1485C264.898 9.00227 266.664 8.42917 268.711 8.42917C270.236 8.42917 271.551 8.73347 272.654 9.34208C273.758 9.95068 274.591 10.7672 275.153 11.7917C275.725 12.8162 276.011 13.9269 276.011 15.1238ZM271.857 15.0325C271.857 13.3081 271.631 12.0098 271.179 11.1375C270.728 10.2651 269.85 9.82896 268.545 9.82896C267.713 9.82896 267.06 10.0217 266.589 10.4071C266.127 10.7824 265.801 11.3708 265.61 12.1721C265.43 12.9633 265.339 13.9928 265.339 15.2608C265.339 16.8228 265.545 18.0857 265.957 19.0493C266.368 20.0129 267.266 20.4948 268.651 20.4948C269.564 20.4948 270.256 20.231 270.728 19.7036C271.209 19.166 271.516 18.5066 271.646 17.7256C271.786 16.9344 271.857 16.0367 271.857 15.0325Z" fill="white"/>
<path d="M294.674 14.9412C294.674 16.1889 294.383 17.3503 293.801 18.4255C293.23 19.4906 292.432 20.3375 291.408 20.9664C290.395 21.5852 289.256 21.8945 287.992 21.8945C286.406 21.8945 285.027 21.3316 283.853 20.2057V25.0745C283.853 25.6527 283.888 26.0838 283.958 26.3678C284.038 26.6619 284.209 26.88 284.47 27.022C284.741 27.1742 285.152 27.2503 285.704 27.2503H286.532V28.6501H277.787V27.2503C278.469 27.2503 278.961 27.1894 279.262 27.0677C279.563 26.9561 279.754 26.7583 279.834 26.4743C279.924 26.1903 279.969 25.7237 279.969 25.0745V13.1611C279.969 12.5728 279.924 12.1467 279.834 11.883C279.754 11.6193 279.563 11.4316 279.262 11.32C278.971 11.1983 278.479 11.1375 277.787 11.1375V9.73767L283.642 8.42917C283.762 8.83491 283.832 9.47901 283.853 10.3615C284.515 9.69203 285.197 9.20514 285.9 8.90084C286.612 8.58639 287.43 8.42917 288.353 8.42917C289.356 8.42917 290.254 8.61175 291.047 8.97692C291.84 9.34208 292.502 9.83403 293.034 10.4528C293.566 11.0614 293.972 11.7613 294.253 12.5525C294.534 13.3335 294.674 14.1298 294.674 14.9412ZM290.52 14.7891C290.52 11.6751 289.442 10.118 287.284 10.118C286.582 10.118 285.935 10.326 285.343 10.7419C284.761 11.1476 284.264 11.6446 283.853 12.2329V18.2429C284.244 18.8414 284.751 19.3181 285.373 19.6731C286.005 20.0282 286.652 20.2057 287.314 20.2057C289.452 20.2057 290.52 18.4001 290.52 14.7891Z" fill="white"/>
<path d="M312.014 15.1238C312.014 16.5033 311.682 17.7053 311.02 18.7298C310.358 19.7543 309.46 20.5404 308.326 21.0881C307.202 21.6257 305.968 21.8945 304.623 21.8945C303.359 21.8945 302.16 21.646 301.026 21.149C299.902 20.652 298.979 19.8963 298.257 18.882C297.544 17.8676 297.188 16.625 297.188 15.1543C297.188 12.9531 297.931 11.2845 299.416 10.1485C300.901 9.00227 302.667 8.42917 304.714 8.42917C306.239 8.42917 307.553 8.73347 308.657 9.34208C309.761 9.95068 310.594 10.7672 311.156 11.7917C311.728 12.8162 312.014 13.9269 312.014 15.1238ZM307.859 15.0325C307.859 13.3081 307.634 12.0098 307.182 11.1375C306.731 10.2651 305.853 9.82896 304.548 9.82896C303.715 9.82896 303.063 10.0217 302.591 10.4071C302.13 10.7824 301.804 11.3708 301.613 12.1721C301.432 12.9633 301.342 13.9928 301.342 15.2608C301.342 16.8228 301.548 18.0857 301.959 19.0493C302.371 20.0129 303.269 20.4948 304.653 20.4948C305.567 20.4948 306.259 20.231 306.731 19.7036C307.212 19.166 307.518 18.5066 307.649 17.7256C307.789 16.9344 307.859 16.0367 307.859 15.0325Z" fill="white"/>
<path d="M330.421 17.8625C330.421 18.5827 330.201 19.171 329.759 19.6275C329.328 20.0839 328.756 20.444 328.043 20.7078C327.341 20.9613 326.543 21.1389 325.65 21.2403C324.767 21.3417 323.874 21.3924 322.971 21.3924H313.955V19.9927C314.557 19.9825 315.034 19.9521 315.385 19.9014C315.746 19.8506 316.017 19.7746 316.198 19.6731C316.378 19.5616 316.494 19.4297 316.544 19.2775C316.594 19.1152 316.619 18.9175 316.619 18.6842V11.6243C316.619 11.3809 316.584 11.178 316.514 11.0157C316.444 10.8433 316.308 10.7064 316.108 10.6049C315.917 10.5035 315.646 10.4325 315.295 10.3919C314.954 10.3513 314.507 10.3311 313.955 10.3311V8.93127C314.738 8.92113 315.48 8.91098 316.183 8.90084C316.895 8.88055 317.603 8.86534 318.305 8.85519C319.007 8.84505 319.725 8.83998 320.457 8.83998C321.19 8.82984 321.978 8.82476 322.82 8.82476C323.152 8.82476 323.548 8.83491 324.009 8.85519C324.481 8.86534 324.968 8.90591 325.469 8.97692C325.971 9.03778 326.468 9.13414 326.96 9.266C327.461 9.39787 327.908 9.58045 328.299 9.81375C328.69 10.0369 329.006 10.3209 329.247 10.6658C329.498 11.0107 329.624 11.4265 329.624 11.9134C329.624 12.2989 329.558 12.6539 329.428 12.9785C329.307 13.3031 329.102 13.5871 328.811 13.8305C328.53 14.074 328.154 14.2768 327.682 14.4391C327.21 14.6014 326.628 14.7079 325.936 14.7587C326.839 14.8398 327.582 14.9666 328.164 15.139C328.746 15.3115 329.202 15.5296 329.533 15.7933C329.874 16.057 330.105 16.3613 330.226 16.7062C330.356 17.0511 330.421 17.4365 330.421 17.8625ZM325.56 12.2025C325.56 11.6548 325.304 11.2085 324.792 10.8636C324.29 10.5086 323.508 10.3311 322.444 10.3311H320.548V14.1653H322.218C323.392 14.1653 324.24 13.9928 324.762 13.648C325.294 13.3031 325.56 12.8213 325.56 12.2025ZM325.996 17.7865C325.996 17.046 325.72 16.4577 325.168 16.0215C324.617 15.5853 323.829 15.3673 322.805 15.3673H320.548V18.3494C320.548 18.6436 320.583 18.8972 320.653 19.1102C320.723 19.313 320.844 19.4804 321.014 19.6123C321.195 19.7441 321.436 19.8405 321.737 19.9014C322.038 19.9622 322.424 19.9927 322.896 19.9927C323.207 19.9927 323.543 19.9572 323.904 19.8861C324.265 19.8151 324.601 19.6934 324.913 19.521C325.224 19.3485 325.479 19.1203 325.68 18.8363C325.891 18.5523 325.996 18.2023 325.996 17.7865Z" fill="white"/>
<path d="M332.062 8.93127H340.009V10.3311C339.618 10.3311 339.302 10.3666 339.061 10.4376C338.83 10.4984 338.644 10.61 338.504 10.7723C338.373 10.9346 338.283 11.1527 338.233 11.4265C338.193 11.6903 338.173 12.0199 338.173 12.4155V14.1653H339.874C341.258 14.1653 342.462 14.2312 343.486 14.3631C344.519 14.4848 345.372 14.6927 346.045 14.9869C346.727 15.2709 347.234 15.6513 347.565 16.128C347.906 16.5946 348.076 17.1728 348.076 17.8625C348.076 18.5827 347.856 19.171 347.414 19.6275C346.983 20.0839 346.411 20.444 345.698 20.7078C344.996 20.9613 344.198 21.1389 343.305 21.2403C342.422 21.3417 341.529 21.3924 340.626 21.3924H332.062V19.9927C332.554 19.9825 332.945 19.9521 333.236 19.9014C333.537 19.8405 333.763 19.734 333.913 19.5818C334.064 19.4297 334.159 19.2116 334.199 18.9276C334.249 18.6436 334.274 18.2581 334.274 17.7712V12.5525C334.274 12.0656 334.249 11.6801 334.199 11.3961C334.159 11.1121 334.064 10.894 333.913 10.7419C333.763 10.5897 333.537 10.4883 333.236 10.4376C332.945 10.3868 332.554 10.3513 332.062 10.3311V8.93127ZM343.651 17.7865C343.651 17.046 343.375 16.4577 342.824 16.0215C342.272 15.5853 341.484 15.3673 340.461 15.3673H338.173V18.3494C338.173 18.6436 338.208 18.8972 338.278 19.1102C338.348 19.313 338.474 19.4804 338.654 19.6123C338.835 19.7441 339.076 19.8405 339.377 19.9014C339.688 19.9622 340.079 19.9927 340.551 19.9927C340.862 19.9927 341.198 19.9572 341.559 19.8861C341.921 19.8151 342.257 19.6934 342.568 19.521C342.879 19.3485 343.135 19.1203 343.335 18.8363C343.546 18.5523 343.651 18.2023 343.651 17.7865ZM357.98 21.3924H349.807V19.9927H350.244C350.826 19.9927 351.247 19.9115 351.508 19.7492C351.779 19.5869 351.945 19.3587 352.005 19.0645C352.065 18.7704 352.095 18.3393 352.095 17.7712V13.2524C352.095 12.6235 352.055 12.1772 351.975 11.9134C351.905 11.6497 351.709 11.457 351.388 11.3353C351.077 11.2135 350.55 11.1476 349.807 11.1375V9.73767L355.978 8.42917V17.7712C355.978 18.6233 356.084 19.2065 356.294 19.521C356.505 19.8354 357.067 19.9927 357.98 19.9927V21.3924Z" fill="white"/>
<path d="M380.663 21.3924H371.331V19.9927C371.943 19.9825 372.424 19.9318 372.776 19.8405C373.127 19.7492 373.393 19.6072 373.573 19.4145C373.754 19.2218 373.869 18.9732 373.92 18.6689C373.97 18.3646 374 17.9944 374.01 17.5582V12.7959L369.254 21.3924H368.411L363.549 12.7959V16.904C363.549 17.2286 363.554 17.5126 363.564 17.756C363.574 17.9995 363.589 18.2125 363.609 18.3951C363.64 18.5777 363.68 18.7399 363.73 18.882C363.78 19.024 363.845 19.1558 363.926 19.2775C364.096 19.521 364.362 19.7036 364.723 19.8253C365.084 19.9369 365.596 19.9927 366.258 19.9927V21.3924H359.365V19.9927C360.027 19.9927 360.534 19.9318 360.885 19.8101C361.246 19.6884 361.512 19.5058 361.683 19.2623C361.763 19.1406 361.828 19.0087 361.879 18.8667C361.929 18.7247 361.964 18.5624 361.984 18.3799C362.014 18.1973 362.029 17.9893 362.029 17.756C362.039 17.5126 362.044 17.2286 362.044 16.904V13.3893C362.044 12.5373 362.004 11.9084 361.924 11.5026C361.884 11.3099 361.808 11.1425 361.698 11.0005C361.598 10.8484 361.447 10.7267 361.246 10.6354C361.046 10.5339 360.79 10.4579 360.479 10.4071C360.178 10.3564 359.806 10.3311 359.365 10.3311V8.93127H366.168L370.081 15.9911L374.01 8.93127H380.663V10.3311C379.519 10.3311 378.776 10.5187 378.435 10.894C378.104 11.2592 377.938 11.883 377.938 12.7655V17.5582C377.938 17.9741 377.963 18.3342 378.014 18.6385C378.074 18.9327 378.194 19.1812 378.375 19.3841C378.565 19.5768 378.841 19.7239 379.203 19.8253C379.564 19.9267 380.05 19.9825 380.663 19.9927V21.3924Z" fill="white"/>
<path d="M407.017 10.3311C406.516 10.3513 406.119 10.3868 405.828 10.4376C405.537 10.4883 405.317 10.5897 405.166 10.7419C405.016 10.894 404.915 11.1121 404.865 11.3961C404.825 11.6801 404.805 12.0656 404.805 12.5525V17.7712C404.805 18.2581 404.825 18.6436 404.865 18.9276C404.915 19.2116 405.016 19.4297 405.166 19.5818C405.317 19.734 405.537 19.8405 405.828 19.9014C406.119 19.9521 406.516 19.9825 407.017 19.9927V21.3924H399.07V19.9927C399.462 19.9927 399.773 19.9622 400.003 19.9014C400.244 19.8304 400.43 19.7137 400.56 19.5514C400.701 19.3891 400.791 19.1761 400.831 18.9124C400.881 18.6385 400.907 18.3038 400.907 17.9082V14.0588L395.789 18.319C395.799 18.6436 395.834 18.9124 395.894 19.1254C395.965 19.3384 396.065 19.5108 396.195 19.6427C396.336 19.7644 396.522 19.8557 396.752 19.9166C396.983 19.9673 397.274 19.9927 397.625 19.9927V21.3924H389.678V19.9927C390.17 19.9825 390.561 19.9521 390.852 19.9014C391.153 19.8405 391.379 19.734 391.53 19.5818C391.68 19.4297 391.775 19.2116 391.816 18.9276C391.866 18.6436 391.891 18.2581 391.891 17.7712V12.5525C391.891 12.0656 391.866 11.6801 391.816 11.3961C391.775 11.1121 391.68 10.894 391.53 10.7419C391.379 10.5897 391.153 10.4883 390.852 10.4376C390.561 10.3868 390.17 10.3513 389.678 10.3311V8.93127H397.625V10.3311C397.234 10.3311 396.918 10.3666 396.677 10.4376C396.446 10.4984 396.261 10.61 396.12 10.7723C395.99 10.9346 395.899 11.1527 395.849 11.4265C395.809 11.6903 395.789 12.0199 395.789 12.4155V16.128L400.892 11.883C400.871 11.5888 400.826 11.3454 400.756 11.1527C400.696 10.9498 400.595 10.7875 400.455 10.6658C400.325 10.5441 400.144 10.4579 399.913 10.4071C399.692 10.3564 399.411 10.3311 399.07 10.3311V8.93127H407.017V10.3311Z" fill="white"/>
<path d="M429.73 18.3038C428.516 20.6976 426.564 21.8945 423.875 21.8945C422.621 21.8945 421.432 21.6359 420.308 21.1186C419.194 20.6013 418.296 19.8506 417.613 18.8667C416.941 17.8828 416.605 16.7316 416.605 15.4129C416.605 14.5 416.786 13.6277 417.147 12.7959C417.518 11.9641 418.05 11.2135 418.742 10.5441C419.435 9.87461 420.253 9.35729 421.196 8.99213C422.149 8.61682 423.167 8.42917 424.251 8.42917C425.636 8.42917 426.855 8.70811 427.909 9.266C428.962 9.81375 429.489 10.5745 429.489 11.5483C429.489 11.9946 429.323 12.375 428.992 12.6894C428.661 13.0038 428.28 13.1611 427.848 13.1611C427.437 13.1611 427.121 13.0647 426.9 12.872C426.679 12.6793 426.534 12.4815 426.464 12.2786C426.393 12.0757 426.293 11.7156 426.163 11.1983C426.032 10.7013 425.816 10.3513 425.515 10.1485C425.214 9.93547 424.793 9.82896 424.251 9.82896C423.338 9.82896 422.525 10.1738 421.813 10.8636C421.11 11.5432 420.759 12.8213 420.759 14.6978C420.759 15.702 420.9 16.625 421.181 17.4669C421.472 18.3088 421.923 18.9783 422.535 19.4753C423.157 19.9622 423.915 20.2057 424.808 20.2057C425.801 20.2057 426.559 19.9572 427.081 19.4601C427.603 18.9631 428.064 18.3799 428.465 17.7104L429.73 18.3038Z" fill="white"/>
<path d="M441.891 19.9927C442.283 19.9927 442.594 19.9622 442.824 19.9014C443.065 19.8304 443.251 19.7137 443.381 19.5514C443.522 19.3891 443.612 19.1761 443.652 18.9124C443.702 18.6385 443.728 18.3038 443.728 17.9082V11.8069C443.728 11.3099 443.607 10.9397 443.366 10.6962C443.125 10.4528 442.664 10.3311 441.982 10.3311H441.485C440.903 10.3311 440.486 10.4071 440.236 10.5593C439.995 10.7013 439.874 10.9244 439.874 11.2288C439.874 11.3403 439.91 11.6801 439.98 12.2482C440.05 12.8061 440.085 13.6226 440.085 14.6978C440.085 15.6006 439.995 16.478 439.814 17.33C439.644 18.1719 439.353 18.9225 438.941 19.5818C438.54 20.2412 437.998 20.7737 437.316 21.1794C436.633 21.575 435.79 21.7728 434.787 21.7728C433.503 21.7728 432.524 21.5598 431.852 21.1338C431.18 20.6976 430.844 20.0839 430.844 19.2928C430.844 18.8059 430.964 18.4356 431.205 18.1821C431.446 17.9183 431.787 17.7865 432.228 17.7865C432.58 17.7865 432.881 17.8778 433.131 18.0603C433.382 18.2429 433.508 18.5421 433.508 18.958C433.508 19.1305 433.483 19.2928 433.432 19.4449C433.392 19.5869 433.372 19.7036 433.372 19.7949C433.372 20.2513 433.578 20.4795 433.989 20.4795C434.411 20.4795 434.782 20.3274 435.103 20.0231C435.434 19.7086 435.71 19.2877 435.931 18.7602C436.152 18.2328 436.317 17.6191 436.428 16.9192C436.538 16.2193 436.593 15.4788 436.593 14.6978C436.593 14.2616 436.588 13.9218 436.578 13.6784C436.578 13.4349 436.568 13.2219 436.548 13.0393C436.538 12.8568 436.523 12.6793 436.503 12.5068C436.483 12.3344 436.453 12.1011 436.413 11.8069C436.372 11.5128 436.307 11.2744 436.217 11.0918C436.137 10.8991 436.006 10.752 435.826 10.6506C435.655 10.539 435.429 10.4629 435.148 10.4224C434.867 10.3716 434.511 10.3412 434.08 10.3311V8.93127H449.838V10.3311C449.347 10.3412 448.955 10.3818 448.664 10.4528C448.373 10.5136 448.148 10.6252 447.987 10.7875C447.837 10.9397 447.736 11.1476 447.686 11.4113C447.646 11.6751 447.626 12.0047 447.626 12.4003V17.7712C447.626 18.2581 447.646 18.6436 447.686 18.9276C447.736 19.2116 447.837 19.4297 447.987 19.5818C448.138 19.734 448.358 19.8405 448.649 19.9014C448.94 19.9521 449.337 19.9825 449.838 19.9927V21.3924H441.891V19.9927Z" fill="white"/>
<path d="M467.208 18.1821C467.208 18.953 467.052 19.6123 466.741 20.16C466.43 20.6976 466.008 21.0983 465.477 21.362C464.955 21.6156 464.363 21.7424 463.701 21.7424C462.858 21.7424 462.155 21.5446 461.593 21.149C461.031 20.7433 460.695 20.2615 460.585 19.7036C458.909 21.0628 457.224 21.7424 455.528 21.7424C454.444 21.7424 453.556 21.4787 452.864 20.9512C452.171 20.4136 451.825 19.7086 451.825 18.8363C451.825 18.1161 452.011 17.4669 452.382 16.8888C452.753 16.3005 453.295 15.7781 454.008 15.3216C454.73 14.8652 455.588 14.4645 456.581 14.1196C457.575 13.7646 458.814 13.3944 460.299 13.0089V12.1417C460.299 11.4215 460.128 10.8585 459.787 10.4528C459.456 10.0369 458.839 9.82896 457.936 9.82896C457.163 9.82896 456.606 9.99126 456.265 10.3158C455.924 10.6404 455.698 11.1324 455.588 11.7917C455.508 12.2583 455.357 12.6438 455.136 12.9481C454.926 13.2422 454.479 13.3893 453.797 13.3893C453.375 13.3893 453.004 13.2676 452.683 13.0241C452.362 12.7807 452.201 12.4206 452.201 11.9439C452.201 11.0005 452.708 10.1789 453.722 9.47901C454.735 8.77912 456.29 8.42917 458.387 8.42917C460.595 8.42917 462.11 8.80448 462.933 9.55509C463.766 10.3057 464.182 11.3099 464.182 12.5677V17.3757C464.182 17.9843 464.197 18.4306 464.227 18.7146C464.258 18.9986 464.338 19.2167 464.468 19.3688C464.609 19.5108 464.824 19.5818 465.115 19.5818C465.376 19.5818 465.602 19.4449 465.793 19.171C465.993 18.8972 466.094 18.5675 466.094 18.1821H467.208ZM460.299 18.3038V14.5304C458.393 15.139 457.178 15.7375 456.657 16.3258C456.145 16.904 455.889 17.472 455.889 18.0299C455.889 18.4965 456.029 18.8718 456.31 19.1558C456.591 19.4398 456.988 19.5818 457.499 19.5818C458.051 19.5818 458.538 19.4652 458.959 19.2319C459.381 18.9986 459.827 18.6892 460.299 18.3038Z" fill="white"/>
<path d="M487.978 20.3578C487.978 20.4998 487.963 20.7078 487.933 20.9816C487.913 21.2555 487.863 21.6207 487.783 22.0771C487.702 22.5336 487.582 23.0813 487.421 23.7204C487.271 24.3695 487.065 25.1252 486.804 25.9874H485.841C485.64 25.3179 485.47 24.7296 485.329 24.2225C485.199 23.7254 485.089 23.2943 484.998 22.9292C484.908 22.5742 484.838 22.2698 484.787 22.0163C484.747 21.7728 484.717 21.5649 484.697 21.3924H470.489C470.469 21.5649 470.434 21.7728 470.383 22.0163C470.333 22.2698 470.263 22.5792 470.173 22.9444C470.082 23.3095 469.967 23.7406 469.826 24.2377C469.696 24.7347 469.535 25.3179 469.345 25.9874H468.382C468.121 25.1252 467.915 24.3695 467.764 23.7204C467.614 23.0813 467.494 22.5336 467.403 22.0771C467.323 21.6207 467.268 21.2555 467.238 20.9816C467.218 20.7078 467.208 20.4998 467.208 20.3578C467.208 20.2564 467.248 20.1702 467.328 20.0992C467.408 20.0282 467.529 19.9927 467.689 19.9927H469.571C470.383 19.9318 471.076 19.7847 471.648 19.5514C472.22 19.3181 472.686 18.9885 473.047 18.5624C473.409 18.1263 473.67 17.5937 473.83 16.9648C474.001 16.3258 474.086 15.5701 474.086 14.6978C474.086 14.2616 474.081 13.9218 474.071 13.6784C474.071 13.4349 474.061 13.2219 474.041 13.0393C474.031 12.8568 474.016 12.6793 473.996 12.5068C473.976 12.3344 473.946 12.1011 473.905 11.8069C473.865 11.5128 473.8 11.2744 473.71 11.0918C473.629 10.8991 473.499 10.752 473.318 10.6506C473.148 10.539 472.922 10.4629 472.641 10.4224C472.36 10.3716 472.004 10.3412 471.572 10.3311V8.93127H487.331V10.3311C486.839 10.3412 486.448 10.3818 486.157 10.4528C485.866 10.5136 485.64 10.6252 485.48 10.7875C485.329 10.9397 485.229 11.1476 485.179 11.4113C485.139 11.6751 485.119 12.0047 485.119 12.4003V18.532C485.119 18.9885 485.264 19.3435 485.555 19.5971C485.846 19.8506 486.383 19.9825 487.166 19.9927H487.497C487.657 19.9927 487.778 20.0282 487.858 20.0992C487.938 20.1702 487.978 20.2564 487.978 20.3578ZM477.367 11.2288C477.367 11.3403 477.402 11.6801 477.473 12.2482C477.543 12.8061 477.578 13.6226 477.578 14.6978C477.578 15.3165 477.538 15.8846 477.457 16.4019C477.387 16.9192 477.257 17.3959 477.066 17.8321C476.886 18.2683 476.64 18.6689 476.329 19.0341C476.018 19.3891 475.631 19.7086 475.17 19.9927H478.647C479.219 19.9927 479.675 19.9673 480.016 19.9166C480.357 19.8557 480.618 19.7644 480.799 19.6427C480.979 19.521 481.095 19.3688 481.145 19.1863C481.205 19.0037 481.235 18.7856 481.235 18.532V11.8069C481.235 11.3099 481.11 10.9397 480.859 10.6962C480.618 10.4528 480.157 10.3311 479.474 10.3311H478.978C478.396 10.3311 477.979 10.4071 477.728 10.5593C477.488 10.7013 477.367 10.9244 477.367 11.2288Z" fill="white"/>
<path d="M494.827 17.9082C494.827 18.3038 494.847 18.6385 494.887 18.9124C494.937 19.1761 495.027 19.3891 495.158 19.5514C495.298 19.7137 495.484 19.8304 495.715 19.9014C495.956 19.9622 496.272 19.9927 496.663 19.9927V21.3924H488.716V19.9927C489.208 19.9825 489.599 19.9521 489.89 19.9014C490.191 19.8405 490.417 19.734 490.567 19.5818C490.718 19.4297 490.813 19.2116 490.853 18.9276C490.903 18.6436 490.928 18.2581 490.928 17.7712V12.5525C490.928 12.0656 490.903 11.6801 490.853 11.3961C490.813 11.1121 490.718 10.894 490.567 10.7419C490.417 10.5897 490.191 10.4883 489.89 10.4376C489.599 10.3868 489.208 10.3513 488.716 10.3311V8.93127H496.663V10.3311C496.272 10.3311 495.956 10.3666 495.715 10.4376C495.484 10.4984 495.298 10.61 495.158 10.7723C495.027 10.9346 494.937 11.1527 494.887 11.4265C494.847 11.6903 494.827 12.0199 494.827 12.4155V14.4087L500.32 10.1028C500.471 9.98111 500.652 9.84418 500.862 9.69203C501.073 9.53987 501.294 9.39787 501.525 9.266C501.755 9.13414 501.991 9.02256 502.232 8.93127C502.473 8.83998 502.704 8.79433 502.924 8.79433C503.306 8.79433 503.587 8.9262 503.767 9.18993C503.948 9.44351 504.038 9.73767 504.038 10.0724C504.038 10.2043 504.008 10.3513 503.948 10.5136C503.898 10.6759 503.817 10.8281 503.707 10.9701C503.607 11.102 503.481 11.2135 503.331 11.3048C503.18 11.3961 503.015 11.4418 502.834 11.4418C502.613 11.4418 502.403 11.4215 502.202 11.3809C502.011 11.3302 501.816 11.3048 501.615 11.3048C501.444 11.3048 501.259 11.3353 501.058 11.3961C500.867 11.457 500.657 11.5787 500.426 11.7613L499.056 12.8568C499.648 14.003 500.175 14.9767 500.637 15.7781C501.098 16.5794 501.504 17.2489 501.856 17.7865C502.217 18.3139 502.523 18.7298 502.774 19.0341C503.035 19.3384 503.25 19.5666 503.421 19.7188C503.602 19.8709 503.747 19.9673 503.857 20.0079C503.968 20.0484 504.053 20.0687 504.113 20.0687C504.224 20.0687 504.309 20.0535 504.369 20.0231L504.49 21.3924C504.259 21.5142 504.013 21.6055 503.752 21.6663C503.491 21.7373 503.155 21.7728 502.744 21.7728C502.342 21.7728 501.966 21.7424 501.615 21.6815C501.274 21.6308 500.943 21.5243 500.621 21.362C500.3 21.1896 499.979 20.9563 499.658 20.6621C499.337 20.3578 498.996 19.9622 498.635 19.4753C498.273 18.9783 497.882 18.3799 497.461 17.68C497.039 16.9801 496.568 16.1483 496.046 15.1847L494.827 16.128V17.9082Z" fill="white"/>
<path d="M523.063 10.3311C522.561 10.3513 522.165 10.3868 521.874 10.4376C521.583 10.4883 521.362 10.5897 521.212 10.7419C521.061 10.894 520.961 11.1121 520.911 11.3961C520.87 11.6801 520.85 12.0656 520.85 12.5525V17.7712C520.85 18.2581 520.87 18.6436 520.911 18.9276C520.961 19.2116 521.061 19.4297 521.212 19.5818C521.362 19.734 521.583 19.8405 521.874 19.9014C522.165 19.9521 522.561 19.9825 523.063 19.9927V21.3924H515.116V19.9927C515.507 19.9927 515.818 19.9622 516.049 19.9014C516.29 19.8304 516.475 19.7137 516.606 19.5514C516.746 19.3891 516.837 19.1761 516.877 18.9124C516.927 18.6385 516.952 18.3038 516.952 17.9082V14.0588L511.835 18.319C511.845 18.6436 511.88 18.9124 511.94 19.1254C512.01 19.3384 512.111 19.5108 512.241 19.6427C512.382 19.7644 512.567 19.8557 512.798 19.9166C513.029 19.9673 513.32 19.9927 513.671 19.9927V21.3924H505.724V19.9927C506.216 19.9825 506.607 19.9521 506.898 19.9014C507.199 19.8405 507.425 19.734 507.575 19.5818C507.726 19.4297 507.821 19.2116 507.861 18.9276C507.911 18.6436 507.936 18.2581 507.936 17.7712V12.5525C507.936 12.0656 507.911 11.6801 507.861 11.3961C507.821 11.1121 507.726 10.894 507.575 10.7419C507.425 10.5897 507.199 10.4883 506.898 10.4376C506.607 10.3868 506.216 10.3513 505.724 10.3311V8.93127H513.671V10.3311C513.28 10.3311 512.964 10.3666 512.723 10.4376C512.492 10.4984 512.306 10.61 512.166 10.7723C512.035 10.9346 511.945 11.1527 511.895 11.4265C511.855 11.6903 511.835 12.0199 511.835 12.4155V16.128L516.937 11.883C516.917 11.5888 516.872 11.3454 516.802 11.1527C516.741 10.9498 516.641 10.7875 516.501 10.6658C516.37 10.5441 516.19 10.4579 515.959 10.4071C515.738 10.3564 515.457 10.3311 515.116 10.3311V8.93127H523.063V10.3311Z" fill="white"/>
<path d="M545.655 21.3924H536.323V19.9927C536.935 19.9825 537.417 19.9318 537.768 19.8405C538.119 19.7492 538.385 19.6072 538.566 19.4145C538.746 19.2218 538.862 18.9732 538.912 18.6689C538.962 18.3646 538.992 17.9944 539.002 17.5582V12.7959L534.246 21.3924H533.403L528.542 12.7959V16.904C528.542 17.2286 528.547 17.5126 528.557 17.756C528.567 17.9995 528.582 18.2125 528.602 18.3951C528.632 18.5777 528.672 18.7399 528.722 18.882C528.772 19.024 528.838 19.1558 528.918 19.2775C529.089 19.521 529.354 19.7036 529.716 19.8253C530.077 19.9369 530.589 19.9927 531.251 19.9927V21.3924H524.357V19.9927C525.02 19.9927 525.526 19.9318 525.878 19.8101C526.239 19.6884 526.505 19.5058 526.675 19.2623C526.756 19.1406 526.821 19.0087 526.871 18.8667C526.921 18.7247 526.956 18.5624 526.976 18.3799C527.006 18.1973 527.021 17.9893 527.021 17.756C527.031 17.5126 527.036 17.2286 527.036 16.904V13.3893C527.036 12.5373 526.996 11.9084 526.916 11.5026C526.876 11.3099 526.801 11.1425 526.69 11.0005C526.59 10.8484 526.439 10.7267 526.239 10.6354C526.038 10.5339 525.782 10.4579 525.471 10.4071C525.17 10.3564 524.799 10.3311 524.357 10.3311V8.93127H531.161L535.074 15.9911L539.002 8.93127H545.655V10.3311C544.511 10.3311 543.768 10.5187 543.427 10.894C543.096 11.2592 542.931 11.883 542.931 12.7655V17.5582C542.931 17.9741 542.956 18.3342 543.006 18.6385C543.066 18.9327 543.187 19.1812 543.367 19.3841C543.558 19.5768 543.834 19.7239 544.195 19.8253C544.556 19.9267 545.043 19.9825 545.655 19.9927V21.3924Z" fill="white"/>
<path d="M552.639 2.51049C552.639 2.82494 552.629 3.10895 552.609 3.36254C552.589 3.61612 552.548 4.01679 552.488 4.56453L551.314 14.5304H549.96L548.786 4.56453C548.685 3.67191 548.635 2.98723 548.635 2.51049C548.635 1.73959 548.836 1.17156 549.237 0.806401C549.639 0.441238 550.095 0.258657 550.607 0.258657C551.189 0.258657 551.67 0.44631 552.052 0.821616C552.443 1.18678 552.639 1.74974 552.639 2.51049ZM553 19.521C553 20.1905 552.769 20.7534 552.308 21.2099C551.846 21.6663 551.289 21.8945 550.637 21.8945C549.995 21.8945 549.443 21.6663 548.981 21.2099C548.52 20.7534 548.289 20.1905 548.289 19.521C548.289 18.8515 548.515 18.2835 548.966 17.8169C549.418 17.3503 549.975 17.117 550.637 17.117C551.299 17.117 551.856 17.3503 552.308 17.8169C552.769 18.2733 553 18.8414 553 19.521Z" fill="white"/>
</svg>
