<svg width="188" height="11" viewBox="0 0 188 11" fill="none" xmlns="http://www.w3.org/2000/svg">
<path d="M6.78239 6.08085C6.78239 6.47426 6.68375 6.79692 6.48646 7.04884C6.28918 7.2973 6.03918 7.4871 5.73645 7.61824C5.43372 7.74592 5.1378 7.83047 4.84868 7.87188C4.55956 7.91329 4.28064 7.934 4.01193 7.934H0.54248V7.45777C0.838404 7.45777 1.0561 7.42671 1.19555 7.36459C1.33841 7.30248 1.43025 7.21448 1.47107 7.1006C1.51529 6.98672 1.5374 6.8297 1.5374 6.62955V2.19857C1.5374 1.88798 1.47447 1.6723 1.34862 1.55152C1.22276 1.43074 0.954052 1.37035 0.54248 1.37035V0.883767C1.03569 0.873414 1.50508 0.863061 1.95067 0.852708C2.39626 0.842356 2.76191 0.835454 3.04763 0.832003C3.33675 0.825101 3.53913 0.82165 3.65478 0.82165H3.84356C4.19731 0.82165 4.56636 0.85961 4.95072 0.93553C5.33848 1.008 5.69053 1.17537 6.00686 1.43764C6.3266 1.69991 6.48646 2.07778 6.48646 2.57127C6.48646 2.94051 6.35721 3.258 6.0987 3.52372C5.84019 3.78944 5.41672 4.00857 4.82827 4.18112C5.22964 4.25359 5.57828 4.3761 5.87421 4.54864C6.17353 4.71774 6.39973 4.93342 6.55279 5.19569C6.70586 5.45796 6.78239 5.75301 6.78239 6.08085ZM5.02725 2.61268C5.02725 2.37111 4.96943 2.16061 4.85378 1.98116C4.74154 1.79826 4.57316 1.65677 4.34867 1.5567C4.12758 1.45317 3.85546 1.4014 3.53233 1.4014H2.99661V3.91713H3.41498C3.96261 3.91713 4.36738 3.79979 4.62929 3.56513C4.8946 3.33047 5.02725 3.01298 5.02725 2.61268ZM5.21603 5.99285C5.21603 5.51663 5.09358 5.14738 4.84868 4.88511C4.60718 4.61939 4.26534 4.48653 3.82315 4.48653H2.99661V6.17403V6.31379C2.99661 6.56916 3.01191 6.76931 3.04253 6.91425C3.07314 7.05574 3.14967 7.16617 3.27212 7.24554C3.39457 7.32146 3.58845 7.35942 3.85376 7.35942C4.20751 7.35942 4.52214 7.25071 4.79766 7.03331C5.07657 6.8159 5.21603 6.46908 5.21603 5.99285Z" fill="#1F316A"/>
<path d="M12.8131 6.84178C12.8131 7.10405 12.7604 7.32836 12.6549 7.51471C12.5495 7.69761 12.4066 7.83392 12.2264 7.92364C12.0495 8.00992 11.8488 8.05305 11.6243 8.05305C11.3386 8.05305 11.1005 7.98576 10.91 7.85117C10.7195 7.71314 10.6056 7.54922 10.5682 7.35942C10.0001 7.82184 9.42869 8.05305 8.85385 8.05305C8.4865 8.05305 8.18547 7.96333 7.95078 7.78388C7.71608 7.60098 7.59873 7.36114 7.59873 7.06436C7.59873 6.81935 7.66165 6.59849 7.78751 6.40179C7.91336 6.20163 8.09704 6.02391 8.33854 5.86862C8.58344 5.71333 8.87426 5.57702 9.211 5.45969C9.54774 5.3389 9.96782 5.21295 10.4712 5.08181V4.78676C10.4712 4.54174 10.4134 4.35022 10.2978 4.21218C10.1855 4.07069 9.97632 3.99995 9.67019 3.99995C9.40829 3.99995 9.21951 4.05516 9.10386 4.16559C8.98821 4.27602 8.91168 4.44339 8.87426 4.6677C8.84705 4.82644 8.79603 4.95758 8.7212 5.06111C8.64977 5.16118 8.4984 5.21122 8.26711 5.21122C8.12425 5.21122 7.9984 5.16981 7.88955 5.08699C7.7807 5.00417 7.72628 4.88166 7.72628 4.71946C7.72628 4.39853 7.89805 4.119 8.2416 3.88089C8.58514 3.64278 9.11236 3.52372 9.82326 3.52372C10.5716 3.52372 11.0852 3.6514 11.3641 3.90677C11.6464 4.16214 11.7876 4.50378 11.7876 4.9317V6.56743C11.7876 6.77449 11.7927 6.92633 11.8029 7.02295C11.8131 7.11958 11.8403 7.19377 11.8845 7.24554C11.9321 7.29385 12.0053 7.31801 12.1039 7.31801C12.1923 7.31801 12.2689 7.27142 12.3335 7.17824C12.4015 7.08507 12.4355 6.97291 12.4355 6.84178H12.8131ZM10.4712 6.88319V5.59945C9.82496 5.8065 9.41339 6.01011 9.23651 6.21026C9.06304 6.40696 8.9763 6.60022 8.9763 6.79002C8.9763 6.94876 9.02392 7.07644 9.11916 7.17307C9.2144 7.26969 9.34876 7.31801 9.52223 7.31801C9.70931 7.31801 9.87428 7.27832 10.0171 7.19895C10.16 7.11958 10.3114 7.01433 10.4712 6.88319Z" fill="#1F316A"/>
<path d="M16.0836 3.69454H18.5479V4.17077C18.4152 4.17077 18.3115 4.18285 18.2367 4.207C18.1618 4.22771 18.104 4.26567 18.0632 4.32088C18.0258 4.3761 18.002 4.45029 17.9918 4.54347C17.9816 4.63319 17.9765 4.74535 17.9765 4.87993V6.65025C17.9765 6.78484 17.9833 6.89872 17.9969 6.99189C18.0139 7.08162 18.0445 7.15409 18.0887 7.2093C18.1363 7.26452 18.1993 7.3042 18.2775 7.32836C18.3591 7.34907 18.4663 7.35942 18.5989 7.35942H18.9051C19.0377 7.35942 19.1432 7.34907 19.2214 7.32836C19.303 7.3042 19.3659 7.26452 19.4102 7.2093C19.4578 7.15409 19.4884 7.08162 19.502 6.99189C19.519 6.89872 19.5275 6.78484 19.5275 6.65025V4.87993C19.5275 4.74535 19.5224 4.63319 19.5122 4.54347C19.502 4.45029 19.4765 4.3761 19.4357 4.32088C19.3983 4.26567 19.3421 4.22771 19.2673 4.207C19.1925 4.18285 19.0887 4.17077 18.9561 4.17077V3.69454H21.599V4.17077C21.4289 4.17767 21.2946 4.18975 21.1959 4.207C21.0973 4.22426 21.0224 4.25877 20.9714 4.31053C20.9204 4.36229 20.8864 4.43649 20.8694 4.53311C20.8558 4.62974 20.849 4.76088 20.849 4.92652V6.70202C20.849 6.86766 20.8558 6.9988 20.8694 7.09542C20.8864 7.19205 20.9204 7.26624 20.9714 7.31801C21.0224 7.36977 21.0973 7.40601 21.1959 7.42671C21.2946 7.44397 21.4289 7.45432 21.599 7.45777V7.934H13.0325V7.45777C13.1992 7.45432 13.3318 7.44397 13.4305 7.42671C13.5325 7.40601 13.609 7.36977 13.6601 7.31801C13.7111 7.26624 13.7434 7.19205 13.757 7.09542C13.774 6.9988 13.7825 6.86766 13.7825 6.70202V4.92652C13.7825 4.76088 13.774 4.62974 13.757 4.53311C13.7434 4.43649 13.7111 4.36229 13.6601 4.31053C13.609 4.25877 13.5325 4.22426 13.4305 4.207C13.3318 4.18975 13.1992 4.17767 13.0325 4.17077V3.69454H15.6754V4.17077C15.5427 4.17077 15.439 4.18285 15.3642 4.207C15.2893 4.22771 15.2315 4.26567 15.1907 4.32088C15.1533 4.3761 15.1295 4.45029 15.1193 4.54347C15.1091 4.63319 15.104 4.74535 15.104 4.87993V6.65025C15.104 6.78484 15.1108 6.89872 15.1244 6.99189C15.1414 7.08162 15.172 7.15409 15.2162 7.2093C15.2638 7.26452 15.3268 7.3042 15.405 7.32836C15.4866 7.34907 15.5938 7.35942 15.7264 7.35942H16.0326C16.1652 7.35942 16.2707 7.34907 16.3489 7.32836C16.4305 7.3042 16.4934 7.26452 16.5377 7.2093C16.5853 7.15409 16.6159 7.08162 16.6295 6.99189C16.6465 6.89872 16.655 6.78484 16.655 6.65025V4.87993C16.655 4.74535 16.6499 4.63319 16.6397 4.54347C16.6295 4.45029 16.604 4.3761 16.5632 4.32088C16.5258 4.26567 16.4696 4.22771 16.3948 4.207C16.32 4.18285 16.2162 4.17077 16.0836 4.17077V3.69454Z" fill="#1F316A"/>
<path d="M29.3032 6.88319C28.8916 7.69761 28.23 8.10482 27.3185 8.10482C26.8933 8.10482 26.4902 8.01682 26.1093 7.84082C25.7317 7.66482 25.4273 7.40946 25.196 7.07472C24.9681 6.73998 24.8541 6.3483 24.8541 5.89968C24.8541 5.5891 24.9154 5.29232 25.0378 5.00934C25.1637 4.72637 25.3439 4.471 25.5786 4.24324C25.8133 4.01548 26.0906 3.83948 26.4103 3.71525C26.7334 3.58756 27.0787 3.52372 27.446 3.52372C27.9154 3.52372 28.3287 3.61862 28.6858 3.80842C29.043 3.99477 29.2216 4.25359 29.2216 4.58488C29.2216 4.73672 29.1654 4.86613 29.0532 4.97311C28.9409 5.08009 28.8117 5.13357 28.6654 5.13357C28.526 5.13357 28.4188 5.10079 28.344 5.03522C28.2692 4.96966 28.2198 4.90236 28.196 4.83334C28.1722 4.76433 28.1382 4.64182 28.094 4.46582C28.0498 4.29673 27.9766 4.17767 27.8746 4.10865C27.7726 4.03618 27.6297 3.99995 27.446 3.99995C27.1365 3.99995 26.861 4.11728 26.6195 4.35194C26.3814 4.58315 26.2623 5.01797 26.2623 5.65639C26.2623 5.99803 26.3099 6.31206 26.4052 6.59849C26.5038 6.88492 26.6569 7.11268 26.8644 7.28177C27.0753 7.44742 27.3321 7.53024 27.6348 7.53024C27.9715 7.53024 28.2283 7.44569 28.4052 7.2766C28.5821 7.1075 28.7386 6.90907 28.8746 6.68131L29.3032 6.88319Z" fill="#1F316A"/>
<path d="M35.0125 5.80133C35.0125 6.27065 34.9002 6.67959 34.6757 7.02813C34.4512 7.37667 34.1468 7.64412 33.7625 7.83047C33.3815 8.01337 32.9631 8.10482 32.5073 8.10482C32.0788 8.10482 31.6723 8.02027 31.2879 7.85117C30.907 7.68208 30.594 7.42499 30.3491 7.07989C30.1076 6.7348 29.9869 6.31206 29.9869 5.81168C29.9869 5.06283 30.2386 4.49515 30.742 4.10865C31.2454 3.7187 31.8441 3.52372 32.5379 3.52372C33.055 3.52372 33.5006 3.62725 33.8747 3.8343C34.2489 4.04136 34.5312 4.31916 34.7217 4.6677C34.9155 5.01624 35.0125 5.39412 35.0125 5.80133ZM33.6043 5.77027C33.6043 5.18361 33.5278 4.7419 33.3747 4.44512C33.2216 4.14834 32.924 3.99995 32.4818 3.99995C32.1995 3.99995 31.9784 4.06551 31.8185 4.19665C31.6621 4.32433 31.5515 4.52449 31.4869 4.79711C31.4257 5.06628 31.3951 5.41655 31.3951 5.84792C31.3951 6.37936 31.4648 6.809 31.6043 7.13683C31.7437 7.46467 32.0481 7.62859 32.5175 7.62859C32.8271 7.62859 33.0618 7.53887 33.2216 7.35942C33.3849 7.17652 33.4886 6.95221 33.5329 6.68649C33.5805 6.41732 33.6043 6.11191 33.6043 5.77027Z" fill="#1F316A"/>
<path d="M41.5432 4.17077C41.3731 4.17767 41.2388 4.18975 41.1401 4.207C41.0415 4.22426 40.9667 4.25877 40.9156 4.31053C40.8646 4.36229 40.8306 4.43649 40.8136 4.53311C40.8 4.62974 40.7932 4.76088 40.7932 4.92652V6.70202C40.7932 6.86766 40.8 6.9988 40.8136 7.09542C40.8306 7.19205 40.8646 7.26624 40.9156 7.31801C40.9667 7.36977 41.0415 7.40601 41.1401 7.42671C41.2388 7.44397 41.3731 7.45432 41.5432 7.45777V7.934H38.8493V7.45777C38.9819 7.45777 39.0874 7.44742 39.1656 7.42671C39.2473 7.40255 39.3102 7.36287 39.3544 7.30765C39.402 7.25244 39.4326 7.17997 39.4462 7.09025C39.4632 6.99707 39.4717 6.88319 39.4717 6.74861V6.08085H37.737V6.74861C37.737 6.88319 37.7438 6.99707 37.7574 7.09025C37.7744 7.17997 37.805 7.25244 37.8493 7.30765C37.8969 7.36287 37.9598 7.40255 38.038 7.42671C38.1197 7.44742 38.2268 7.45777 38.3595 7.45777V7.934H35.6656V7.45777C35.8322 7.45432 35.9649 7.44397 36.0635 7.42671C36.1656 7.40601 36.2421 7.36977 36.2931 7.31801C36.3441 7.26624 36.3765 7.19205 36.3901 7.09542C36.4071 6.9988 36.4156 6.86766 36.4156 6.70202V4.92652C36.4156 4.76088 36.4071 4.62974 36.3901 4.53311C36.3765 4.43649 36.3441 4.36229 36.2931 4.31053C36.2421 4.25877 36.1656 4.22426 36.0635 4.207C35.9649 4.18975 35.8322 4.17767 35.6656 4.17077V3.69454H38.3595V4.17077C38.2268 4.17077 38.1197 4.18285 38.038 4.207C37.9598 4.22771 37.8969 4.26567 37.8493 4.32088C37.805 4.3761 37.7744 4.45029 37.7574 4.54347C37.7438 4.63319 37.737 4.74535 37.737 4.87993V5.50627H39.4717V4.87993C39.4717 4.74535 39.4632 4.63319 39.4462 4.54347C39.4326 4.45029 39.402 4.3761 39.3544 4.32088C39.3102 4.26567 39.2473 4.22771 39.1656 4.207C39.0874 4.18285 38.9819 4.17077 38.8493 4.17077V3.69454H41.5432V4.17077Z" fill="#1F316A"/>
<path d="M49.8291 5.80133C49.8291 6.14987 49.7644 6.46736 49.6352 6.75378C49.5059 7.03676 49.3291 7.27832 49.1046 7.47847C48.8801 7.67863 48.6182 7.83219 48.3188 7.93917C48.0195 8.0496 47.6998 8.10482 47.3596 8.10482C47.0467 8.10482 46.7372 8.0565 46.4311 7.95988C46.1249 7.8667 45.8511 7.72004 45.6096 7.51989C45.3681 7.31628 45.1725 7.05746 45.0229 6.74343C44.8766 6.4294 44.8035 6.05152 44.8035 5.6098C44.8035 5.24746 44.8273 4.8575 44.8749 4.43994C44.9225 4.02238 45.0161 3.58239 45.1555 3.11996C45.2304 2.86114 45.3103 2.62993 45.3953 2.42633C45.4804 2.21927 45.5858 2.045 45.7117 1.90351C45.8409 1.75857 46.0008 1.64815 46.1913 1.57223C46.3851 1.4963 46.6283 1.45834 46.9209 1.45834C47.0637 1.45834 47.1998 1.4618 47.329 1.4687C47.4617 1.4756 47.5909 1.47905 47.7168 1.47905C47.9005 1.47905 48.0773 1.46352 48.2474 1.43246C48.4209 1.39795 48.5978 1.32548 48.778 1.21505C48.8869 1.14949 48.9787 1.06667 49.0536 0.966589C49.1318 0.866512 49.2066 0.762984 49.278 0.656006L49.5587 0.920001C49.5212 1.03043 49.4804 1.14431 49.4362 1.26164C49.392 1.37897 49.341 1.48768 49.2831 1.58775C49.1879 1.74995 49.0825 1.88108 48.9668 1.98116C48.8546 2.07778 48.7338 2.15371 48.6046 2.20892C48.4753 2.26413 48.3376 2.30209 48.1913 2.3228C48.045 2.34351 47.8937 2.35903 47.7372 2.36939C47.5841 2.37629 47.426 2.38319 47.2627 2.39009C47.0994 2.39699 46.9328 2.41425 46.7627 2.44186C46.5178 2.47982 46.3188 2.56091 46.1657 2.68515C46.0161 2.80938 45.8953 2.96122 45.8035 3.14067C45.7151 3.32012 45.647 3.52027 45.5994 3.74113C45.5518 3.96199 45.5059 4.18975 45.4617 4.42441C45.5943 4.25186 45.7372 4.10865 45.8902 3.99477C46.0467 3.87744 46.2066 3.78426 46.3698 3.71525C46.5331 3.64623 46.6981 3.59792 46.8647 3.57031C47.0314 3.53925 47.1947 3.52372 47.3545 3.52372C47.7457 3.52372 48.0943 3.58584 48.4005 3.71007C48.7066 3.83085 48.9651 3.99477 49.176 4.20183C49.3903 4.40888 49.5519 4.65045 49.6607 4.92652C49.7729 5.20259 49.8291 5.4942 49.8291 5.80133ZM48.4209 5.77027C48.4209 5.48039 48.4039 5.22502 48.3699 5.00417C48.3393 4.78331 48.2814 4.59868 48.1964 4.45029C48.1114 4.3019 47.9957 4.18975 47.8494 4.11383C47.7066 4.03791 47.5229 3.99995 47.2984 3.99995C47.0841 3.99995 46.9073 4.03618 46.7678 4.10865C46.6283 4.18112 46.5178 4.29328 46.4362 4.44512C46.3545 4.59351 46.2967 4.78503 46.2627 5.01969C46.2287 5.25091 46.2117 5.52698 46.2117 5.84792C46.2117 5.9756 46.2151 6.10846 46.2219 6.2465C46.2287 6.38453 46.244 6.51912 46.2678 6.65025C46.295 6.78139 46.3324 6.90735 46.38 7.02813C46.4311 7.14546 46.4974 7.24899 46.579 7.33871C46.6641 7.42844 46.7678 7.49918 46.8902 7.55094C47.0127 7.60271 47.1607 7.62859 47.3341 7.62859C47.5722 7.62859 47.7627 7.57683 47.9056 7.4733C48.0484 7.36977 48.1573 7.23173 48.2321 7.05919C48.3103 6.88664 48.3614 6.68994 48.3852 6.46908C48.409 6.24477 48.4209 6.01183 48.4209 5.77027Z" fill="#1F316A"/>
<path d="M55.6863 4.17077C55.5401 4.19147 55.4261 4.22943 55.3445 4.28465C55.2628 4.33986 55.188 4.42614 55.12 4.54347C55.0554 4.65735 54.938 4.89028 54.7679 5.24228L53.273 8.38952C52.9397 9.08315 52.7118 9.54385 52.5893 9.77161C52.4703 10.0028 52.3342 10.1857 52.1812 10.3203C52.0281 10.4549 51.8376 10.5222 51.6097 10.5222C51.4533 10.5222 51.3172 10.4739 51.2015 10.3772C51.0859 10.2806 51.0281 10.1581 51.0281 10.0097C51.0281 9.79922 51.0978 9.64565 51.2373 9.54903C51.3801 9.45585 51.5638 9.37648 51.7883 9.31091C52.091 9.22119 52.3223 9.05727 52.4822 8.81916C52.642 8.58104 52.7798 8.3205 52.8955 8.03752L50.9515 4.56417C50.8597 4.39508 50.7764 4.2881 50.7015 4.24324C50.6267 4.19492 50.523 4.17077 50.3903 4.17077V3.69454H52.8648V4.17077H52.7067C52.472 4.17077 52.3546 4.22771 52.3546 4.34159C52.3546 4.41061 52.4022 4.52966 52.4975 4.69876L53.574 6.6192L54.37 4.97828C54.4822 4.74362 54.5383 4.58315 54.5383 4.49688C54.5383 4.39335 54.4873 4.31398 54.3853 4.25877C54.2866 4.2001 54.1693 4.17077 54.0332 4.17077V3.69454H55.6863V4.17077Z" fill="#1F316A"/>
<path d="M62.8548 7.582C62.8548 7.63032 62.8497 7.70106 62.8395 7.79423C62.8327 7.88741 62.8157 8.01164 62.7885 8.16693C62.7613 8.32222 62.7205 8.50857 62.666 8.72598C62.615 8.94684 62.5453 9.20393 62.4569 9.49726H62.1303C62.0623 9.2695 62.0045 9.06935 61.9568 8.8968C61.9126 8.72771 61.8752 8.58104 61.8446 8.45681C61.814 8.33603 61.7902 8.2325 61.7732 8.14623C61.7596 8.06341 61.7494 7.99266 61.7425 7.934H56.9261C56.9193 7.99266 56.9074 8.06341 56.8904 8.14623C56.8734 8.2325 56.8496 8.33775 56.819 8.46199C56.7884 8.58622 56.7493 8.73288 56.7016 8.90198C56.6574 9.07107 56.603 9.2695 56.5384 9.49726H56.2118C56.1234 9.20393 56.0537 8.94684 56.0027 8.72598C55.9516 8.50857 55.9108 8.32222 55.8802 8.16693C55.853 8.01164 55.8343 7.88741 55.8241 7.79423C55.8173 7.70106 55.8139 7.63032 55.8139 7.582C55.8139 7.54749 55.8275 7.51816 55.8547 7.494C55.8819 7.46985 55.9227 7.45777 55.9771 7.45777H56.6149C56.8904 7.43706 57.1251 7.38703 57.319 7.30765C57.5129 7.22828 57.6711 7.11613 57.7935 6.97119C57.916 6.8228 58.0044 6.64163 58.0588 6.42767C58.1166 6.21026 58.1455 5.95317 58.1455 5.65639C58.1455 5.508 58.1438 5.39239 58.1404 5.30957C58.1404 5.22675 58.137 5.15428 58.1302 5.09216C58.1268 5.03005 58.1217 4.96966 58.1149 4.91099C58.1081 4.85232 58.0979 4.77295 58.0843 4.67288C58.0707 4.5728 58.0486 4.4917 58.018 4.42959C57.9908 4.36402 57.9466 4.31398 57.8853 4.27947C57.8275 4.24151 57.751 4.21563 57.6557 4.20183C57.5605 4.18457 57.4398 4.17422 57.2935 4.17077V3.69454H62.6354V4.17077C62.4688 4.17422 62.3361 4.18802 62.2375 4.21218C62.1388 4.23288 62.0623 4.27084 62.0079 4.32606C61.9568 4.37782 61.9228 4.44857 61.9058 4.53829C61.8922 4.62801 61.8854 4.74017 61.8854 4.87476V6.96084C61.8854 7.11613 61.9347 7.23691 62.0334 7.32318C62.132 7.40946 62.314 7.45432 62.5793 7.45777H62.6915C62.746 7.45777 62.7868 7.46985 62.814 7.494C62.8412 7.51816 62.8548 7.54749 62.8548 7.582ZM59.2578 4.47617C59.2578 4.51413 59.2697 4.62974 59.2935 4.82299C59.3173 5.01279 59.3292 5.29059 59.3292 5.65639C59.3292 5.8669 59.3156 6.06015 59.2884 6.23614C59.2646 6.41214 59.2204 6.57433 59.1558 6.72272C59.0945 6.87111 59.0112 7.00742 58.9058 7.13166C58.8003 7.25244 58.6694 7.36114 58.5129 7.45777H59.6915C59.8854 7.45777 60.0401 7.44914 60.1558 7.43189C60.2714 7.41118 60.3599 7.38012 60.4211 7.33871C60.4823 7.2973 60.5214 7.24554 60.5384 7.18342C60.5589 7.1213 60.5691 7.04711 60.5691 6.96084V4.67288C60.5691 4.50378 60.5265 4.37782 60.4415 4.295C60.3599 4.21218 60.2034 4.17077 59.9721 4.17077H59.8037C59.6065 4.17077 59.4653 4.19665 59.3803 4.24841C59.2986 4.29673 59.2578 4.37265 59.2578 4.47617Z" fill="#1F316A"/>
<path d="M67.8498 5.65639H64.712C64.7154 5.72196 64.7239 5.86172 64.7375 6.07568C64.7545 6.28963 64.8021 6.50877 64.8804 6.73308C64.962 6.95739 65.0998 7.14719 65.2936 7.30248C65.4909 7.45432 65.7545 7.53024 66.0845 7.53024C66.2647 7.53024 66.4824 7.48365 66.7375 7.39048C66.9926 7.2973 67.2137 7.11785 67.4008 6.85213L67.7988 7.12648C67.3974 7.7787 66.7597 8.10482 65.8855 8.10482C65.4943 8.10482 65.1372 8.04788 64.814 7.934C64.4943 7.82012 64.2222 7.66137 63.9977 7.45777C63.7732 7.25416 63.6014 7.01433 63.4824 6.73825C63.3633 6.46218 63.3038 6.1654 63.3038 5.84792C63.3038 5.43035 63.4024 5.04385 63.5997 4.68841C63.8004 4.33296 64.0861 4.04999 64.4569 3.83948C64.8276 3.62897 65.2511 3.52372 65.7273 3.52372C66.1933 3.52372 66.5862 3.62552 66.9059 3.82913C67.229 4.03273 67.4671 4.29673 67.6202 4.62111C67.7733 4.9455 67.8498 5.29059 67.8498 5.65639ZM66.5845 5.18016C66.5845 4.39335 66.2783 3.99995 65.6661 3.99995C65.3702 3.99995 65.1423 4.10865 64.9824 4.32606C64.8259 4.54347 64.7392 4.82817 64.7222 5.18016H66.5845Z" fill="#1F316A"/>
<path d="M68.5182 3.69454H73.5897L73.6356 5.51663H73.2019C73.1407 5.22675 73.0761 4.99899 73.0081 4.83334C72.9434 4.6677 72.8635 4.54347 72.7683 4.46065C72.673 4.37437 72.5557 4.32088 72.4162 4.30018C72.2802 4.27947 72.1101 4.26912 71.906 4.26912H71.7121V6.62955C71.7121 6.90907 71.7614 7.11785 71.8601 7.25589C71.9077 7.32491 71.9842 7.37667 72.0897 7.41118C72.1985 7.44224 72.3074 7.45777 72.4162 7.45777V7.934H69.6917V7.45777C69.8005 7.45777 69.9077 7.44224 70.0131 7.41118C70.122 7.37667 70.2002 7.32491 70.2478 7.25589C70.3464 7.11785 70.3958 6.90907 70.3958 6.62955V4.26912H70.2019C69.9978 4.26912 69.826 4.27947 69.6866 4.30018C69.5505 4.32088 69.4349 4.37437 69.3396 4.46065C69.2444 4.54347 69.1628 4.6677 69.0947 4.83334C69.0301 4.99899 68.9672 5.22675 68.9059 5.51663H68.4723L68.5182 3.69454Z" fill="#1F316A"/>
<path d="M79.7684 5.39757C79.9657 5.39757 80.1527 5.41482 80.3296 5.44933C80.5099 5.48384 80.6681 5.54251 80.8041 5.62533C80.9402 5.70815 81.0473 5.81858 81.1255 5.95662C81.2072 6.0912 81.248 6.2603 81.248 6.4639C81.248 6.75378 81.1766 7.00397 81.0337 7.21448C80.8909 7.42153 80.7038 7.59063 80.4725 7.72176C80.2412 7.8529 79.9793 7.94953 79.6868 8.01164C79.3976 8.07376 79.1051 8.10482 78.8092 8.10482C78.5065 8.10482 78.2377 8.08584 78.003 8.04788C77.7683 8.01337 77.5694 7.96505 77.4061 7.90294C77.2428 7.83737 77.1187 7.76145 77.0336 7.67518C76.9486 7.58545 76.9061 7.49055 76.9061 7.39048C76.9061 7.25934 76.9537 7.15754 77.049 7.08507C77.1442 7.0126 77.287 6.97637 77.4775 6.97637C77.6272 6.97637 77.7496 7.0057 77.8449 7.06436C77.9401 7.11958 78.0252 7.20413 78.1 7.31801C78.1782 7.43534 78.2803 7.51643 78.4061 7.5613C78.532 7.60616 78.6935 7.62859 78.8908 7.62859C79.0031 7.62859 79.117 7.60961 79.2327 7.57165C79.3517 7.53369 79.4572 7.47502 79.549 7.39565C79.6442 7.31283 79.7208 7.20758 79.7786 7.07989C79.8398 6.95221 79.8704 6.80037 79.8704 6.62437C79.8704 6.35175 79.8109 6.14297 79.6918 5.99803C79.5728 5.84964 79.4112 5.77545 79.2071 5.77545C79.1391 5.77545 79.0677 5.78752 78.9929 5.81168C78.9214 5.83239 78.8517 5.8669 78.7837 5.91521C78.6714 5.99458 78.5677 6.03426 78.4724 6.03426C78.3942 6.03426 78.3313 6.01183 78.2837 5.96697C78.236 5.91866 78.2122 5.8738 78.2122 5.83239C78.2122 5.80478 78.2156 5.78062 78.2224 5.75992C78.2326 5.73921 78.2514 5.71851 78.2786 5.6978C78.3092 5.67709 78.3517 5.65466 78.4061 5.63051C78.4605 5.6029 78.5337 5.56839 78.6255 5.52698C78.8296 5.43726 79.0065 5.35098 79.1561 5.26816C79.3058 5.18534 79.4282 5.10252 79.5235 5.01969C79.6221 4.93687 79.6953 4.85405 79.7429 4.77123C79.7905 4.68841 79.8143 4.60213 79.8143 4.51241C79.8143 4.41578 79.7939 4.33469 79.7531 4.26912C79.7157 4.2001 79.6629 4.14661 79.5949 4.10865C79.5269 4.07069 79.447 4.04308 79.3551 4.02583C79.2633 4.00857 79.1663 3.99995 79.0643 3.99995C78.799 3.99995 78.5915 4.03101 78.4418 4.09312C78.2922 4.15179 78.2173 4.24151 78.2173 4.36229C78.2173 4.3968 78.2224 4.42786 78.2326 4.45547C78.2462 4.48308 78.2598 4.51068 78.2735 4.53829C78.2871 4.5659 78.299 4.59523 78.3092 4.62629C78.3228 4.6539 78.3296 4.68496 78.3296 4.71946C78.3296 4.75052 78.3194 4.78158 78.299 4.81264C78.282 4.8437 78.2514 4.87303 78.2071 4.90064C78.1629 4.92824 78.1051 4.95068 78.0337 4.96793C77.9622 4.98519 77.8738 4.99381 77.7683 4.99381C77.6459 4.99381 77.5456 4.97828 77.4673 4.94723C77.3925 4.91272 77.333 4.87303 77.2887 4.82817C77.2445 4.77986 77.2139 4.72982 77.1969 4.67805C77.1799 4.62629 77.1714 4.5797 77.1714 4.53829C77.1714 4.383 77.2207 4.24324 77.3194 4.119C77.4214 3.99477 77.5626 3.88952 77.7428 3.80324C77.9231 3.71352 78.1357 3.64623 78.3806 3.60137C78.6289 3.55305 78.901 3.5289 79.1969 3.5289C79.5269 3.5289 79.8092 3.5496 80.0439 3.59101C80.282 3.63242 80.4759 3.69282 80.6255 3.77219C80.7752 3.84811 80.884 3.94128 80.9521 4.05171C81.0235 4.16214 81.0592 4.28465 81.0592 4.41923C81.0592 4.55037 81.0218 4.66943 80.947 4.7764C80.8755 4.88338 80.7803 4.97828 80.6613 5.06111C80.5422 5.14393 80.4044 5.21295 80.248 5.26816C80.0915 5.32338 79.9316 5.36651 79.7684 5.39757Z" fill="#1F316A"/>
<path d="M88.6206 7.582C88.6206 7.63032 88.6155 7.70106 88.6053 7.79423C88.5985 7.88741 88.5815 8.01164 88.5543 8.16693C88.527 8.32222 88.4862 8.50857 88.4318 8.72598C88.3808 8.94684 88.3111 9.20393 88.2226 9.49726H87.8961C87.828 9.2695 87.7702 9.06935 87.7226 8.8968C87.6784 8.72771 87.641 8.58104 87.6104 8.45681C87.5798 8.33603 87.5559 8.2325 87.5389 8.14623C87.5253 8.06341 87.5151 7.99266 87.5083 7.934H82.6919C82.6851 7.99266 82.6732 8.06341 82.6562 8.14623C82.6392 8.2325 82.6154 8.33775 82.5848 8.46199C82.5541 8.58622 82.515 8.73288 82.4674 8.90198C82.4232 9.07107 82.3688 9.2695 82.3041 9.49726H81.9776C81.8892 9.20393 81.8194 8.94684 81.7684 8.72598C81.7174 8.50857 81.6766 8.32222 81.646 8.16693C81.6188 8.01164 81.6001 7.88741 81.5898 7.79423C81.583 7.70106 81.5796 7.63032 81.5796 7.582C81.5796 7.54749 81.5932 7.51816 81.6205 7.494C81.6477 7.46985 81.6885 7.45777 81.7429 7.45777H82.3807C82.6562 7.43706 82.8909 7.38703 83.0848 7.30765C83.2786 7.22828 83.4368 7.11613 83.5593 6.97119C83.6817 6.8228 83.7702 6.64163 83.8246 6.42767C83.8824 6.21026 83.9113 5.95317 83.9113 5.65639C83.9113 5.508 83.9096 5.39239 83.9062 5.30957C83.9062 5.22675 83.9028 5.15428 83.896 5.09216C83.8926 5.03005 83.8875 4.96966 83.8807 4.91099C83.8739 4.85232 83.8637 4.77295 83.8501 4.67288C83.8365 4.5728 83.8144 4.4917 83.7838 4.42959C83.7566 4.36402 83.7123 4.31398 83.6511 4.27947C83.5933 4.24151 83.5167 4.21563 83.4215 4.20183C83.3263 4.18457 83.2055 4.17422 83.0593 4.17077V3.69454H88.4012V4.17077C88.2345 4.17422 88.1019 4.18802 88.0032 4.21218C87.9046 4.23288 87.828 4.27084 87.7736 4.32606C87.7226 4.37782 87.6886 4.44857 87.6716 4.53829C87.658 4.62801 87.6512 4.74017 87.6512 4.87476V6.96084C87.6512 7.11613 87.7005 7.23691 87.7991 7.32318C87.8978 7.40946 88.0798 7.45432 88.3451 7.45777H88.4573C88.5117 7.45777 88.5526 7.46985 88.5798 7.494C88.607 7.51816 88.6206 7.54749 88.6206 7.582ZM85.0236 4.47617C85.0236 4.51413 85.0355 4.62974 85.0593 4.82299C85.0831 5.01279 85.095 5.29059 85.095 5.65639C85.095 5.8669 85.0814 6.06015 85.0542 6.23614C85.0304 6.41214 84.9862 6.57433 84.9215 6.72272C84.8603 6.87111 84.777 7.00742 84.6715 7.13166C84.5661 7.25244 84.4351 7.36114 84.2787 7.45777H85.4573C85.6511 7.45777 85.8059 7.44914 85.9216 7.43189C86.0372 7.41118 86.1256 7.38012 86.1869 7.33871C86.2481 7.2973 86.2872 7.24554 86.3042 7.18342C86.3246 7.1213 86.3348 7.04711 86.3348 6.96084V4.67288C86.3348 4.50378 86.2923 4.37782 86.2073 4.295C86.1256 4.21218 85.9692 4.17077 85.7379 4.17077H85.5695C85.3722 4.17077 85.2311 4.19665 85.146 4.24841C85.0644 4.29673 85.0236 4.37265 85.0236 4.47617Z" fill="#1F316A"/>
<path d="M94.1054 5.80133C94.1054 6.27065 93.9931 6.67959 93.7686 7.02813C93.5441 7.37667 93.2397 7.64412 92.8554 7.83047C92.4744 8.01337 92.056 8.10482 91.6002 8.10482C91.1716 8.10482 90.7652 8.02027 90.3808 7.85117C89.9999 7.68208 89.6869 7.42499 89.442 7.07989C89.2005 6.7348 89.0798 6.31206 89.0798 5.81168C89.0798 5.06283 89.3315 4.49515 89.8349 4.10865C90.3383 3.7187 90.937 3.52372 91.6308 3.52372C92.1479 3.52372 92.5934 3.62725 92.9676 3.8343C93.3418 4.04136 93.6241 4.31916 93.8146 4.6677C94.0084 5.01624 94.1054 5.39412 94.1054 5.80133ZM92.6972 5.77027C92.6972 5.18361 92.6207 4.7419 92.4676 4.44512C92.3145 4.14834 92.0169 3.99995 91.5747 3.99995C91.2924 3.99995 91.0713 4.06551 90.9114 4.19665C90.755 4.32433 90.6444 4.52449 90.5798 4.79711C90.5186 5.06628 90.488 5.41655 90.488 5.84792C90.488 6.37936 90.5577 6.809 90.6972 7.13683C90.8366 7.46467 91.141 7.62859 91.6104 7.62859C91.92 7.62859 92.1547 7.53887 92.3145 7.35942C92.4778 7.17652 92.5815 6.95221 92.6258 6.68649C92.6734 6.41732 92.6972 6.11191 92.6972 5.77027Z" fill="#1F316A"/>
<path d="M100.432 5.73921C100.432 6.16367 100.333 6.5588 100.136 6.9246C99.9422 7.28695 99.6718 7.5751 99.3249 7.78906C98.9813 7.99956 98.5953 8.10482 98.1667 8.10482C97.6292 8.10482 97.1616 7.91329 96.7636 7.53024V9.18668C96.7636 9.38338 96.7755 9.53005 96.7993 9.62667C96.8265 9.72675 96.8843 9.80094 96.9728 9.84926C97.0646 9.90102 97.2041 9.9269 97.3911 9.9269H97.6718V10.4031H94.7074V9.9269C94.9387 9.9269 95.1054 9.9062 95.2074 9.86479C95.3095 9.82683 95.3741 9.75953 95.4013 9.66291C95.4319 9.56628 95.4472 9.40754 95.4472 9.18668V5.13357C95.4472 4.93342 95.4319 4.78848 95.4013 4.69876C95.3741 4.60903 95.3095 4.54519 95.2074 4.50723C95.1088 4.46582 94.9421 4.44512 94.7074 4.44512V3.96889L96.6922 3.52372C96.733 3.66176 96.7568 3.88089 96.7636 4.18112C96.9881 3.95336 97.2194 3.78772 97.4575 3.68419C97.699 3.57721 97.9762 3.52372 98.2891 3.52372C98.6293 3.52372 98.9337 3.58584 99.2024 3.71007C99.4711 3.8343 99.6956 4.00167 99.8759 4.21218C100.056 4.41923 100.194 4.65735 100.289 4.92652C100.384 5.19224 100.432 5.46314 100.432 5.73921ZM99.0238 5.68745C99.0238 4.62801 98.6582 4.0983 97.9269 4.0983C97.6888 4.0983 97.4694 4.16904 97.2687 4.31053C97.0714 4.44857 96.903 4.61766 96.7636 4.81782V6.86249C96.8962 7.06609 97.068 7.22828 97.2789 7.34907C97.4932 7.46985 97.7126 7.53024 97.9371 7.53024C98.6616 7.53024 99.0238 6.91597 99.0238 5.68745Z" fill="#1F316A"/>
<path d="M106.31 5.80133C106.31 6.27065 106.197 6.67959 105.973 7.02813C105.748 7.37667 105.444 7.64412 105.06 7.83047C104.679 8.01337 104.26 8.10482 103.805 8.10482C103.376 8.10482 102.969 8.02027 102.585 7.85117C102.204 7.68208 101.891 7.42499 101.646 7.07989C101.405 6.7348 101.284 6.31206 101.284 5.81168C101.284 5.06283 101.536 4.49515 102.039 4.10865C102.543 3.7187 103.141 3.52372 103.835 3.52372C104.352 3.52372 104.798 3.62725 105.172 3.8343C105.546 4.04136 105.828 4.31916 106.019 4.6677C106.213 5.01624 106.31 5.39412 106.31 5.80133ZM104.901 5.77027C104.901 5.18361 104.825 4.7419 104.672 4.44512C104.519 4.14834 104.221 3.99995 103.779 3.99995C103.497 3.99995 103.276 4.06551 103.116 4.19665C102.959 4.32433 102.849 4.52449 102.784 4.79711C102.723 5.06628 102.692 5.41655 102.692 5.84792C102.692 6.37936 102.762 6.809 102.901 7.13683C103.041 7.46467 103.345 7.62859 103.815 7.62859C104.124 7.62859 104.359 7.53887 104.519 7.35942C104.682 7.17652 104.786 6.95221 104.83 6.68649C104.878 6.41732 104.901 6.11191 104.901 5.77027Z" fill="#1F316A"/>
<path d="M112.55 6.73308C112.55 6.97809 112.475 7.17824 112.325 7.33354C112.179 7.48883 111.985 7.61134 111.743 7.70106C111.505 7.78733 111.235 7.84772 110.932 7.88223C110.633 7.91674 110.33 7.934 110.024 7.934H106.968V7.45777C107.172 7.45432 107.334 7.44397 107.453 7.42671C107.575 7.40946 107.667 7.38357 107.728 7.34907C107.789 7.31111 107.828 7.26624 107.845 7.21448C107.862 7.15926 107.871 7.09197 107.871 7.0126V4.61076C107.871 4.52794 107.859 4.45892 107.835 4.4037C107.811 4.34504 107.765 4.29845 107.697 4.26394C107.633 4.22943 107.541 4.20528 107.422 4.19147C107.306 4.17767 107.155 4.17077 106.968 4.17077V3.69454C107.233 3.69109 107.485 3.68764 107.723 3.68419C107.964 3.67729 108.204 3.67211 108.442 3.66866C108.68 3.66521 108.924 3.66348 109.172 3.66348C109.42 3.66003 109.687 3.65831 109.973 3.65831C110.085 3.65831 110.22 3.66176 110.376 3.66866C110.536 3.67211 110.701 3.68591 110.871 3.71007C111.041 3.73078 111.209 3.76356 111.376 3.80842C111.546 3.85328 111.698 3.9154 111.83 3.99477C111.963 4.07069 112.07 4.16732 112.152 4.28465C112.237 4.40198 112.279 4.54347 112.279 4.70911C112.279 4.84025 112.257 4.96103 112.213 5.07146C112.172 5.18189 112.102 5.27851 112.004 5.36134C111.908 5.44416 111.781 5.51318 111.621 5.56839C111.461 5.62361 111.264 5.65984 111.029 5.67709C111.335 5.7047 111.587 5.74784 111.784 5.8065C111.982 5.86517 112.136 5.93936 112.249 6.02909C112.364 6.11881 112.442 6.22234 112.483 6.33967C112.527 6.457 112.55 6.58814 112.55 6.73308ZM110.902 4.80746C110.902 4.62111 110.815 4.46927 110.641 4.35194C110.471 4.23116 110.206 4.17077 109.845 4.17077H109.203V5.47522H109.769C110.167 5.47522 110.454 5.41655 110.631 5.29922C110.811 5.18189 110.902 5.01797 110.902 4.80746ZM111.05 6.70719C111.05 6.45528 110.956 6.25512 110.769 6.10673C110.582 5.95834 110.315 5.88415 109.968 5.88415H109.203V6.89872C109.203 6.9988 109.214 7.08507 109.238 7.15754C109.262 7.22656 109.303 7.2835 109.361 7.32836C109.422 7.37322 109.504 7.40601 109.606 7.42671C109.708 7.44742 109.839 7.45777 109.999 7.45777C110.104 7.45777 110.218 7.44569 110.34 7.42153C110.463 7.39738 110.577 7.35597 110.682 7.2973C110.788 7.23864 110.874 7.16099 110.942 7.06436C111.014 6.96774 111.05 6.84868 111.05 6.70719Z" fill="#1F316A"/>
<path d="M113.106 3.69454H115.8V4.17077C115.667 4.17077 115.56 4.18285 115.478 4.207C115.4 4.22771 115.337 4.26567 115.289 4.32088C115.245 4.3761 115.215 4.45029 115.198 4.54347C115.184 4.63319 115.177 4.74535 115.177 4.87993V5.47522H115.754C116.223 5.47522 116.631 5.49765 116.978 5.54251C117.329 5.58392 117.618 5.65466 117.846 5.75474C118.077 5.85137 118.249 5.98078 118.361 6.14297C118.477 6.30171 118.534 6.49841 118.534 6.73308C118.534 6.97809 118.46 7.17824 118.31 7.33354C118.164 7.48883 117.97 7.61134 117.728 7.70106C117.49 7.78733 117.22 7.84772 116.917 7.88223C116.618 7.91674 116.315 7.934 116.009 7.934H113.106V7.45777C113.272 7.45432 113.405 7.44397 113.504 7.42671C113.606 7.40601 113.682 7.36977 113.733 7.31801C113.784 7.26624 113.817 7.19205 113.83 7.09542C113.847 6.9988 113.856 6.86766 113.856 6.70202V4.92652C113.856 4.76088 113.847 4.62974 113.83 4.53311C113.817 4.43649 113.784 4.36229 113.733 4.31053C113.682 4.25877 113.606 4.22426 113.504 4.207C113.405 4.18975 113.272 4.17767 113.106 4.17077V3.69454ZM117.034 6.70719C117.034 6.45528 116.941 6.25512 116.754 6.10673C116.567 5.95834 116.3 5.88415 115.953 5.88415H115.177V6.89872C115.177 6.9988 115.189 7.08507 115.213 7.15754C115.237 7.22656 115.279 7.2835 115.34 7.32836C115.402 7.37322 115.483 7.40601 115.585 7.42671C115.691 7.44742 115.823 7.45777 115.983 7.45777C116.089 7.45777 116.203 7.44569 116.325 7.42153C116.448 7.39738 116.562 7.35597 116.667 7.2973C116.772 7.23864 116.859 7.16099 116.927 7.06436C116.999 6.96774 117.034 6.84868 117.034 6.70719ZM121.892 7.934H119.121V7.45777H119.269C119.466 7.45777 119.609 7.43016 119.698 7.37495C119.79 7.31973 119.846 7.24209 119.866 7.14201C119.886 7.04193 119.897 6.89527 119.897 6.70202V5.16463C119.897 4.95068 119.883 4.79884 119.856 4.70911C119.832 4.61939 119.766 4.55382 119.657 4.51241C119.551 4.471 119.373 4.44857 119.121 4.44512V3.96889L121.213 3.52372V6.70202C121.213 6.99189 121.249 7.19032 121.32 7.2973C121.392 7.40428 121.582 7.45777 121.892 7.45777V7.934Z" fill="#1F316A"/>
<path d="M129.58 7.934H126.417V7.45777C126.625 7.45432 126.788 7.43706 126.907 7.40601C127.026 7.37495 127.116 7.32663 127.177 7.26107C127.239 7.1955 127.278 7.11095 127.295 7.00742C127.312 6.9039 127.322 6.77794 127.325 6.62955V5.00934L125.713 7.934H125.427L123.779 5.00934V6.40696C123.779 6.51739 123.781 6.61402 123.784 6.69684C123.788 6.77966 123.793 6.85213 123.8 6.91425C123.81 6.97637 123.824 7.03158 123.841 7.07989C123.858 7.12821 123.88 7.17307 123.907 7.21448C123.965 7.2973 124.055 7.35942 124.177 7.40083C124.3 7.43879 124.473 7.45777 124.698 7.45777V7.934H122.361V7.45777C122.585 7.45777 122.757 7.43706 122.876 7.39565C122.999 7.35424 123.089 7.29213 123.147 7.2093C123.174 7.16789 123.196 7.12303 123.213 7.07472C123.23 7.0264 123.242 6.97119 123.249 6.90907C123.259 6.84696 123.264 6.77621 123.264 6.69684C123.267 6.61402 123.269 6.51739 123.269 6.40696V5.21122C123.269 4.92134 123.256 4.70739 123.228 4.56935C123.215 4.50378 123.189 4.44684 123.152 4.39853C123.118 4.34676 123.067 4.30535 122.999 4.2743C122.931 4.23979 122.844 4.2139 122.739 4.19665C122.636 4.1794 122.511 4.17077 122.361 4.17077V3.69454H124.667L125.994 6.09638L127.325 3.69454H129.58V4.17077C129.193 4.17077 128.941 4.23461 128.825 4.36229C128.713 4.48653 128.657 4.69876 128.657 4.99899V6.62955C128.657 6.77104 128.666 6.89354 128.683 6.99707C128.703 7.09715 128.744 7.1817 128.805 7.25071C128.87 7.31628 128.963 7.36632 129.086 7.40083C129.208 7.43534 129.373 7.45432 129.58 7.45777V7.934Z" fill="#1F316A"/>
<path d="M138.514 4.17077C138.344 4.17767 138.21 4.18975 138.111 4.207C138.013 4.22426 137.938 4.25877 137.887 4.31053C137.836 4.36229 137.802 4.43649 137.785 4.53311C137.771 4.62974 137.764 4.76088 137.764 4.92652V6.70202C137.764 6.86766 137.771 6.9988 137.785 7.09542C137.802 7.19205 137.836 7.26624 137.887 7.31801C137.938 7.36977 138.013 7.40601 138.111 7.42671C138.21 7.44397 138.344 7.45432 138.514 7.45777V7.934H135.82V7.45777C135.953 7.45777 136.059 7.44742 136.137 7.42671C136.218 7.40255 136.281 7.36287 136.326 7.30765C136.373 7.25244 136.404 7.17997 136.417 7.09025C136.434 6.99707 136.443 6.88319 136.443 6.74861V5.43898L134.708 6.88837C134.712 6.9988 134.723 7.09025 134.744 7.16272C134.768 7.23518 134.802 7.29385 134.846 7.33871C134.894 7.38012 134.956 7.41118 135.035 7.43189C135.113 7.44914 135.212 7.45777 135.331 7.45777V7.934H132.637V7.45777C132.803 7.45432 132.936 7.44397 133.035 7.42671C133.137 7.40601 133.213 7.36977 133.264 7.31801C133.315 7.26624 133.348 7.19205 133.361 7.09542C133.378 6.9988 133.387 6.86766 133.387 6.70202V4.92652C133.387 4.76088 133.378 4.62974 133.361 4.53311C133.348 4.43649 133.315 4.36229 133.264 4.31053C133.213 4.25877 133.137 4.22426 133.035 4.207C132.936 4.18975 132.803 4.17767 132.637 4.17077V3.69454H135.331V4.17077C135.198 4.17077 135.091 4.18285 135.009 4.207C134.931 4.22771 134.868 4.26567 134.82 4.32088C134.776 4.3761 134.746 4.45029 134.729 4.54347C134.715 4.63319 134.708 4.74535 134.708 4.87993V6.14297L136.438 4.69876C136.431 4.59868 136.416 4.51586 136.392 4.45029C136.371 4.38127 136.337 4.32606 136.29 4.28465C136.246 4.24324 136.184 4.2139 136.106 4.19665C136.031 4.1794 135.936 4.17077 135.82 4.17077V3.69454H138.514V4.17077Z" fill="#1F316A"/>
<path d="M146.213 6.88319C145.802 7.69761 145.14 8.10482 144.229 8.10482C143.804 8.10482 143.4 8.01682 143.02 7.84082C142.642 7.66482 142.338 7.40946 142.106 7.07472C141.878 6.73998 141.764 6.3483 141.764 5.89968C141.764 5.5891 141.826 5.29232 141.948 5.00934C142.074 4.72637 142.254 4.471 142.489 4.24324C142.724 4.01548 143.001 3.83948 143.321 3.71525C143.644 3.58756 143.989 3.52372 144.356 3.52372C144.826 3.52372 145.239 3.61862 145.596 3.80842C145.953 3.99477 146.132 4.25359 146.132 4.58488C146.132 4.73672 146.076 4.86613 145.963 4.97311C145.851 5.08009 145.722 5.13357 145.576 5.13357C145.436 5.13357 145.329 5.10079 145.254 5.03522C145.179 4.96966 145.13 4.90236 145.106 4.83334C145.082 4.76433 145.048 4.64182 145.004 4.46582C144.96 4.29673 144.887 4.17767 144.785 4.10865C144.683 4.03618 144.54 3.99995 144.356 3.99995C144.047 3.99995 143.771 4.11728 143.53 4.35194C143.292 4.58315 143.173 5.01797 143.173 5.65639C143.173 5.99803 143.22 6.31206 143.315 6.59849C143.414 6.88492 143.567 7.11268 143.775 7.28177C143.986 7.44742 144.242 7.53024 144.545 7.53024C144.882 7.53024 145.139 7.44569 145.315 7.2766C145.492 7.1075 145.649 6.90907 145.785 6.68131L146.213 6.88319Z" fill="#1F316A"/>
<path d="M150.336 7.45777C150.469 7.45777 150.574 7.44742 150.652 7.42671C150.734 7.40255 150.797 7.36287 150.841 7.30765C150.889 7.25244 150.919 7.17997 150.933 7.09025C150.95 6.99707 150.958 6.88319 150.958 6.74861V4.67288C150.958 4.50378 150.918 4.37782 150.836 4.295C150.754 4.21218 150.598 4.17077 150.367 4.17077H150.198C150.001 4.17077 149.86 4.19665 149.775 4.24841C149.693 4.29673 149.652 4.37265 149.652 4.47617C149.652 4.51413 149.664 4.62974 149.688 4.82299C149.712 5.01279 149.724 5.29059 149.724 5.65639C149.724 5.96352 149.693 6.26203 149.632 6.5519C149.574 6.83833 149.475 7.0937 149.336 7.31801C149.2 7.54232 149.016 7.72349 148.785 7.86153C148.554 7.99611 148.268 8.06341 147.928 8.06341C147.492 8.06341 147.161 7.99094 146.933 7.846C146.705 7.69761 146.591 7.48883 146.591 7.21966C146.591 7.05401 146.632 6.92805 146.713 6.84178C146.795 6.75206 146.911 6.70719 147.06 6.70719C147.179 6.70719 147.281 6.73825 147.367 6.80037C147.452 6.86249 147.494 6.96429 147.494 7.10578C147.494 7.16444 147.486 7.21966 147.469 7.27142C147.455 7.31973 147.448 7.35942 147.448 7.39048C147.448 7.54577 147.518 7.62341 147.657 7.62341C147.8 7.62341 147.926 7.57165 148.035 7.46812C148.147 7.36114 148.241 7.21793 148.316 7.03848C148.39 6.85903 148.446 6.65025 148.484 6.41214C148.521 6.17403 148.54 5.92211 148.54 5.65639C148.54 5.508 148.538 5.39239 148.535 5.30957C148.535 5.22675 148.532 5.15428 148.525 5.09216C148.521 5.03005 148.516 4.96966 148.509 4.91099C148.503 4.85232 148.492 4.77295 148.479 4.67288C148.465 4.5728 148.443 4.4917 148.412 4.42959C148.385 4.36402 148.341 4.31398 148.28 4.27947C148.222 4.24151 148.145 4.21563 148.05 4.20183C147.955 4.18457 147.834 4.17422 147.688 4.17077V3.69454H153.03V4.17077C152.863 4.17422 152.731 4.18802 152.632 4.21218C152.533 4.23288 152.457 4.27084 152.402 4.32606C152.351 4.37782 152.317 4.44857 152.3 4.53829C152.287 4.62801 152.28 4.74017 152.28 4.87476V6.70202C152.28 6.86766 152.287 6.9988 152.3 7.09542C152.317 7.19205 152.351 7.26624 152.402 7.31801C152.453 7.36977 152.528 7.40601 152.627 7.42671C152.725 7.44397 152.86 7.45432 153.03 7.45777V7.934H150.336V7.45777Z" fill="#1F316A"/>
<path d="M158.918 6.84178C158.918 7.10405 158.865 7.32836 158.76 7.51471C158.654 7.69761 158.511 7.83392 158.331 7.92364C158.154 8.00992 157.953 8.05305 157.729 8.05305C157.443 8.05305 157.205 7.98576 157.015 7.85117C156.824 7.71314 156.71 7.54922 156.673 7.35942C156.105 7.82184 155.533 8.05305 154.958 8.05305C154.591 8.05305 154.29 7.96333 154.055 7.78388C153.821 7.60098 153.703 7.36114 153.703 7.06436C153.703 6.81935 153.766 6.59849 153.892 6.40179C154.018 6.20163 154.202 6.02391 154.443 5.86862C154.688 5.71333 154.979 5.57702 155.316 5.45969C155.652 5.3389 156.072 5.21295 156.576 5.08181V4.78676C156.576 4.54174 156.518 4.35022 156.402 4.21218C156.29 4.07069 156.081 3.99995 155.775 3.99995C155.513 3.99995 155.324 4.05516 155.209 4.16559C155.093 4.27602 155.016 4.44339 154.979 4.6677C154.952 4.82644 154.901 4.95758 154.826 5.06111C154.754 5.16118 154.603 5.21122 154.372 5.21122C154.229 5.21122 154.103 5.16981 153.994 5.08699C153.885 5.00417 153.831 4.88166 153.831 4.71946C153.831 4.39853 154.003 4.119 154.346 3.88089C154.69 3.64278 155.217 3.52372 155.928 3.52372C156.676 3.52372 157.19 3.6514 157.469 3.90677C157.751 4.16214 157.892 4.50378 157.892 4.9317V6.56743C157.892 6.77449 157.897 6.92633 157.908 7.02295C157.918 7.11958 157.945 7.19377 157.989 7.24554C158.037 7.29385 158.11 7.31801 158.209 7.31801C158.297 7.31801 158.374 7.27142 158.438 7.17824C158.506 7.08507 158.54 6.97291 158.54 6.84178H158.918ZM156.576 6.88319V5.59945C155.93 5.8065 155.518 6.01011 155.341 6.21026C155.168 6.40696 155.081 6.60022 155.081 6.79002C155.081 6.94876 155.129 7.07644 155.224 7.17307C155.319 7.26969 155.453 7.31801 155.627 7.31801C155.814 7.31801 155.979 7.27832 156.122 7.19895C156.265 7.11958 156.416 7.01433 156.576 6.88319Z" fill="#1F316A"/>
<path d="M165.959 7.582C165.959 7.63032 165.954 7.70106 165.943 7.79423C165.937 7.88741 165.92 8.01164 165.892 8.16693C165.865 8.32222 165.824 8.50857 165.77 8.72598C165.719 8.94684 165.649 9.20393 165.561 9.49726H165.234C165.166 9.2695 165.108 9.06935 165.061 8.8968C165.017 8.72771 164.979 8.58104 164.948 8.45681C164.918 8.33603 164.894 8.2325 164.877 8.14623C164.863 8.06341 164.853 7.99266 164.846 7.934H160.03C160.023 7.99266 160.011 8.06341 159.994 8.14623C159.977 8.2325 159.953 8.33775 159.923 8.46199C159.892 8.58622 159.853 8.73288 159.806 8.90198C159.761 9.07107 159.707 9.2695 159.642 9.49726H159.316C159.227 9.20393 159.158 8.94684 159.107 8.72598C159.056 8.50857 159.015 8.32222 158.984 8.16693C158.957 8.01164 158.938 7.88741 158.928 7.79423C158.921 7.70106 158.918 7.63032 158.918 7.582C158.918 7.54749 158.931 7.51816 158.959 7.494C158.986 7.46985 159.027 7.45777 159.081 7.45777H159.719C159.994 7.43706 160.229 7.38703 160.423 7.30765C160.617 7.22828 160.775 7.11613 160.897 6.97119C161.02 6.8228 161.108 6.64163 161.163 6.42767C161.221 6.21026 161.249 5.95317 161.249 5.65639C161.249 5.508 161.248 5.39239 161.244 5.30957C161.244 5.22675 161.241 5.15428 161.234 5.09216C161.231 5.03005 161.226 4.96966 161.219 4.91099C161.212 4.85232 161.202 4.77295 161.188 4.67288C161.175 4.5728 161.152 4.4917 161.122 4.42959C161.095 4.36402 161.05 4.31398 160.989 4.27947C160.931 4.24151 160.855 4.21563 160.76 4.20183C160.664 4.18457 160.544 4.17422 160.397 4.17077V3.69454H165.739V4.17077C165.573 4.17422 165.44 4.18802 165.341 4.21218C165.243 4.23288 165.166 4.27084 165.112 4.32606C165.061 4.37782 165.027 4.44857 165.01 4.53829C164.996 4.62801 164.989 4.74017 164.989 4.87476V6.96084C164.989 7.11613 165.039 7.23691 165.137 7.32318C165.236 7.40946 165.418 7.45432 165.683 7.45777H165.795C165.85 7.45777 165.891 7.46985 165.918 7.494C165.945 7.51816 165.959 7.54749 165.959 7.582ZM162.362 4.47617C162.362 4.51413 162.374 4.62974 162.397 4.82299C162.421 5.01279 162.433 5.29059 162.433 5.65639C162.433 5.8669 162.42 6.06015 162.392 6.23614C162.368 6.41214 162.324 6.57433 162.26 6.72272C162.198 6.87111 162.115 7.00742 162.01 7.13166C161.904 7.25244 161.773 7.36114 161.617 7.45777H162.795C162.989 7.45777 163.144 7.44914 163.26 7.43189C163.375 7.41118 163.464 7.38012 163.525 7.33871C163.586 7.2973 163.625 7.24554 163.642 7.18342C163.663 7.1213 163.673 7.04711 163.673 6.96084V4.67288C163.673 4.50378 163.63 4.37782 163.545 4.295C163.464 4.21218 163.307 4.17077 163.076 4.17077H162.908C162.71 4.17077 162.569 4.19665 162.484 4.24841C162.403 4.29673 162.362 4.37265 162.362 4.47617Z" fill="#1F316A"/>
<path d="M168.28 6.74861C168.28 6.88319 168.287 6.99707 168.301 7.09025C168.318 7.17997 168.348 7.25244 168.392 7.30765C168.44 7.36287 168.503 7.40255 168.581 7.42671C168.663 7.44742 168.77 7.45777 168.903 7.45777V7.934H166.209V7.45777C166.375 7.45432 166.508 7.44397 166.607 7.42671C166.709 7.40601 166.785 7.36977 166.836 7.31801C166.887 7.26624 166.92 7.19205 166.933 7.09542C166.95 6.9988 166.959 6.86766 166.959 6.70202V4.92652C166.959 4.76088 166.95 4.62974 166.933 4.53311C166.92 4.43649 166.887 4.36229 166.836 4.31053C166.785 4.25877 166.709 4.22426 166.607 4.207C166.508 4.18975 166.375 4.17767 166.209 4.17077V3.69454H168.903V4.17077C168.77 4.17077 168.663 4.18285 168.581 4.207C168.503 4.22771 168.44 4.26567 168.392 4.32088C168.348 4.3761 168.318 4.45029 168.301 4.54347C168.287 4.63319 168.28 4.74535 168.28 4.87993V5.55804L170.142 4.09312C170.193 4.05171 170.255 4.00512 170.326 3.95336C170.398 3.9016 170.472 3.85328 170.551 3.80842C170.629 3.76356 170.709 3.7256 170.79 3.69454C170.872 3.66348 170.95 3.64795 171.025 3.64795C171.154 3.64795 171.25 3.69282 171.311 3.78254C171.372 3.86881 171.403 3.96889 171.403 4.08277C171.403 4.12763 171.392 4.17767 171.372 4.23288C171.355 4.2881 171.328 4.33986 171.29 4.38818C171.256 4.43304 171.214 4.471 171.163 4.50206C171.112 4.53311 171.056 4.54864 170.995 4.54864C170.92 4.54864 170.848 4.54174 170.78 4.52794C170.716 4.51068 170.649 4.50206 170.581 4.50206C170.523 4.50206 170.46 4.51241 170.392 4.53311C170.328 4.55382 170.256 4.59523 170.178 4.65735L169.714 5.03005C169.915 5.42 170.093 5.75129 170.25 6.02391C170.406 6.29653 170.544 6.5243 170.663 6.70719C170.785 6.88664 170.889 7.02813 170.974 7.13166C171.063 7.23518 171.136 7.31283 171.193 7.36459C171.255 7.41636 171.304 7.44914 171.341 7.46295C171.379 7.47675 171.408 7.48365 171.428 7.48365C171.466 7.48365 171.495 7.47847 171.515 7.46812L171.556 7.934C171.478 7.97541 171.394 8.00647 171.306 8.02717C171.217 8.05133 171.103 8.06341 170.964 8.06341C170.828 8.06341 170.7 8.05305 170.581 8.03235C170.466 8.01509 170.353 7.97886 170.244 7.92364C170.136 7.86498 170.027 7.78561 169.918 7.68553C169.809 7.582 169.693 7.44742 169.571 7.28177C169.449 7.11268 169.316 6.90907 169.173 6.67096C169.03 6.43285 168.87 6.14987 168.693 5.82203L168.28 6.14297V6.74861Z" fill="#1F316A"/>
<path d="M177.852 4.17077C177.682 4.17767 177.547 4.18975 177.449 4.207C177.35 4.22426 177.275 4.25877 177.224 4.31053C177.173 4.36229 177.139 4.43649 177.122 4.53311C177.109 4.62974 177.102 4.76088 177.102 4.92652V6.70202C177.102 6.86766 177.109 6.9988 177.122 7.09542C177.139 7.19205 177.173 7.26624 177.224 7.31801C177.275 7.36977 177.35 7.40601 177.449 7.42671C177.547 7.44397 177.682 7.45432 177.852 7.45777V7.934H175.158V7.45777C175.29 7.45777 175.396 7.44742 175.474 7.42671C175.556 7.40255 175.619 7.36287 175.663 7.30765C175.711 7.25244 175.741 7.17997 175.755 7.09025C175.772 6.99707 175.78 6.88319 175.78 6.74861V5.43898L174.046 6.88837C174.049 6.9988 174.061 7.09025 174.081 7.16272C174.105 7.23518 174.139 7.29385 174.183 7.33871C174.231 7.38012 174.294 7.41118 174.372 7.43189C174.45 7.44914 174.549 7.45777 174.668 7.45777V7.934H171.974V7.45777C172.141 7.45432 172.273 7.44397 172.372 7.42671C172.474 7.40601 172.551 7.36977 172.602 7.31801C172.653 7.26624 172.685 7.19205 172.699 7.09542C172.716 6.9988 172.724 6.86766 172.724 6.70202V4.92652C172.724 4.76088 172.716 4.62974 172.699 4.53311C172.685 4.43649 172.653 4.36229 172.602 4.31053C172.551 4.25877 172.474 4.22426 172.372 4.207C172.273 4.18975 172.141 4.17767 171.974 4.17077V3.69454H174.668V4.17077C174.535 4.17077 174.428 4.18285 174.347 4.207C174.268 4.22771 174.205 4.26567 174.158 4.32088C174.114 4.3761 174.083 4.45029 174.066 4.54347C174.052 4.63319 174.046 4.74535 174.046 4.87993V6.14297L175.775 4.69876C175.768 4.59868 175.753 4.51586 175.729 4.45029C175.709 4.38127 175.675 4.32606 175.627 4.28465C175.583 4.24324 175.522 4.2139 175.444 4.19665C175.369 4.1794 175.273 4.17077 175.158 4.17077V3.69454H177.852V4.17077Z" fill="#1F316A"/>
<path d="M185.51 7.934H182.347V7.45777C182.554 7.45432 182.717 7.43706 182.837 7.40601C182.956 7.37495 183.046 7.32663 183.107 7.26107C183.168 7.1955 183.207 7.11095 183.224 7.00742C183.241 6.9039 183.252 6.77794 183.255 6.62955V5.00934L181.643 7.934H181.357L179.709 5.00934V6.40696C179.709 6.51739 179.711 6.61402 179.714 6.69684C179.717 6.77966 179.723 6.85213 179.729 6.91425C179.74 6.97637 179.753 7.03158 179.77 7.07989C179.787 7.12821 179.809 7.17307 179.837 7.21448C179.894 7.2973 179.984 7.35942 180.107 7.40083C180.229 7.43879 180.403 7.45777 180.627 7.45777V7.934H178.291V7.45777C178.515 7.45777 178.687 7.43706 178.806 7.39565C178.928 7.35424 179.018 7.29213 179.076 7.2093C179.103 7.16789 179.126 7.12303 179.143 7.07472C179.16 7.0264 179.172 6.97119 179.178 6.90907C179.189 6.84696 179.194 6.77621 179.194 6.69684C179.197 6.61402 179.199 6.51739 179.199 6.40696V5.21122C179.199 4.92134 179.185 4.70739 179.158 4.56935C179.144 4.50378 179.119 4.44684 179.081 4.39853C179.047 4.34676 178.996 4.30535 178.928 4.2743C178.86 4.23979 178.774 4.2139 178.668 4.19665C178.566 4.1794 178.44 4.17077 178.291 4.17077V3.69454H180.597L181.923 6.09638L183.255 3.69454H185.51V4.17077C185.122 4.17077 184.871 4.23461 184.755 4.36229C184.643 4.48653 184.587 4.69876 184.587 4.99899V6.62955C184.587 6.77104 184.595 6.89354 184.612 6.99707C184.632 7.09715 184.673 7.1817 184.735 7.25071C184.799 7.31628 184.893 7.36632 185.015 7.40083C185.138 7.43534 185.303 7.45432 185.51 7.45777V7.934Z" fill="#1F316A"/>
<path d="M187.877 1.51011C187.877 1.61709 187.874 1.71371 187.867 1.79999C187.86 1.88626 187.847 2.02257 187.826 2.20892L187.428 5.59945H186.969L186.571 2.20892C186.537 1.90524 186.52 1.6723 186.52 1.51011C186.52 1.24784 186.588 1.05459 186.724 0.930354C186.86 0.806121 187.015 0.744004 187.189 0.744004C187.386 0.744004 187.549 0.807846 187.678 0.93553C187.811 1.05976 187.877 1.25129 187.877 1.51011ZM188 7.2973C188 7.52506 187.922 7.71659 187.765 7.87188C187.609 8.02717 187.42 8.10482 187.199 8.10482C186.981 8.10482 186.794 8.02717 186.638 7.87188C186.481 7.71659 186.403 7.52506 186.403 7.2973C186.403 7.06954 186.479 6.87629 186.633 6.71755C186.786 6.5588 186.974 6.47943 187.199 6.47943C187.423 6.47943 187.612 6.5588 187.765 6.71755C187.922 6.87284 188 7.06609 188 7.2973Z" fill="#1F316A"/>
</svg>
