<svg width="188" height="12" viewBox="0 0 188 12" fill="none" xmlns="http://www.w3.org/2000/svg">
<path d="M16.5742 11.7318H10.7817V10.9509C11.2814 10.9509 11.6477 10.9028 11.8806 10.8066C12.1134 10.7047 12.2639 10.5604 12.332 10.3736C12.4059 10.1812 12.4428 9.92092 12.4428 9.5927V2.3775L8.08133 11.7318H7.5617L3.14061 2.3775V9.2277C3.14061 9.58987 3.15197 9.86716 3.17469 10.0596C3.20308 10.252 3.26839 10.4161 3.37061 10.5519C3.47851 10.6877 3.64604 10.7896 3.8732 10.8575C4.10036 10.9197 4.41554 10.9509 4.81875 10.9509V11.7318H0.54248V10.9509C0.951367 10.9509 1.26655 10.9169 1.48803 10.849C1.71519 10.7811 1.87988 10.6792 1.9821 10.5434C2.08432 10.4076 2.14679 10.2463 2.16951 10.0596C2.19222 9.86716 2.20358 9.58987 2.20358 9.2277V2.70855C2.20358 2.22188 2.17803 1.87102 2.12692 1.65598C2.0758 1.44094 1.93383 1.27966 1.70099 1.17214C1.47383 1.05896 1.08766 1.00237 0.54248 1.00237V0.221433H4.76764L8.60095 8.34489L12.4428 0.221433H16.5742V1.00237C15.8644 1.00237 15.4044 1.10706 15.1942 1.31644C14.9898 1.52017 14.8876 1.86819 14.8876 2.36053V9.5927C14.8876 9.90394 14.9217 10.1558 14.9898 10.3482C15.058 10.5406 15.2141 10.6905 15.4583 10.7981C15.7082 10.8999 16.0802 10.9509 16.5742 10.9509V11.7318Z" fill="#1F316A"/>
<path d="M28.8579 11.7318H23.4146V10.9509C23.8746 10.9509 24.2096 10.9197 24.4197 10.8575C24.6299 10.7896 24.7349 10.634 24.7349 10.3906C24.7349 10.2208 24.7009 10.0482 24.6327 9.87282L24.0875 8.51466H20.3394L20.0583 9.26165C19.8993 9.68041 19.8198 9.98317 19.8198 10.1699C19.8198 10.5095 19.9504 10.7245 20.2116 10.815C20.4785 10.9056 20.788 10.9509 21.1401 10.9509V11.7318H17.162V10.9509C17.48 10.9509 17.7498 10.8914 17.9713 10.7726C18.1927 10.6538 18.4029 10.4302 18.6016 10.102C18.8061 9.76813 19.0247 9.29843 19.2576 8.69292L22.5883 0.000732422H23.3975L26.9157 8.96455C27.1712 9.59836 27.3586 10.0284 27.4779 10.2548C27.5971 10.4755 27.7618 10.6481 27.972 10.7726C28.1821 10.8914 28.4774 10.9509 28.8579 10.9509V11.7318ZM23.7809 7.68279L22.1879 3.66775L20.6716 7.68279H23.7809Z" fill="#1F316A"/>
<path d="M42.9389 11.7318H37.2571V10.9509C37.7228 10.9509 38.0749 10.8999 38.3134 10.7981C38.5519 10.6962 38.7052 10.5491 38.7734 10.3567C38.8415 10.1643 38.8756 9.9096 38.8756 9.5927V6.13789H33.5175V9.5927C33.5175 10.0681 33.6169 10.4133 33.8156 10.6283C34.0144 10.8433 34.4687 10.9509 35.1786 10.9509V11.7318H29.4542V10.9509C29.9142 10.9509 30.2634 10.8999 30.5019 10.7981C30.7461 10.6962 30.9023 10.5519 30.9705 10.3651C31.0443 10.1727 31.0812 9.91526 31.0812 9.5927V2.36053C31.0812 2.03796 31.0471 1.78614 30.979 1.60505C30.9108 1.41831 30.7603 1.27117 30.5275 1.16365C30.2947 1.05613 29.9369 1.00237 29.4542 1.00237V0.221433H35.1786V1.00237C34.4744 1.00237 34.0201 1.10706 33.8156 1.31644C33.6169 1.52583 33.5175 1.87385 33.5175 2.36053V5.19567H38.8756V2.36053C38.8756 2.03796 38.8444 1.78614 38.7819 1.60505C38.7194 1.41831 38.5718 1.27117 38.3389 1.16365C38.1061 1.05613 37.7455 1.00237 37.2571 1.00237V0.221433H42.9389V1.00237C42.4562 1.00237 42.0984 1.05613 41.8656 1.16365C41.6327 1.27117 41.4822 1.41831 41.4141 1.60505C41.3516 1.78614 41.3204 2.03796 41.3204 2.36053V9.5927C41.3204 9.90394 41.3488 10.1529 41.4056 10.3397C41.468 10.5208 41.6185 10.6679 41.8571 10.7811C42.0956 10.8943 42.4562 10.9509 42.9389 10.9509V11.7318Z" fill="#1F316A"/>
<path d="M48.28 1.46075C48.28 1.523 48.3112 1.63335 48.3737 1.7918C48.4418 1.94459 48.5611 2.13983 48.7315 2.3775L50.5629 4.96649L52.6159 2.3096C52.6897 2.21339 52.7493 2.13134 52.7948 2.06343C52.8402 1.99552 52.8743 1.9361 52.897 1.88517C52.9197 1.82858 52.9339 1.77765 52.9396 1.73238C52.9453 1.68711 52.9481 1.63901 52.9481 1.58808C52.9481 1.37869 52.8714 1.22873 52.7181 1.13819C52.5704 1.04764 52.2922 1.00237 51.8833 1.00237H51.4829V0.221433H56.2448V1.00237C55.8245 1.00237 55.4582 1.07311 55.1459 1.21458C54.9869 1.28815 54.8477 1.36738 54.7285 1.45226C54.6149 1.53149 54.4956 1.63052 54.3707 1.74936C54.2514 1.86819 54.118 2.01816 53.9703 2.19925C53.8283 2.37467 53.6523 2.5982 53.4422 2.86983L47.4878 10.467C47.3174 10.6877 47.1442 10.8886 46.9681 11.0697C46.7921 11.2508 46.6132 11.4064 46.4315 11.5366C46.2497 11.6667 46.0595 11.7657 45.8607 11.8337C45.6677 11.9072 45.466 11.944 45.2559 11.944C45.0401 11.944 44.8499 11.9157 44.6852 11.8591C44.5205 11.8082 44.3814 11.7375 44.2678 11.6469C44.1542 11.5564 44.0662 11.4545 44.0037 11.3413C43.9469 11.2225 43.9185 11.1008 43.9185 10.9763C43.9185 10.7047 43.998 10.484 44.157 10.3142C44.3217 10.1444 44.5375 10.0596 44.8044 10.0596C44.9578 10.0596 45.1139 10.0765 45.273 10.1105C45.4377 10.1388 45.5796 10.1529 45.6989 10.1529C46.2043 10.1529 46.5621 10.0228 46.7722 9.76247L48.9955 6.96127L46.0056 2.65762C45.8181 2.38599 45.6535 2.15963 45.5115 1.97855C45.3752 1.7918 45.2644 1.65032 45.1793 1.55412C45.0941 1.45226 45.0004 1.36738 44.8981 1.29947C44.8016 1.23156 44.688 1.17497 44.5574 1.1297C44.4268 1.08443 44.2763 1.0533 44.1059 1.03633C43.9356 1.01369 43.7368 1.00237 43.5096 1.00237V0.221433H49.7281V1.00237H49.2852C49.1205 1.00237 48.9757 1.00803 48.8507 1.01935C48.7258 1.02501 48.6207 1.04481 48.5355 1.07877C48.4504 1.10706 48.385 1.15233 48.3396 1.21458C48.2999 1.27683 48.28 1.35889 48.28 1.46075Z" fill="#1F316A"/>
<path d="M70.0787 5.97661C70.0787 6.42933 69.9566 6.85941 69.7124 7.26686C69.4739 7.67431 69.1275 8.03931 68.6732 8.36187C68.2246 8.68443 67.6737 8.95606 67.0206 9.17676C66.3732 9.39181 65.6378 9.53611 64.8143 9.60968C64.82 9.84735 64.8399 10.0511 64.874 10.2208C64.9137 10.385 64.9932 10.5208 65.1125 10.6283C65.2317 10.7302 65.4049 10.8094 65.6321 10.866C65.8649 10.9169 66.1744 10.9452 66.5606 10.9509V11.7318H60.6999V10.9509C61.0747 10.9452 61.3757 10.9197 61.6029 10.8745C61.83 10.8235 62.0032 10.7471 62.1225 10.6453C62.2474 10.5434 62.3298 10.4104 62.3695 10.2463C62.415 10.0765 62.4405 9.86433 62.4462 9.60968C61.5432 9.53611 60.7595 9.37766 60.0951 9.13432C59.4363 8.89099 58.8912 8.60238 58.4596 8.2685C58.028 7.92896 57.7071 7.56113 57.497 7.165C57.2868 6.76321 57.1818 6.36425 57.1818 5.96812C57.1818 5.52672 57.2982 5.10513 57.531 4.70334C57.7696 4.2959 58.1131 3.93089 58.5618 3.60833C59.0104 3.28577 59.5613 3.01414 60.2144 2.79344C60.8674 2.57274 61.6114 2.42843 62.4462 2.36053C62.4462 2.06626 62.4064 1.83141 62.3269 1.65598C62.2474 1.48056 62.131 1.34474 61.9777 1.24854C61.83 1.15233 61.6483 1.09009 61.4325 1.06179C61.2167 1.02784 60.9725 1.00803 60.6999 1.00237V0.221433H66.5606V1.00237C66.1858 1.01369 65.8848 1.04481 65.6577 1.09574C65.4305 1.14102 65.2544 1.21741 65.1295 1.32493C65.0046 1.42679 64.9194 1.56261 64.874 1.73238C64.8342 1.89649 64.8143 2.10587 64.8143 2.36053C65.8252 2.44541 66.6685 2.62084 67.3443 2.88681C68.0201 3.15278 68.5596 3.4612 68.9628 3.81205C69.366 4.16291 69.6528 4.53074 69.8232 4.91555C69.9936 5.30036 70.0787 5.65405 70.0787 5.97661ZM59.9418 5.95964C59.9418 6.18034 59.9645 6.43499 60.0099 6.7236C60.061 7.00655 60.1718 7.28384 60.3421 7.55547C60.5125 7.8271 60.7624 8.07609 61.0918 8.30245C61.4268 8.52315 61.8783 8.68443 62.4462 8.78629V3.16693C61.9464 3.25182 61.5347 3.38763 61.211 3.57438C60.8873 3.76112 60.6318 3.98182 60.4444 4.23648C60.2569 4.48547 60.1263 4.75993 60.0525 5.05986C59.9787 5.35413 59.9418 5.65405 59.9418 5.95964ZM67.3188 5.95964C67.3188 5.64839 67.279 5.34564 67.1995 5.05137C67.12 4.75144 66.9837 4.47698 66.7906 4.22799C66.5975 3.97333 66.3391 3.75546 66.0154 3.57438C65.6974 3.38763 65.297 3.25182 64.8143 3.16693V8.79478C65.2062 8.72122 65.5412 8.61936 65.8195 8.4892C66.0978 8.35338 66.3278 8.20342 66.5095 8.03931C66.6969 7.86954 66.8446 7.69128 66.9525 7.50454C67.0604 7.31779 67.1399 7.13104 67.191 6.9443C67.2478 6.75755 67.2818 6.57929 67.2932 6.40952C67.3102 6.23976 67.3188 6.08979 67.3188 5.95964Z" fill="#1F316A"/>
<path d="M82.7457 11.7318H77.3024V10.9509C77.7624 10.9509 78.0975 10.9197 78.3076 10.8575C78.5177 10.7896 78.6228 10.634 78.6228 10.3906C78.6228 10.2208 78.5887 10.0482 78.5205 9.87282L77.9754 8.51466H74.2272L73.9461 9.26165C73.7871 9.68041 73.7076 9.98317 73.7076 10.1699C73.7076 10.5095 73.8382 10.7245 74.0995 10.815C74.3664 10.9056 74.6759 10.9509 75.028 10.9509V11.7318H71.0499V10.9509C71.3679 10.9509 71.6376 10.8914 71.8591 10.7726C72.0806 10.6538 72.2907 10.4302 72.4895 10.102C72.6939 9.76813 72.9126 9.29843 73.1454 8.69292L76.4761 0.000732422H77.2854L80.8035 8.96455C81.0591 9.59836 81.2465 10.0284 81.3657 10.2548C81.485 10.4755 81.6497 10.6481 81.8598 10.7726C82.0699 10.8914 82.3652 10.9509 82.7457 10.9509V11.7318ZM77.6687 7.68279L76.0757 3.66775L74.5595 7.68279H77.6687Z" fill="#1F316A"/>
<path d="M95.8216 11.7318H92.7294C92.4454 11.3753 92.1842 11.0188 91.9457 10.6622C91.7071 10.3001 91.4771 9.9379 91.2557 9.57572C91.0399 9.21355 90.8241 8.8542 90.6083 8.49769C90.3981 8.14117 90.1767 7.78749 89.9438 7.43663C89.8075 7.23291 89.6797 7.07445 89.5605 6.96127C89.4469 6.84809 89.3021 6.76321 89.126 6.70662C88.9557 6.65003 88.737 6.61608 88.4701 6.60476C88.2032 6.59344 87.8483 6.58778 87.4053 6.58778V9.5927C87.4053 9.84169 87.428 10.0539 87.4735 10.2293C87.5246 10.3991 87.6126 10.5377 87.7375 10.6453C87.8625 10.7528 88.0328 10.832 88.2486 10.8829C88.4701 10.9282 88.7484 10.9509 89.0835 10.9509V11.7318H83.3079V10.9509C83.6827 10.9452 83.978 10.9169 84.1938 10.866C84.4153 10.8094 84.58 10.7273 84.6879 10.6198C84.8015 10.5123 84.8753 10.3736 84.9094 10.2039C84.9435 10.0341 84.9633 9.83038 84.969 9.5927V2.36053C84.969 2.12285 84.952 1.91913 84.9179 1.74936C84.8895 1.57959 84.8185 1.44377 84.705 1.34191C84.5914 1.23439 84.4238 1.15516 84.2024 1.10423C83.9866 1.04764 83.6884 1.01369 83.3079 1.00237V0.221433H89.0835V1.00237C88.3736 1.00237 87.9164 1.10423 87.712 1.30796C87.5075 1.51168 87.4053 1.86254 87.4053 2.36053V5.3994C87.5019 5.3994 87.6154 5.37676 87.746 5.33149C87.8767 5.28056 88.0442 5.18153 88.2486 5.03439C88.4531 4.88726 88.7001 4.67505 88.9897 4.39776C89.2794 4.11481 89.6343 3.74415 90.0546 3.28577C90.3158 2.9915 90.5316 2.73968 90.702 2.5303C90.8723 2.32091 91.0257 2.13134 91.162 1.96157C91.3039 1.78614 91.4487 1.6192 91.5964 1.46075C91.7497 1.29664 91.9371 1.11555 92.1586 0.917487C92.346 0.753376 92.5249 0.614731 92.6953 0.501552C92.8656 0.382713 93.036 0.28934 93.2064 0.221433C93.3768 0.147866 93.5528 0.096935 93.7345 0.0686402C93.9219 0.0346863 94.1235 0.0177094 94.3393 0.0177094C94.4529 0.0177094 94.5608 0.0318568 94.663 0.0601517C94.7709 0.0827876 94.8646 0.1224 94.9442 0.17899C95.0237 0.23558 95.0861 0.306317 95.1316 0.391202C95.177 0.470428 95.1997 0.56946 95.1997 0.688298C95.1997 0.852409 95.16 1.0052 95.0805 1.14668C95.0066 1.28815 94.8533 1.40133 94.6205 1.48621C94.3649 1.57676 94.115 1.64467 93.8708 1.68994C93.6266 1.72955 93.4137 1.78614 93.2319 1.85971C93.1297 1.89932 93.019 1.94459 92.8997 1.99552C92.7805 2.04645 92.6555 2.11153 92.5249 2.19076C92.3943 2.26432 92.2552 2.3577 92.1075 2.47088C91.9655 2.5784 91.8207 2.70855 91.6731 2.86135C91.5424 2.99716 91.3863 3.16976 91.2045 3.37914C91.0228 3.58852 90.8127 3.81771 90.5742 4.06671C90.3413 4.31004 90.0858 4.56187 89.8075 4.82218C89.5292 5.08249 89.2339 5.32583 88.9216 5.55219C88.9841 5.54653 89.0437 5.5437 89.1005 5.5437C89.163 5.53804 89.2226 5.53521 89.2794 5.53521C89.5974 5.53521 89.887 5.55502 90.1483 5.59463C90.4152 5.63424 90.665 5.70781 90.8979 5.81533C91.1364 5.91719 91.3607 6.06433 91.5708 6.25673C91.781 6.44348 91.9939 6.68964 92.2097 6.99523C92.5789 7.52717 92.9423 8.06478 93.3001 8.60804C93.6579 9.1513 94.0384 9.6889 94.4416 10.2208C94.5324 10.3397 94.6347 10.4472 94.7482 10.5434C94.8618 10.634 94.9782 10.7103 95.0975 10.7726C95.2224 10.8292 95.3445 10.8745 95.4638 10.9084C95.5887 10.9367 95.708 10.9509 95.8216 10.9509V11.7318Z" fill="#1F316A"/>
<path d="M107.773 3.48949H106.964C106.89 2.77646 106.731 2.25018 106.487 1.91064C106.248 1.5711 105.99 1.36172 105.712 1.28249C105.433 1.20327 105.112 1.16365 104.749 1.16365H103.284V9.5927C103.284 9.92658 103.318 10.1869 103.386 10.3736C103.454 10.5547 103.613 10.6962 103.863 10.7981C104.113 10.8999 104.479 10.9509 104.962 10.9509V11.7318H99.1693V10.9509C99.8792 10.9509 100.336 10.849 100.541 10.6453C100.745 10.4415 100.847 10.0907 100.847 9.5927V1.16365H99.6208C99.1381 1.16365 98.7377 1.20327 98.4197 1.28249C98.1017 1.35606 97.8206 1.56544 97.5764 1.91064C97.3378 2.25018 97.2015 2.77646 97.1675 3.48949H96.3582V0.221433H107.773V3.48949Z" fill="#1F316A"/>
<path d="M113.14 1.46075C113.14 1.523 113.171 1.63335 113.233 1.7918C113.301 1.94459 113.421 2.13983 113.591 2.3775L115.423 4.96649L117.476 2.3096C117.549 2.21339 117.609 2.13134 117.654 2.06343C117.7 1.99552 117.734 1.9361 117.757 1.88517C117.779 1.82858 117.794 1.77765 117.799 1.73238C117.805 1.68711 117.808 1.63901 117.808 1.58808C117.808 1.37869 117.731 1.22873 117.578 1.13819C117.43 1.04764 117.152 1.00237 116.743 1.00237H116.343V0.221433H121.104V1.00237C120.684 1.00237 120.318 1.07311 120.005 1.21458C119.846 1.28815 119.707 1.36738 119.588 1.45226C119.475 1.53149 119.355 1.63052 119.23 1.74936C119.111 1.86819 118.978 2.01816 118.83 2.19925C118.688 2.37467 118.512 2.5982 118.302 2.86983L112.347 10.467C112.177 10.6877 112.004 10.8886 111.828 11.0697C111.652 11.2508 111.473 11.4064 111.291 11.5366C111.109 11.6667 110.919 11.7657 110.72 11.8337C110.527 11.9072 110.326 11.944 110.116 11.944C109.9 11.944 109.71 11.9157 109.545 11.8591C109.38 11.8082 109.241 11.7375 109.127 11.6469C109.014 11.5564 108.926 11.4545 108.863 11.3413C108.807 11.2225 108.778 11.1008 108.778 10.9763C108.778 10.7047 108.858 10.484 109.017 10.3142C109.181 10.1444 109.397 10.0596 109.664 10.0596C109.817 10.0596 109.974 10.0765 110.133 10.1105C110.297 10.1388 110.439 10.1529 110.559 10.1529C111.064 10.1529 111.422 10.0228 111.632 9.76247L113.855 6.96127L110.865 2.65762C110.678 2.38599 110.513 2.15963 110.371 1.97855C110.235 1.7918 110.124 1.65032 110.039 1.55412C109.954 1.45226 109.86 1.36738 109.758 1.29947C109.661 1.23156 109.548 1.17497 109.417 1.1297C109.286 1.08443 109.136 1.0533 108.966 1.03633C108.795 1.01369 108.596 1.00237 108.369 1.00237V0.221433H114.588V1.00237H114.145C113.98 1.00237 113.835 1.00803 113.71 1.01935C113.585 1.02501 113.48 1.04481 113.395 1.07877C113.31 1.10706 113.245 1.15233 113.199 1.21458C113.159 1.27683 113.14 1.35889 113.14 1.46075Z" fill="#1F316A"/>
<path d="M131.991 3.28577C131.991 4.23082 131.699 4.94951 131.114 5.44184C130.529 5.92851 129.839 6.24258 129.044 6.38406C128.254 6.51987 127.422 6.58778 126.548 6.58778H125.781V9.5927C125.781 9.93224 125.818 10.1954 125.892 10.3821C125.966 10.5689 126.125 10.7103 126.369 10.8066C126.613 10.9028 126.985 10.9509 127.485 10.9509V11.7318H121.675V10.9509C122.169 10.9509 122.533 10.8999 122.765 10.7981C123.004 10.6962 123.157 10.5519 123.225 10.3651C123.299 10.1784 123.336 9.92092 123.336 9.5927V2.32657C123.336 1.99835 123.302 1.7437 123.234 1.56261C123.166 1.37586 123.013 1.23156 122.774 1.1297C122.535 1.02218 122.169 0.968418 121.675 0.968418V0.170502L124.972 0.0856171C125.142 0.0799581 125.327 0.0771286 125.525 0.0771286C125.73 0.0714696 125.892 0.0686402 126.011 0.0686402C126.13 0.0629812 126.306 0.0601517 126.539 0.0601517C126.829 0.0601517 127.045 0.0629812 127.187 0.0686402C127.862 0.096935 128.513 0.162013 129.137 0.263875C129.762 0.365736 130.392 0.654344 131.028 1.1297C131.67 1.59939 131.991 2.31808 131.991 3.28577ZM129.367 3.30275C129.367 2.38599 129.098 1.77482 128.558 1.46924C128.024 1.15799 127.32 1.00237 126.445 1.00237C126.286 1.00237 126.065 1.00803 125.781 1.01935V5.64556H126.565C127.4 5.64556 128.075 5.50409 128.592 5.22114C129.109 4.93253 129.367 4.29307 129.367 3.30275Z" fill="#1F316A"/>
<path d="M144.351 11.7318H138.908V10.9509C139.368 10.9509 139.703 10.9197 139.913 10.8575C140.123 10.7896 140.228 10.634 140.228 10.3906C140.228 10.2208 140.194 10.0482 140.126 9.87282L139.581 8.51466H135.833L135.552 9.26165C135.393 9.68041 135.313 9.98317 135.313 10.1699C135.313 10.5095 135.444 10.7245 135.705 10.815C135.972 10.9056 136.281 10.9509 136.634 10.9509V11.7318H132.655V10.9509C132.973 10.9509 133.243 10.8914 133.465 10.7726C133.686 10.6538 133.896 10.4302 134.095 10.102C134.299 9.76813 134.518 9.29843 134.751 8.69292L138.082 0.000732422H138.891L142.409 8.96455C142.665 9.59836 142.852 10.0284 142.971 10.2548C143.091 10.4755 143.255 10.6481 143.465 10.7726C143.675 10.8914 143.971 10.9509 144.351 10.9509V11.7318ZM139.274 7.68279L137.681 3.66775L136.165 7.68279H139.274Z" fill="#1F316A"/>
<path d="M160.681 11.613H159.88C159.761 11.1263 159.565 10.6905 159.293 10.3057C158.861 10.7528 158.367 11.1376 157.81 11.4602C157.254 11.7827 156.501 11.944 155.553 11.944C154.514 11.944 153.548 11.6922 152.657 11.1885C151.771 10.6849 151.064 9.98317 150.536 9.08339C150.008 8.17795 149.743 7.15934 149.743 6.02754C149.743 5.22397 149.885 4.45718 150.169 3.72717C150.459 2.99716 150.868 2.35487 151.396 1.80029C151.93 1.24571 152.563 0.809966 153.296 0.493063C154.034 0.176161 154.84 0.0177094 155.715 0.0177094C157.157 0.0177094 158.35 0.487404 159.293 1.42679C159.418 1.18346 159.54 0.829773 159.659 0.365736H160.426L160.562 4.60148H159.744C159.596 3.88279 159.33 3.24333 158.943 2.68309C158.557 2.12285 158.097 1.6956 157.563 1.40133C157.035 1.1014 156.482 0.951441 155.902 0.951441C155.255 0.951441 154.673 1.1297 154.156 1.48621C153.639 1.83707 153.233 2.37467 152.938 3.09902C152.648 3.82337 152.503 4.72598 152.503 5.80684C152.503 6.85941 152.626 7.73655 152.87 8.43827C153.114 9.13432 153.415 9.66061 153.773 10.0171C154.136 10.3736 154.5 10.617 154.863 10.7471C155.227 10.8716 155.567 10.9339 155.885 10.9339C156.584 10.9339 157.211 10.7471 157.768 10.3736C158.33 10.0001 158.79 9.53045 159.148 8.96455C159.506 8.393 159.744 7.8271 159.863 7.26686H160.681V11.613Z" fill="#1F316A"/>
<path d="M175.708 11.7318H170.026V10.9509C170.492 10.9509 170.844 10.8999 171.082 10.7981C171.321 10.6962 171.474 10.5491 171.542 10.3567C171.61 10.1643 171.644 9.9096 171.644 9.5927V6.13789H166.286V9.5927C166.286 10.0681 166.386 10.4133 166.584 10.6283C166.783 10.8433 167.238 10.9509 167.947 10.9509V11.7318H162.223V10.9509C162.683 10.9509 163.032 10.8999 163.271 10.7981C163.515 10.6962 163.671 10.5519 163.739 10.3651C163.813 10.1727 163.85 9.91526 163.85 9.5927V2.36053C163.85 2.03796 163.816 1.78614 163.748 1.60505C163.68 1.41831 163.529 1.27117 163.296 1.16365C163.064 1.05613 162.706 1.00237 162.223 1.00237V0.221433H167.947V1.00237C167.243 1.00237 166.789 1.10706 166.584 1.31644C166.386 1.52583 166.286 1.87385 166.286 2.36053V5.19567H171.644V2.36053C171.644 2.03796 171.613 1.78614 171.551 1.60505C171.488 1.41831 171.341 1.27117 171.108 1.16365C170.875 1.05613 170.514 1.00237 170.026 1.00237V0.221433H175.708V1.00237C175.225 1.00237 174.867 1.05613 174.634 1.16365C174.402 1.27117 174.251 1.41831 174.183 1.60505C174.12 1.78614 174.089 2.03796 174.089 2.36053V9.5927C174.089 9.90394 174.118 10.1529 174.174 10.3397C174.237 10.5208 174.387 10.6679 174.626 10.7811C174.864 10.8943 175.225 10.9509 175.708 10.9509V11.7318Z" fill="#1F316A"/>
<path d="M188 11.7318H182.557V10.9509C183.017 10.9509 183.352 10.9197 183.562 10.8575C183.772 10.7896 183.877 10.634 183.877 10.3906C183.877 10.2208 183.843 10.0482 183.775 9.87282L183.23 8.51466H179.481L179.2 9.26165C179.041 9.68041 178.962 9.98317 178.962 10.1699C178.962 10.5095 179.092 10.7245 179.354 10.815C179.621 10.9056 179.93 10.9509 180.282 10.9509V11.7318H176.304V10.9509C176.622 10.9509 176.892 10.8914 177.113 10.7726C177.335 10.6538 177.545 10.4302 177.744 10.102C177.948 9.76813 178.167 9.29843 178.4 8.69292L181.73 0.000732422H182.54L186.058 8.96455C186.313 9.59836 186.501 10.0284 186.62 10.2548C186.739 10.4755 186.904 10.6481 187.114 10.7726C187.324 10.8914 187.619 10.9509 188 10.9509V11.7318ZM182.923 7.68279L181.33 3.66775L179.814 7.68279H182.923Z" fill="#1F316A"/>
</svg>
