<svg width="553" height="35" viewBox="0 0 553 35" fill="none" xmlns="http://www.w3.org/2000/svg">
<path d="M47.2937 34.3781H30.2057V32.0896C31.6799 32.0896 32.7605 31.9486 33.4474 31.6667C34.1343 31.3682 34.5782 30.9453 34.7792 30.398C34.997 29.8342 35.1059 29.0713 35.1059 28.1095V6.96517L22.2396 34.3781H20.7067L7.6645 6.96517V27.0398C7.6645 28.1012 7.69801 28.9138 7.76502 29.4776C7.84878 30.0415 8.04144 30.5224 8.343 30.9204C8.6613 31.3184 9.15552 31.6169 9.82564 31.8159C10.4958 31.9983 11.4256 32.0896 12.615 32.0896V34.3781H0V32.0896C1.20622 32.0896 2.13601 31.99 2.78938 31.791C3.4595 31.592 3.94533 31.2935 4.24689 30.8955C4.54844 30.4975 4.73272 30.0249 4.79974 29.4776C4.86675 28.9138 4.90025 28.1012 4.90025 27.0398V7.93532C4.90025 6.50912 4.82487 5.48093 4.67409 4.85075C4.52331 4.22056 4.10449 3.74793 3.41761 3.43284C2.74749 3.10116 1.60829 2.93532 0 2.93532V0.646766H12.4642L23.7725 24.4527L35.1059 0.646766H47.2937V2.93532C45.1996 2.93532 43.8426 3.24212 43.2228 3.85572C42.6196 4.45274 42.3181 5.47264 42.3181 6.91542V28.1095C42.3181 29.0216 42.4186 29.7595 42.6196 30.3234C42.8207 30.8872 43.2814 31.3267 44.0018 31.6418C44.7389 31.9403 45.8362 32.0896 47.2937 32.0896V34.3781Z" fill="white"/>
<path d="M83.5305 34.3781H67.4727V32.0896C68.8297 32.0896 69.8182 31.9983 70.438 31.8159C71.0579 31.6169 71.3678 31.1609 71.3678 30.4478C71.3678 29.9502 71.2673 29.4444 71.0663 28.9303L69.458 24.9502H58.401L57.5717 27.1393C57.1026 28.3665 56.8681 29.2537 56.8681 29.801C56.8681 30.796 57.2534 31.4262 58.024 31.6915C58.8114 31.9569 59.7245 32.0896 60.7632 32.0896V34.3781H49.0277V32.0896C49.9658 32.0896 50.7616 31.9154 51.415 31.5672C52.0683 31.2189 52.6882 30.5638 53.2746 29.602C53.8777 28.6235 54.5227 27.2471 55.2095 25.4726L65.0352 0H67.4225L77.801 26.2687C78.5548 28.126 79.1077 29.3864 79.4595 30.0498C79.8113 30.6965 80.2972 31.2023 80.917 31.5672C81.5369 31.9154 82.408 32.0896 83.5305 32.0896V34.3781ZM68.5533 22.5124L63.8541 10.7463L59.381 22.5124H68.5533Z" fill="white"/>
<path d="M125.07 34.3781H108.308V32.0896C109.682 32.0896 110.721 31.9403 111.424 31.6418C112.128 31.3433 112.58 30.9121 112.781 30.3483C112.982 29.7844 113.083 29.0381 113.083 28.1095V17.9851H97.2763V28.1095C97.2763 29.5025 97.5695 30.5141 98.1559 31.1443C98.7422 31.7745 100.082 32.0896 102.177 32.0896V34.3781H85.2896V32.0896C86.6465 32.0896 87.6769 31.9403 88.3805 31.6418C89.1009 31.3433 89.5616 30.9204 89.7626 30.3731C89.9804 29.8093 90.0893 29.0547 90.0893 28.1095V6.91542C90.0893 5.97015 89.9888 5.23217 89.7877 4.70149C89.5867 4.15423 89.1427 3.72305 88.4559 3.40796C87.769 3.09287 86.7136 2.93532 85.2896 2.93532V0.646766H102.177V2.93532C100.099 2.93532 98.759 3.24212 98.1559 3.85572C97.5695 4.46932 97.2763 5.48922 97.2763 6.91542V15.2239H113.083V6.91542C113.083 5.97015 112.991 5.23217 112.806 4.70149C112.622 4.15423 112.187 3.72305 111.5 3.40796C110.813 3.09287 109.749 2.93532 108.308 2.93532V0.646766H125.07V2.93532C123.646 2.93532 122.59 3.09287 121.903 3.40796C121.216 3.72305 120.772 4.15423 120.571 4.70149C120.387 5.23217 120.295 5.97015 120.295 6.91542V28.1095C120.295 29.0216 120.379 29.7512 120.546 30.2985C120.731 30.8292 121.174 31.2604 121.878 31.592C122.582 31.9237 123.646 32.0896 125.07 32.0896V34.3781Z" fill="white"/>
<path d="M140.826 4.27861C140.826 4.46103 140.918 4.78441 141.102 5.24876C141.303 5.69652 141.655 6.26866 142.158 6.96517L147.56 14.5522L153.617 6.76617C153.834 6.48425 154.01 6.24378 154.144 6.04478C154.278 5.84577 154.379 5.67164 154.446 5.52239C154.513 5.35655 154.555 5.2073 154.572 5.07463C154.588 4.94196 154.597 4.80099 154.597 4.65174C154.597 4.03814 154.371 3.59867 153.918 3.33333C153.483 3.06799 152.662 2.93532 151.456 2.93532H150.274V0.646766H164.322V2.93532C163.082 2.93532 162.002 3.14262 161.08 3.55721C160.611 3.7728 160.201 4.00498 159.849 4.25373C159.514 4.4859 159.162 4.77612 158.793 5.12438C158.442 5.47264 158.048 5.91211 157.612 6.44279C157.193 6.95688 156.674 7.61194 156.054 8.40796L138.489 30.6716C137.986 31.3184 137.475 31.9071 136.956 32.4378C136.436 32.9685 135.909 33.4245 135.373 33.806C134.837 34.1874 134.275 34.4776 133.689 34.6766C133.119 34.8922 132.525 35 131.905 35C131.268 35 130.707 34.9171 130.221 34.7512C129.735 34.602 129.325 34.3947 128.99 34.1294C128.655 33.864 128.395 33.5655 128.211 33.2338C128.043 32.8856 127.959 32.529 127.959 32.1642C127.959 31.3682 128.194 30.7214 128.663 30.2239C129.149 29.7264 129.786 29.4776 130.573 29.4776C131.025 29.4776 131.486 29.5274 131.955 29.6269C132.441 29.7098 132.86 29.7512 133.212 29.7512C134.703 29.7512 135.758 29.3698 136.378 28.607L142.937 20.398L134.116 7.78607C133.563 6.99005 133.077 6.3267 132.659 5.79602C132.257 5.24876 131.93 4.83416 131.679 4.55224C131.427 4.25373 131.151 4.00498 130.849 3.80597C130.565 3.60697 130.229 3.44113 129.844 3.30846C129.459 3.17579 129.015 3.08458 128.512 3.03483C128.01 2.96849 127.423 2.93532 126.753 2.93532V0.646766H145.098V2.93532H143.791C143.305 2.93532 142.878 2.95191 142.509 2.98507C142.141 3.00166 141.831 3.0597 141.58 3.1592C141.328 3.24212 141.136 3.37479 141.002 3.55721C140.884 3.73964 140.826 3.9801 140.826 4.27861Z" fill="white"/>
<path d="M205.132 17.5124C205.132 18.8391 204.772 20.0995 204.052 21.2935C203.348 22.4876 202.326 23.5572 200.986 24.5025C199.662 25.4478 198.037 26.2438 196.111 26.8905C194.201 27.5207 192.031 27.9436 189.602 28.1592C189.619 28.8557 189.678 29.4527 189.778 29.9502C189.895 30.4312 190.13 30.8292 190.482 31.1443C190.833 31.4428 191.344 31.675 192.015 31.8408C192.701 31.99 193.614 32.073 194.754 32.0896V34.3781H177.465V32.0896C178.57 32.073 179.458 31.9983 180.128 31.8657C180.798 31.7164 181.309 31.4925 181.661 31.194C182.03 30.8955 182.273 30.5058 182.39 30.0249C182.524 29.5274 182.599 28.9055 182.616 28.1592C179.952 27.9436 177.641 27.4793 175.68 26.7662C173.737 26.0531 172.129 25.2073 170.856 24.2289C169.582 23.2338 168.636 22.1559 168.016 20.995C167.396 19.8176 167.086 18.6484 167.086 17.4876C167.086 16.194 167.43 14.9585 168.116 13.7811C168.82 12.5871 169.834 11.5174 171.157 10.5721C172.481 9.62687 174.106 8.83085 176.032 8.18408C177.959 7.53731 180.153 7.11443 182.616 6.91542C182.616 6.05307 182.499 5.36484 182.264 4.85075C182.03 4.33665 181.686 3.93864 181.234 3.65672C180.798 3.37479 180.262 3.19237 179.626 3.10945C178.989 3.00995 178.269 2.95191 177.465 2.93532V0.646766H194.754V2.93532C193.648 2.96849 192.76 3.0597 192.09 3.20896C191.42 3.34163 190.9 3.56551 190.532 3.8806C190.163 4.1791 189.912 4.57711 189.778 5.07463C189.661 5.55556 189.602 6.16915 189.602 6.91542C192.584 7.16418 195.072 7.67828 197.066 8.45771C199.059 9.23715 200.651 10.141 201.84 11.1692C203.03 12.1973 203.876 13.2753 204.378 14.403C204.881 15.5307 205.132 16.5672 205.132 17.5124ZM175.228 17.4627C175.228 18.1095 175.295 18.8557 175.429 19.7015C175.58 20.5307 175.907 21.3433 176.409 22.1393C176.912 22.9353 177.649 23.665 178.621 24.3284C179.609 24.9751 180.941 25.4478 182.616 25.7463V9.27861C181.142 9.52736 179.927 9.92537 178.972 10.4726C178.017 11.0199 177.264 11.6667 176.711 12.4129C176.158 13.1426 175.773 13.9469 175.555 14.8259C175.337 15.6882 175.228 16.5672 175.228 17.4627ZM196.99 17.4627C196.99 16.5506 196.873 15.6634 196.638 14.801C196.404 13.9221 196.002 13.1177 195.432 12.3881C194.863 11.6418 194.1 11.0033 193.145 10.4726C192.207 9.92537 191.026 9.52736 189.602 9.27861V25.7711C190.758 25.5556 191.747 25.257 192.567 24.8756C193.388 24.4776 194.067 24.0381 194.603 23.5572C195.156 23.0597 195.591 22.5373 195.91 21.99C196.228 21.4428 196.463 20.8955 196.613 20.3483C196.781 19.801 196.881 19.2786 196.915 18.7811C196.965 18.2836 196.99 17.8441 196.99 17.4627Z" fill="white"/>
<path d="M242.5 34.3781H226.442V32.0896C227.799 32.0896 228.787 31.9983 229.407 31.8159C230.027 31.6169 230.337 31.1609 230.337 30.4478C230.337 29.9502 230.237 29.4444 230.036 28.9303L228.427 24.9502H217.37L216.541 27.1393C216.072 28.3665 215.837 29.2537 215.837 29.801C215.837 30.796 216.223 31.4262 216.993 31.6915C217.781 31.9569 218.694 32.0896 219.732 32.0896V34.3781H207.997V32.0896C208.935 32.0896 209.731 31.9154 210.384 31.5672C211.038 31.2189 211.657 30.5638 212.244 29.602C212.847 28.6235 213.492 27.2471 214.179 25.4726L224.004 0H226.392L236.77 26.2687C237.524 28.126 238.077 29.3864 238.429 30.0498C238.781 30.6965 239.266 31.2023 239.886 31.5672C240.506 31.9154 241.377 32.0896 242.5 32.0896V34.3781ZM227.523 22.5124L222.823 10.7463L218.35 22.5124H227.523Z" fill="white"/>
<path d="M281.074 34.3781H271.952C271.114 33.3333 270.343 32.2886 269.64 31.2438C268.936 30.1824 268.258 29.1211 267.604 28.0597C266.968 26.9983 266.331 25.9453 265.694 24.9005C265.074 23.8557 264.421 22.8192 263.734 21.791C263.332 21.194 262.955 20.7297 262.603 20.398C262.268 20.0663 261.841 19.8176 261.322 19.6517C260.819 19.4859 260.174 19.3864 259.387 19.3532C258.599 19.3201 257.552 19.3035 256.246 19.3035V28.1095C256.246 28.8391 256.313 29.461 256.447 29.9751C256.597 30.4726 256.857 30.8789 257.226 31.194C257.594 31.5091 258.097 31.7413 258.733 31.8905C259.387 32.0232 260.208 32.0896 261.196 32.0896V34.3781H244.158V32.0896C245.264 32.073 246.135 31.99 246.772 31.8408C247.425 31.675 247.911 31.4345 248.229 31.1194C248.564 30.8043 248.782 30.398 248.883 29.9005C248.983 29.403 249.042 28.806 249.059 28.1095V6.91542C249.059 6.21891 249.008 5.62189 248.908 5.12438C248.824 4.62687 248.615 4.22886 248.28 3.93035C247.944 3.61526 247.45 3.38308 246.797 3.23383C246.16 3.06799 245.281 2.96849 244.158 2.93532V0.646766H261.196V2.93532C259.102 2.93532 257.753 3.23383 257.15 3.83085C256.547 4.42786 256.246 5.45605 256.246 6.91542V15.8209C256.53 15.8209 256.865 15.7546 257.251 15.6219C257.636 15.4726 258.13 15.1824 258.733 14.7512C259.337 14.3201 260.065 13.6982 260.92 12.8856C261.774 12.0564 262.821 10.9701 264.061 9.62687C264.832 8.76451 265.468 8.02653 265.971 7.41294C266.473 6.79934 266.926 6.24378 267.328 5.74627C267.747 5.23217 268.174 4.74295 268.609 4.27861C269.062 3.79768 269.615 3.267 270.268 2.68657C270.821 2.20564 271.348 1.79934 271.851 1.46766C272.354 1.1194 272.856 0.845771 273.359 0.646766C273.861 0.431177 274.381 0.281924 274.917 0.199005C275.47 0.0995025 276.064 0.0497512 276.701 0.0497512C277.036 0.0497512 277.354 0.0912106 277.656 0.174129C277.974 0.240464 278.251 0.356551 278.485 0.522388C278.72 0.688226 278.904 0.895522 279.038 1.14428C279.172 1.37645 279.239 1.66667 279.239 2.01493C279.239 2.49585 279.122 2.94362 278.887 3.35821C278.669 3.7728 278.217 4.10448 277.53 4.35323C276.776 4.61857 276.039 4.81758 275.319 4.95025C274.599 5.06634 273.97 5.23217 273.434 5.44776C273.133 5.56385 272.806 5.69652 272.454 5.84577C272.102 5.99502 271.734 6.18574 271.348 6.41791C270.963 6.6335 270.553 6.90713 270.117 7.23881C269.698 7.5539 269.271 7.93532 268.835 8.38308C268.45 8.78109 267.989 9.2869 267.453 9.9005C266.917 10.5141 266.297 11.1857 265.594 11.9154C264.907 12.6285 264.153 13.3665 263.332 14.1294C262.511 14.8922 261.64 15.6053 260.719 16.2687C260.903 16.2521 261.079 16.2438 261.246 16.2438C261.431 16.2272 261.607 16.2189 261.774 16.2189C262.712 16.2189 263.567 16.2769 264.337 16.393C265.125 16.5091 265.862 16.7247 266.549 17.0398C267.252 17.3383 267.914 17.7695 268.534 18.3333C269.154 18.8806 269.782 19.602 270.419 20.4975C271.508 22.0564 272.58 23.6318 273.635 25.2239C274.691 26.8159 275.813 28.3914 277.003 29.9502C277.271 30.2985 277.572 30.6136 277.907 30.8955C278.242 31.1609 278.586 31.3847 278.938 31.5672C279.306 31.733 279.666 31.8657 280.018 31.9652C280.387 32.0481 280.738 32.0896 281.074 32.0896V34.3781Z" fill="white"/>
<path d="M316.33 10.2239H313.943C313.725 8.13433 313.256 6.59204 312.536 5.59701C311.832 4.60199 311.07 3.98839 310.249 3.75622C309.428 3.52405 308.481 3.40796 307.409 3.40796H303.087V28.1095C303.087 29.0879 303.188 29.8507 303.389 30.398C303.59 30.9287 304.059 31.3433 304.796 31.6418C305.533 31.9403 306.614 32.0896 308.038 32.0896V34.3781H290.949V32.0896C293.044 32.0896 294.392 31.791 294.995 31.194C295.598 30.597 295.9 29.5688 295.9 28.1095V3.40796H292.281C290.857 3.40796 289.676 3.52405 288.738 3.75622C287.8 3.97181 286.971 4.58541 286.25 5.59701C285.547 6.59204 285.145 8.13433 285.044 10.2239H282.657V0.646766H316.33V10.2239Z" fill="white"/>
<path d="M332.162 4.27861C332.162 4.46103 332.254 4.78441 332.438 5.24876C332.639 5.69652 332.991 6.26866 333.494 6.96517L338.897 14.5522L344.953 6.76617C345.171 6.48425 345.346 6.24378 345.48 6.04478C345.615 5.84577 345.715 5.67164 345.782 5.52239C345.849 5.35655 345.891 5.2073 345.908 5.07463C345.924 4.94196 345.933 4.80099 345.933 4.65174C345.933 4.03814 345.707 3.59867 345.254 3.33333C344.819 3.06799 343.998 2.93532 342.792 2.93532H341.611V0.646766H355.658V2.93532C354.418 2.93532 353.338 3.14262 352.416 3.55721C351.947 3.7728 351.537 4.00498 351.185 4.25373C350.85 4.4859 350.498 4.77612 350.129 5.12438C349.778 5.47264 349.384 5.91211 348.948 6.44279C348.53 6.95688 348.01 7.61194 347.39 8.40796L329.825 30.6716C329.322 31.3184 328.811 31.9071 328.292 32.4378C327.773 32.9685 327.245 33.4245 326.709 33.806C326.173 34.1874 325.611 34.4776 325.025 34.6766C324.455 34.8922 323.861 35 323.241 35C322.604 35 322.043 34.9171 321.557 34.7512C321.071 34.602 320.661 34.3947 320.326 34.1294C319.991 33.864 319.731 33.5655 319.547 33.2338C319.379 32.8856 319.296 32.529 319.296 32.1642C319.296 31.3682 319.53 30.7214 319.999 30.2239C320.485 29.7264 321.122 29.4776 321.909 29.4776C322.361 29.4776 322.822 29.5274 323.291 29.6269C323.777 29.7098 324.196 29.7512 324.548 29.7512C326.039 29.7512 327.094 29.3698 327.714 28.607L334.273 20.398L325.452 7.78607C324.899 6.99005 324.414 6.3267 323.995 5.79602C323.593 5.24876 323.266 4.83416 323.015 4.55224C322.763 4.25373 322.487 4.00498 322.185 3.80597C321.901 3.60697 321.566 3.44113 321.18 3.30846C320.795 3.17579 320.351 3.08458 319.848 3.03483C319.346 2.96849 318.759 2.93532 318.089 2.93532V0.646766H336.434V2.93532H335.127C334.641 2.93532 334.214 2.95191 333.846 2.98507C333.477 3.00166 333.167 3.0597 332.916 3.1592C332.664 3.24212 332.472 3.37479 332.338 3.55721C332.22 3.73964 332.162 3.9801 332.162 4.27861Z" fill="white"/>
<path d="M387.773 9.62687C387.773 12.3964 386.911 14.5025 385.185 15.9453C383.46 17.3715 381.424 18.2919 379.079 18.7065C376.75 19.1045 374.296 19.3035 371.716 19.3035H369.454V28.1095C369.454 29.1045 369.563 29.8756 369.781 30.4229C369.999 30.9701 370.468 31.3847 371.188 31.6667C371.908 31.9486 373.006 32.0896 374.48 32.0896V34.3781H357.342V32.0896C358.799 32.0896 359.871 31.9403 360.558 31.6418C361.262 31.3433 361.714 30.9204 361.915 30.3731C362.133 29.8259 362.242 29.0713 362.242 28.1095V6.81592C362.242 5.85406 362.141 5.10779 361.94 4.57711C361.739 4.02985 361.287 3.60697 360.583 3.30846C359.88 2.99337 358.799 2.83582 357.342 2.83582V0.497512L367.067 0.248756C367.569 0.232172 368.114 0.223881 368.7 0.223881C369.303 0.207297 369.781 0.199005 370.133 0.199005C370.484 0.182421 371.004 0.174129 371.691 0.174129C372.545 0.174129 373.182 0.182421 373.6 0.199005C375.594 0.281924 377.512 0.472637 379.355 0.771144C381.198 1.06965 383.057 1.91542 384.934 3.30846C386.827 4.68491 387.773 6.79104 387.773 9.62687ZM380.034 9.67662C380.034 6.99005 379.238 5.19901 377.646 4.30348C376.071 3.39138 373.994 2.93532 371.414 2.93532C370.945 2.93532 370.292 2.95191 369.454 2.98507V16.5423H371.766C374.229 16.5423 376.222 16.1277 377.747 15.2985C379.271 14.4527 380.034 12.5788 380.034 9.67662Z" fill="white"/>
<path d="M424.236 34.3781H408.179V32.0896C409.536 32.0896 410.524 31.9983 411.144 31.8159C411.764 31.6169 412.074 31.1609 412.074 30.4478C412.074 29.9502 411.973 29.4444 411.772 28.9303L410.164 24.9502H399.107L398.278 27.1393C397.809 28.3665 397.574 29.2537 397.574 29.801C397.574 30.796 397.959 31.4262 398.73 31.6915C399.517 31.9569 400.43 32.0896 401.469 32.0896V34.3781H389.734V32.0896C390.672 32.0896 391.467 31.9154 392.121 31.5672C392.774 31.2189 393.394 30.5638 393.98 29.602C394.584 28.6235 395.229 27.2471 395.915 25.4726L405.741 0H408.128L418.507 26.2687C419.261 28.126 419.814 29.3864 420.165 30.0498C420.517 30.6965 421.003 31.2023 421.623 31.5672C422.243 31.9154 423.114 32.0896 424.236 32.0896V34.3781ZM409.259 22.5124L404.56 10.7463L400.087 22.5124H409.259Z" fill="white"/>
<path d="M472.41 34.0299H470.047C469.696 32.6036 469.118 31.3267 468.314 30.199C467.04 31.5091 465.583 32.6368 463.941 33.5821C462.299 34.5274 460.079 35 457.282 35C454.216 35 451.368 34.262 448.738 32.7861C446.124 31.3101 444.038 29.2537 442.48 26.6169C440.922 23.9635 440.143 20.9784 440.143 17.6617C440.143 15.3068 440.562 13.0597 441.4 10.9204C442.254 8.78109 443.46 6.89884 445.018 5.27363C446.593 3.64842 448.461 2.37148 450.622 1.44279C452.8 0.514096 455.179 0.0497512 457.759 0.0497512C462.014 0.0497512 465.533 1.4262 468.314 4.1791C468.682 3.466 469.042 2.42952 469.394 1.06965H471.656L472.058 13.4826H469.645C469.21 11.3765 468.422 9.50249 467.283 7.8607C466.144 6.21891 464.787 4.96683 463.212 4.10448C461.654 3.22554 460.021 2.78607 458.312 2.78607C456.402 2.78607 454.685 3.30846 453.16 4.35323C451.636 5.38143 450.438 6.95688 449.567 9.0796C448.713 11.2023 448.285 13.8474 448.285 17.0149C448.285 20.0995 448.646 22.67 449.366 24.7264C450.086 26.7662 450.974 28.3085 452.03 29.3532C453.102 30.398 454.174 31.1111 455.246 31.4925C456.318 31.8574 457.324 32.0398 458.262 32.0398C460.322 32.0398 462.174 31.4925 463.815 30.398C465.474 29.3035 466.831 27.927 467.886 26.2687C468.942 24.5937 469.645 22.9353 469.997 21.2935H472.41V34.0299Z" fill="white"/>
<path d="M516.738 34.3781H499.977V32.0896C501.35 32.0896 502.389 31.9403 503.093 31.6418C503.796 31.3433 504.249 30.9121 504.45 30.3483C504.651 29.7844 504.751 29.0381 504.751 28.1095V17.9851H488.945V28.1095C488.945 29.5025 489.238 30.5141 489.824 31.1443C490.411 31.7745 491.751 32.0896 493.845 32.0896V34.3781H476.958V32.0896C478.315 32.0896 479.345 31.9403 480.049 31.6418C480.769 31.3433 481.23 30.9204 481.431 30.3731C481.649 29.8093 481.758 29.0547 481.758 28.1095V6.91542C481.758 5.97015 481.657 5.23217 481.456 4.70149C481.255 4.15423 480.811 3.72305 480.124 3.40796C479.438 3.09287 478.382 2.93532 476.958 2.93532V0.646766H493.845V2.93532C491.768 2.93532 490.427 3.24212 489.824 3.85572C489.238 4.46932 488.945 5.48922 488.945 6.91542V15.2239H504.751V6.91542C504.751 5.97015 504.659 5.23217 504.475 4.70149C504.291 4.15423 503.855 3.72305 503.168 3.40796C502.481 3.09287 501.417 2.93532 499.977 2.93532V0.646766H516.738V2.93532C515.314 2.93532 514.259 3.09287 513.572 3.40796C512.885 3.72305 512.441 4.15423 512.24 4.70149C512.056 5.23217 511.964 5.97015 511.964 6.91542V28.1095C511.964 29.0216 512.047 29.7512 512.215 30.2985C512.399 30.8292 512.843 31.2604 513.547 31.592C514.25 31.9237 515.314 32.0896 516.738 32.0896V34.3781Z" fill="white"/>
<path d="M553 34.3781H536.942V32.0896C538.299 32.0896 539.288 31.9983 539.908 31.8159C540.527 31.6169 540.837 31.1609 540.837 30.4478C540.837 29.9502 540.737 29.4444 540.536 28.9303L538.927 24.9502H527.87L527.041 27.1393C526.572 28.3665 526.338 29.2537 526.338 29.801C526.338 30.796 526.723 31.4262 527.494 31.6915C528.281 31.9569 529.194 32.0896 530.233 32.0896V34.3781H518.497V32.0896C519.435 32.0896 520.231 31.9154 520.884 31.5672C521.538 31.2189 522.158 30.5638 522.744 29.602C523.347 28.6235 523.992 27.2471 524.679 25.4726L534.505 0H536.892L547.27 26.2687C548.024 28.126 548.577 29.3864 548.929 30.0498C549.281 30.6965 549.767 31.2023 550.387 31.5672C551.006 31.9154 551.878 32.0896 553 32.0896V34.3781ZM538.023 22.5124L533.324 10.7463L528.851 22.5124H538.023Z" fill="white"/>
</svg>
